<svg width="47" height="40" viewBox="0 0 47 40" fill="none" xmlns="http://www.w3.org/2000/svg">
<circle cx="12.5" cy="17" r="12" fill="#FFE3E4"/>
<g clip-path="url(#clip0_137_4539)">
<path fill-rule="evenodd" clip-rule="evenodd" d="M22.6073 22.9971H8.12498C7.44848 22.9971 6.89998 23.5456 6.89998 24.2221V34.9852C6.89998 36.5442 8.16381 37.8082 9.72281 37.8082H43.2771C44.8361 37.8082 46.1 36.5442 46.1 34.9852V24.2221C46.1 23.5456 45.5515 22.9971 44.875 22.9971H30.3928V27.2666C30.3928 28.2991 29.9828 29.2892 29.2528 30.0192C28.5226 30.7494 27.5326 31.1596 26.5001 31.1596C25.4676 31.1596 24.4775 30.7494 23.7475 30.0192C23.0173 29.2892 22.6073 28.2991 22.6073 27.2666V22.9971ZM25.0573 27.2666V23.0967H27.9428V27.2666C27.9428 27.6494 27.791 28.0164 27.5203 28.2871C27.2496 28.5574 26.8826 28.7096 26.5001 28.7096C26.1175 28.7096 25.7505 28.5574 25.4798 28.2871C25.2093 28.0164 25.0573 27.6494 25.0573 27.2666Z" fill="#E5173F"/>
<path fill-rule="evenodd" clip-rule="evenodd" d="M17.3195 2.19763C17.1873 2.1748 17.0523 2.21813 16.9583 2.31397C16.8645 2.40963 16.8235 2.5453 16.8486 2.67697L17.8191 7.73363L16.1755 10.1566L13.7523 8.51297L12.7818 3.4563C12.7566 3.32463 12.6683 3.2138 12.5456 3.15963C12.423 3.10547 12.2816 3.11513 12.1673 3.18513C10.8821 3.9733 9.86765 5.13447 9.25882 6.51363C8.64998 7.89297 8.47582 9.4248 8.75948 10.9056C9.04315 12.3863 9.77115 13.7455 10.8466 14.802C11.8543 15.7921 13.1223 16.4725 14.5001 16.766L15.3021 20.9555H21.1831L20.1711 15.679C21.3428 14.8971 22.2695 13.7963 22.84 12.504C23.4488 11.1246 23.623 9.5928 23.3393 8.11197C23.0556 6.6313 22.3276 5.27213 21.2521 4.21563C20.1766 3.15897 18.8048 2.45513 17.3195 2.19763ZM36.7628 20.9555H31.1168L32.8793 11.4961L26.3748 10.2843C26.2683 10.2645 26.1743 10.203 26.113 10.1138C26.0516 10.0243 26.0285 9.9143 26.0483 9.80797L26.632 6.68197C26.6733 6.4603 26.8865 6.31413 27.1081 6.35547C30.5523 6.9973 32.7876 5.48213 33.142 3.5808C33.1833 3.35913 33.3965 3.21297 33.618 3.25413L44.5623 5.2923C44.6688 5.31213 44.7631 5.37347 44.8243 5.4628C44.8856 5.55213 44.9088 5.66213 44.889 5.76863L43.5295 13.0653C43.4881 13.287 43.2748 13.4333 43.0531 13.392L38.4268 12.53L36.7628 20.9555Z" fill="#E5173F"/>
</g>
<defs>
<clipPath id="clip0_137_4539">
<rect width="40" height="40" fill="white" transform="translate(6.5)"/>
</clipPath>
</defs>
</svg>
