<svg width="50" height="42" viewBox="0 0 50 42" fill="none" xmlns="http://www.w3.org/2000/svg">
<circle cx="12.17" cy="12" r="12" fill="#FFE3E4"/>
<g clip-path="url(#clip0_135_4535)">
<path d="M47.8335 16.1001C47.2437 15.3478 46.4132 14.8211 45.4813 14.6085C44.5493 14.3958 43.5726 14.5101 42.7148 14.9321C41.8571 15.3541 41.1706 16.0583 40.7704 16.9264C40.3702 17.7945 40.2807 18.7738 40.5168 19.7001C40.5585 19.8808 40.6603 20.042 40.8057 20.1571C40.9511 20.2722 41.1314 20.3344 41.3168 20.3334H42.1835C42.244 20.3339 42.3037 20.3476 42.3584 20.3735C42.413 20.3994 42.4614 20.4369 42.5002 20.4834C42.5416 20.5305 42.5709 20.587 42.5854 20.648C42.6 20.7091 42.5993 20.7727 42.5835 20.8334L41.9002 24.1668C41.7914 24.5445 41.5962 24.8917 41.3301 25.181C41.064 25.4702 40.7342 25.6936 40.3668 25.8334C40.2782 25.8635 40.1825 25.8652 40.0929 25.8383C40.0032 25.8114 39.9242 25.7573 39.8668 25.6834C39.5675 25.2723 39.1483 24.9638 38.6668 24.8001C35.6892 23.946 32.5961 23.5636 29.5002 23.6668C26.4139 23.6121 23.338 24.0395 20.3835 24.9334C19.902 25.0971 19.4829 25.4056 19.1835 25.8168C19.1261 25.8906 19.0471 25.9448 18.9575 25.9717C18.8679 25.9985 18.7721 25.9968 18.6835 25.9668C18.3161 25.8269 17.9863 25.6036 17.7202 25.3143C17.4541 25.025 17.2589 24.6778 17.1502 24.3001L16.4668 20.9668C16.451 20.906 16.4504 20.8424 16.4649 20.7814C16.4794 20.7203 16.5087 20.6638 16.5502 20.6168C16.5727 20.5455 16.6139 20.4815 16.6697 20.4317C16.7254 20.3818 16.7935 20.3479 16.8668 20.3334H17.7335C17.9189 20.3344 18.0992 20.2722 18.2446 20.1571C18.39 20.042 18.4919 19.8808 18.5335 19.7001C18.6932 19.0842 18.7097 18.4399 18.5817 17.8167C18.4538 17.1934 18.1848 16.6077 17.7955 16.1045C17.4061 15.6013 16.9066 15.194 16.3354 14.9137C15.7642 14.6335 15.1364 14.4878 14.5002 14.4878C13.8639 14.4878 13.2361 14.6335 12.6649 14.9137C12.0937 15.194 11.5942 15.6013 11.2049 16.1045C10.8155 16.6077 10.5465 17.1934 10.4186 17.8167C10.2907 18.4399 10.3072 19.0842 10.4668 19.7001C10.5085 19.8808 10.6103 20.042 10.7557 20.1571C10.9011 20.2722 11.0814 20.3344 11.2668 20.3334H12.2835C12.4756 20.3334 12.6618 20.3997 12.8106 20.5212C12.9595 20.6427 13.0617 20.8119 13.1002 21.0001L13.8835 24.8834C14.1354 26.0125 14.7136 27.0426 15.5463 27.8457C16.379 28.6487 17.4294 29.1893 18.5668 29.4001C18.6338 29.4125 18.6972 29.4399 18.752 29.4803C18.8069 29.5207 18.8518 29.5731 18.8835 29.6334C19.0707 30.0855 19.3873 30.4723 19.7935 30.7451C20.1997 31.0179 20.6775 31.1646 21.1668 31.1668H27.4168C27.5273 31.1668 27.6333 31.2107 27.7115 31.2888C27.7896 31.3669 27.8335 31.4729 27.8335 31.5834V32.5834C27.8308 32.6848 27.7926 32.782 27.7256 32.8582C27.6586 32.9343 27.567 32.9845 27.4668 33.0001C24.5388 33.2999 21.8226 34.6639 19.8335 36.8334C19.7938 36.8842 19.7433 36.9256 19.6857 36.9544C19.628 36.9832 19.5646 36.9989 19.5002 37.0001C19.0101 37.0005 18.5309 37.1449 18.1222 37.4155C17.7135 37.686 17.3934 38.0707 17.2016 38.5217C17.0098 38.9727 16.9548 39.4702 17.0434 39.9522C17.132 40.4342 17.3604 40.8796 17.7001 41.2329C18.0398 41.5861 18.4758 41.8318 18.954 41.9393C19.4322 42.0467 19.9314 42.0112 20.3896 41.8373C20.8478 41.6633 21.2447 41.3585 21.5311 40.9607C21.8174 40.563 21.9806 40.0898 22.0002 39.6001C22.0002 39.4001 22.0002 39.3501 22.5002 38.8334C23.7929 37.4856 25.5009 36.611 27.3502 36.3501C27.4096 36.3417 27.4702 36.3464 27.5278 36.3636C27.5853 36.3809 27.6384 36.4104 27.6835 36.4501C27.7329 36.4862 27.7726 36.534 27.7988 36.5893C27.825 36.6447 27.8369 36.7056 27.8335 36.7668V37.6501C27.4561 37.9876 27.1901 38.4318 27.0707 38.9238C26.9513 39.4159 26.9841 39.9325 27.1647 40.4055C27.3454 40.8785 27.6654 41.2855 28.0824 41.5726C28.4995 41.8597 28.9938 42.0135 29.5002 42.0135C30.0065 42.0135 30.5009 41.8597 30.9179 41.5726C31.3349 41.2855 31.6549 40.8785 31.8356 40.4055C32.0163 39.9325 32.049 39.4159 31.9296 38.9238C31.8102 38.4318 31.5442 37.9876 31.1668 37.6501V36.7668C31.1649 36.7034 31.1773 36.6405 31.2033 36.5828C31.2293 36.525 31.2681 36.4739 31.3168 36.4334C31.414 36.3658 31.5326 36.3361 31.6502 36.3501C33.4994 36.611 35.2074 37.4856 36.5002 38.8334C36.9335 39.3668 37.0002 39.4001 37.0002 39.6001C37.0198 40.0898 37.1829 40.563 37.4692 40.9607C37.7556 41.3585 38.1525 41.6633 38.6107 41.8373C39.0689 42.0112 39.5681 42.0467 40.0463 41.9393C40.5245 41.8318 40.9605 41.5861 41.3002 41.2329C41.6399 40.8796 41.8683 40.4342 41.9569 39.9522C42.0456 39.4702 41.9906 38.9727 41.7988 38.5217C41.607 38.0707 41.2868 37.686 40.8781 37.4155C40.4695 37.1449 39.9903 37.0005 39.5002 37.0001C39.4369 37.0021 39.3739 36.9896 39.3162 36.9636C39.2584 36.9376 39.2073 36.8988 39.1668 36.8501C37.1777 34.6806 34.4615 33.3166 31.5335 33.0168C31.4333 33.0012 31.3417 32.951 31.2747 32.8748C31.2077 32.7987 31.1695 32.7015 31.1668 32.6001V31.6001C31.1668 31.4896 31.2107 31.3836 31.2889 31.3055C31.367 31.2273 31.473 31.1834 31.5835 31.1834H37.8335C38.3228 31.1812 38.8006 31.0345 39.2068 30.7617C39.6131 30.4889 39.9296 30.1022 40.1168 29.6501C40.1485 29.5898 40.1935 29.5374 40.2483 29.497C40.3032 29.4566 40.3665 29.4291 40.4335 29.4168C41.571 29.2059 42.6214 28.6654 43.454 27.8624C44.2867 27.0593 44.865 26.0292 45.1168 24.9001L45.9002 21.0168C45.9386 20.8285 46.0409 20.6594 46.1897 20.5379C46.3385 20.4164 46.5247 20.35 46.7168 20.3501H47.7335C47.9189 20.351 48.0992 20.2888 48.2446 20.1737C48.39 20.0586 48.4919 19.8975 48.5335 19.7168C48.7031 19.1007 48.7282 18.4538 48.6068 17.8265C48.4854 17.1992 48.2207 16.6084 47.8335 16.1001Z" fill="#E5173F"/>
<path d="M21.4668 21.2834C21.5348 21.4715 21.6682 21.6289 21.8426 21.7268C22.017 21.8247 22.2208 21.8566 22.4168 21.8167C27.0993 20.95 31.9011 20.95 36.5835 21.8167C36.7792 21.8531 36.9816 21.8197 37.1552 21.7222C37.3288 21.6248 37.4627 21.4694 37.5335 21.2834C38.8313 18.0228 39.7702 14.6306 40.3335 11.1667C40.1654 8.82449 39.1633 6.62014 37.509 4.95358C35.8547 3.28703 33.6577 2.2687 31.3168 2.08336C30.1085 1.96668 28.8918 1.96668 27.6835 2.08336C25.3426 2.2687 23.1457 3.28703 21.4914 4.95358C19.8371 6.62014 18.8349 8.82449 18.6668 11.1667C19.2301 14.6306 20.169 18.0228 21.4668 21.2834Z" fill="#E5173F"/>
</g>
<defs>
<clipPath id="clip0_135_4535">
<rect width="40" height="40" fill="white" transform="translate(9.5 2)"/>
</clipPath>
</defs>
</svg>
