<svg width="41" height="40" viewBox="0 0 41 40" fill="none" xmlns="http://www.w3.org/2000/svg">
<circle cx="13" cy="12.5" r="11.5" fill="#FFE3E4"/>
<g clip-path="url(#clip0_135_4537)">
<path fill-rule="evenodd" clip-rule="evenodd" d="M22.1335 10.4282C22.0062 10.4322 21.8655 10.4346 21.7132 10.4346C20.9932 10.4346 19.996 10.3795 18.8832 10.157C17.0486 9.79003 14.8207 8.94895 13.0467 7.07828C11.2728 8.94895 9.04486 9.79003 7.21016 10.157C6.09738 10.3795 5.10023 10.4346 4.38031 10.4346C4.22789 10.4346 4.08728 10.4322 3.95994 10.4282C3.82574 11.0568 3.75513 11.7089 3.75513 12.3775C3.75513 17.5091 7.91511 21.6691 13.0467 21.6691C14.113 21.6691 15.1373 21.4896 16.0911 21.1589C15.6207 22.0567 15.2453 23.0121 14.9782 24.0117C14.3497 24.1152 13.7045 24.1691 13.0467 24.1691C6.53439 24.1691 1.25513 18.8899 1.25513 12.3775C1.25513 8.04155 3.59546 4.25218 7.08186 2.20371C8.61566 1.25179 10.5759 0.585938 13.0467 0.585938C14.7943 0.585938 16.2893 0.931776 17.5593 1.48022C21.8325 3.25175 24.8383 7.46361 24.8383 12.3775C24.8383 12.9924 24.7912 13.5962 24.7005 14.1857C23.7042 14.4634 22.7528 14.849 21.8597 15.329C22.1702 14.4017 22.3383 13.4093 22.3383 12.3775C22.3383 11.7089 22.2677 11.0568 22.1335 10.4282ZM9.31661 14.4619C10.1991 14.4619 10.9145 13.7465 10.9145 12.864C10.9145 11.9815 10.1991 11.2662 9.31661 11.2662C8.43414 11.2662 7.71876 11.9815 7.71876 12.864C7.71876 13.7465 8.43414 14.4619 9.31661 14.4619ZM16.6146 14.4619C17.497 14.4619 18.2125 13.7465 18.2125 12.864C18.2125 11.9815 17.497 11.2662 16.6146 11.2662C15.7321 11.2662 15.0167 11.9815 15.0167 12.864C15.0167 13.7465 15.7321 14.4619 16.6146 14.4619ZM9.29129 15.9894C9.80443 15.5276 10.5948 15.5691 11.0566 16.0823C11.9951 17.1251 13.7589 17.1956 14.9199 16.0346C15.408 15.5465 16.1995 15.5465 16.6876 16.0346C17.1758 16.5228 17.1758 17.3142 16.6876 17.8024C14.605 19.8851 11.1791 19.9556 9.19838 17.7547C8.73656 17.2416 8.77816 16.4512 9.29129 15.9894ZM24.8603 31.2341C25.3735 30.7722 26.1638 30.8139 26.6257 31.3271C27.5642 32.3697 29.328 32.4404 30.489 31.2794C30.9772 30.7912 31.7685 30.7912 32.2567 31.2794C32.7448 31.7676 32.7448 32.5589 32.2567 33.0471C30.1742 35.1297 26.7482 35.2002 24.7675 32.9994C24.3057 32.4864 24.3473 31.6959 24.8603 31.2341ZM16.6621 27.6222C16.6621 23.2222 19.0722 19.3849 22.6442 17.3587C22.6922 17.3314 22.7405 17.3046 22.789 17.2779C23.6315 16.8156 24.5368 16.453 25.489 16.2065C25.4898 16.049 25.4923 15.8791 25.497 15.6986C25.5232 14.6888 25.617 13.3278 25.8933 11.955C26.167 10.595 26.6337 9.15073 27.4503 8.0285C28.2907 6.87383 29.5167 6.04883 31.2107 6.04883C34.3012 6.04883 36.4558 7.71508 37.804 9.33748C38.479 10.1498 38.967 10.9672 39.2885 11.5989C39.4495 11.9153 39.571 12.1896 39.6548 12.399C39.6965 12.5032 39.7305 12.5955 39.7558 12.6719C39.7683 12.7096 39.7807 12.7489 39.791 12.787L39.7915 12.7889C39.7977 12.8117 39.8185 12.8884 39.8258 12.9773C39.841 13.1635 39.7917 13.3207 39.7768 13.3683C39.752 13.4475 39.7193 13.527 39.6848 13.6001C39.6152 13.7481 39.5172 13.9155 39.392 14.088C39.142 14.4326 38.7578 14.8324 38.2197 15.1394C37.0853 15.7866 35.4667 15.9141 33.3955 14.7435C32.3333 14.1431 31.816 14.172 31.6115 14.2441C31.4377 14.3053 31.2538 14.4863 31.1228 14.9517C31.0242 15.3022 30.9877 15.7135 30.9845 16.1029C32.0033 16.3257 32.9728 16.6802 33.8742 17.1477C34.0345 17.2309 34.1927 17.3176 34.3485 17.4077C37.8735 19.4464 40.2452 23.2574 40.2452 27.6222C40.2452 34.1346 34.966 39.4139 28.4537 39.4139C21.9413 39.4139 16.6621 34.1346 16.6621 27.6222ZM19.162 27.6222C19.162 26.9557 19.2322 26.3057 19.3655 25.6789C20.3427 25.6717 21.7342 25.5761 23.2233 25.1981C24.958 24.7577 26.9028 23.9129 28.4528 22.3097C30.0297 23.9447 32.0098 24.7917 33.7613 25.2251C35.2293 25.5882 36.5927 25.6757 37.5418 25.6792C37.675 26.3059 37.7452 26.9559 37.7452 27.6222C37.7452 32.7539 33.5852 36.9139 28.4537 36.9139C23.322 36.9139 19.162 32.7539 19.162 27.6222ZM26.4837 28.1089C26.4837 28.9912 25.7682 29.7067 24.8857 29.7067C24.0033 29.7067 23.2878 28.9912 23.2878 28.1089C23.2878 27.2264 24.0033 26.5109 24.8857 26.5109C25.7682 26.5109 26.4837 27.2264 26.4837 28.1089ZM32.1837 29.7067C33.0662 29.7067 33.7815 28.9912 33.7815 28.1089C33.7815 27.2264 33.0662 26.5109 32.1837 26.5109C31.3012 26.5109 30.5858 27.2264 30.5858 28.1089C30.5858 28.9912 31.3012 29.7067 32.1837 29.7067Z" fill="#E5173F"/>
</g>
<defs>
<clipPath id="clip0_135_4537">
<rect width="40" height="40" fill="white" transform="translate(0.75)"/>
</clipPath>
</defs>
</svg>
