<svg width="44" height="40" viewBox="0 0 44 40" fill="none" xmlns="http://www.w3.org/2000/svg">
<circle cx="12" cy="23" r="12" fill="#FFE3E4"/>
<g clip-path="url(#clip0_135_4536)">
<path d="M8.50016 35H21.8335C22.2755 35 22.6994 34.8244 23.012 34.5119C23.3246 34.1993 23.5002 33.7754 23.5002 33.3334V30.8334C23.5002 30.1703 23.2368 29.5344 22.7679 29.0656C22.2991 28.5968 21.6632 28.3334 21.0002 28.3334H9.3335C8.67045 28.3334 8.03457 28.5968 7.56573 29.0656C7.09689 29.5344 6.8335 30.1703 6.8335 30.8334V33.3334C6.8335 33.7754 7.00909 34.1993 7.32165 34.5119C7.63421 34.8244 8.05814 35 8.50016 35Z" fill="#E5173F"/>
<path d="M41.8335 30.0001C42.0962 29.7495 42.3053 29.4483 42.4482 29.1145C42.5911 28.7808 42.6648 28.4215 42.6648 28.0585C42.6648 27.6954 42.5911 27.3361 42.4482 27.0024C42.3053 26.6687 42.0962 26.3674 41.8335 26.1168L30.4835 15.8835C30.3981 15.8055 30.3446 15.6986 30.3335 15.5835C30.3343 15.527 30.3465 15.4713 30.3694 15.4198C30.3923 15.3682 30.4255 15.3218 30.4669 15.2835L33.4002 12.3501C33.4777 12.2865 33.5749 12.2517 33.6752 12.2517C33.7755 12.2517 33.8727 12.2865 33.9502 12.3501C34.3818 12.6769 34.9089 12.8526 35.4502 12.8501C36.1119 12.8442 36.7454 12.5812 37.2169 12.1168C37.681 11.6459 37.9412 11.0113 37.9412 10.3501C37.9412 9.68896 37.681 9.05434 37.2169 8.58346L29.4002 0.733463C29.1692 0.499646 28.8941 0.314006 28.5908 0.187305C28.2876 0.0606032 27.9622 -0.00463867 27.6335 -0.00463867C27.3049 -0.00463867 26.9795 0.0606032 26.6762 0.187305C26.3729 0.314006 26.0978 0.499646 25.8669 0.733463C25.4269 1.16431 25.1601 1.74152 25.1171 2.35582C25.0741 2.97011 25.2579 3.57885 25.6335 4.0668C25.7028 4.1383 25.7415 4.23393 25.7415 4.33346C25.7415 4.433 25.7028 4.52863 25.6335 4.60013L16.3669 13.7668C16.2954 13.836 16.1997 13.8748 16.1002 13.8748C16.0007 13.8748 15.905 13.836 15.8335 13.7668C15.3456 13.3911 14.7368 13.2074 14.1225 13.2504C13.5082 13.2934 12.931 13.5602 12.5002 14.0001C12.2664 14.2311 12.0807 14.5062 11.954 14.8095C11.8273 15.1127 11.7621 15.4381 11.7621 15.7668C11.7621 16.0955 11.8273 16.4209 11.954 16.7241C12.0807 17.0274 12.2664 17.3025 12.5002 17.5335L20.3002 25.3501C20.7422 25.8496 21.3646 26.1531 22.0303 26.1937C22.6961 26.2343 23.3507 26.0088 23.8502 25.5668C24.3497 25.1248 24.6531 24.5024 24.6938 23.8367C24.7344 23.1709 24.5089 22.5163 24.0669 22.0168C24.0032 21.9393 23.9684 21.8421 23.9684 21.7418C23.9684 21.6415 24.0032 21.5443 24.0669 21.4668L27.0002 18.5335C27.0386 18.4921 27.0849 18.4589 27.1365 18.436C27.1881 18.4131 27.2438 18.4009 27.3002 18.4001C27.3588 18.398 27.4169 18.4106 27.4693 18.4369C27.5217 18.4631 27.5667 18.502 27.6002 18.5501L37.9502 30.0001C38.2008 30.2628 38.502 30.4719 38.8358 30.6148C39.1695 30.7577 39.5288 30.8314 39.8919 30.8314C40.2549 30.8314 40.6142 30.7577 40.9479 30.6148C41.2817 30.4719 41.5829 30.2628 41.8335 30.0001Z" fill="#E5173F"/>
<path d="M24.3335 36.6667H6.00016C5.55814 36.6667 5.13421 36.8423 4.82165 37.1549C4.50909 37.4675 4.3335 37.8914 4.3335 38.3334C4.3335 38.7754 4.50909 39.1994 4.82165 39.5119C5.13421 39.8245 5.55814 40.0001 6.00016 40.0001H24.3335C24.7755 40.0001 25.1994 39.8245 25.512 39.5119C25.8246 39.1994 26.0002 38.7754 26.0002 38.3334C26.0002 37.8914 25.8246 37.4675 25.512 37.1549C25.1994 36.8423 24.7755 36.6667 24.3335 36.6667Z" fill="#E5173F"/>
</g>
<defs>
<clipPath id="clip0_135_4536">
<rect width="40" height="40" fill="white" transform="translate(3.5)"/>
</clipPath>
</defs>
</svg>
