<svg width="45" height="40" viewBox="0 0 45 40" fill="none" xmlns="http://www.w3.org/2000/svg">
<circle cx="12" cy="12" r="12" fill="#FFE3E4"/>
<g clip-path="url(#clip0_135_4538)">
<path d="M20.5167 7.06667C20.6419 7.16861 20.734 7.30534 20.7814 7.45959C20.8289 7.61384 20.8296 7.77869 20.7834 7.93333L20.1667 10.1667C20.1191 10.3794 20.1358 10.6015 20.2146 10.8047C20.2934 11.0079 20.4308 11.1832 20.6094 11.3082C20.7879 11.4332 20.9996 11.5023 21.2176 11.5068C21.4355 11.5113 21.6499 11.4509 21.8334 11.3333L23.7334 10C23.8817 9.88647 24.0633 9.82495 24.2501 9.82495C24.4369 9.82495 24.6184 9.88647 24.7667 10L26.5834 11.4333C26.767 11.5509 26.9813 11.6113 27.1993 11.6068C27.4172 11.6023 27.6289 11.5332 27.8075 11.4082C27.986 11.2832 28.1235 11.1079 28.2023 10.9047C28.2811 10.7015 28.2977 10.4794 28.2501 10.2667L27.6334 8C27.5908 7.84771 27.5933 7.68633 27.6406 7.53544C27.688 7.38455 27.7781 7.25065 27.9001 7.15L29.5667 5.7C29.7438 5.55471 29.8711 5.35778 29.9308 5.13669C29.9906 4.91559 29.9798 4.68136 29.9001 4.46667C29.8197 4.25725 29.6782 4.07688 29.4939 3.94905C29.3096 3.82122 29.091 3.75186 28.8667 3.75H27.0334C26.8647 3.74891 26.7 3.69761 26.5605 3.60263C26.421 3.50765 26.313 3.37329 26.2501 3.21667L25.2834 0.7C25.1986 0.494985 25.0555 0.319373 24.8718 0.19494C24.6881 0.0705067 24.4719 0.00272515 24.2501 0C24.03 0.00160829 23.8155 0.0691715 23.6343 0.193958C23.4531 0.318745 23.3134 0.495019 23.2334 0.7L22.2501 3.13333C22.1872 3.28995 22.0791 3.42431 21.9396 3.51929C21.8001 3.61428 21.6355 3.66558 21.4667 3.66667H19.5167C19.2884 3.6628 19.0646 3.73007 18.8762 3.85915C18.6879 3.98823 18.5444 4.17273 18.4656 4.38705C18.3869 4.60137 18.3767 4.83489 18.4367 5.05522C18.4966 5.27555 18.6236 5.47177 18.8001 5.61667L20.5167 7.06667Z" fill="#E5173F"/>
<path d="M16.4834 10.3999H14.5334C14.3661 10.4024 14.2018 10.3545 14.0621 10.2623C13.9224 10.1702 13.8137 10.0381 13.7501 9.88326L12.7834 7.43326C12.6979 7.23007 12.5541 7.05676 12.3702 6.93515C12.1863 6.81355 11.9705 6.7491 11.7501 6.74992C11.5315 6.74793 11.3173 6.81214 11.1359 6.9341C10.9544 7.05606 10.8141 7.23007 10.7334 7.43326L9.75008 9.88326C9.6865 10.0381 9.57777 10.1702 9.43805 10.2623C9.29833 10.3545 9.1341 10.4024 8.96675 10.3999H7.01675C6.77972 10.3917 6.54608 10.458 6.34874 10.5896C6.15141 10.7211 6.00031 10.9113 5.91675 11.1333C5.83644 11.3438 5.82378 11.5741 5.88054 11.7922C5.9373 12.0103 6.06065 12.2052 6.23342 12.3499L7.90008 13.8166C8.02561 13.9144 8.11837 14.0481 8.16601 14.2C8.21365 14.3518 8.21391 14.5146 8.16675 14.6666L7.55008 16.8999C7.48375 17.1241 7.49174 17.3638 7.57285 17.5831C7.65395 17.8023 7.80383 17.9895 8.00008 18.1166C8.19059 18.25 8.41752 18.3215 8.65008 18.3215C8.88264 18.3215 9.10957 18.25 9.30008 18.1166L11.2334 16.6666C11.3817 16.5531 11.5633 16.4915 11.7501 16.4915C11.9369 16.4915 12.1184 16.5531 12.2667 16.6666L14.0834 18.0999C14.267 18.2175 14.4813 18.2779 14.6993 18.2734C14.9172 18.2689 15.1289 18.1998 15.3075 18.0748C15.486 17.9498 15.6235 17.7745 15.7023 17.5713C15.7811 17.368 15.7977 17.146 15.7501 16.9333L15.2167 14.6666C15.1749 14.5117 15.1777 14.3481 15.2249 14.1947C15.2721 14.0414 15.3617 13.9045 15.4834 13.7999L17.1501 12.3499C17.3454 12.2224 17.4936 12.0344 17.5718 11.8146C17.6501 11.5949 17.6542 11.3555 17.5834 11.1333C17.4999 10.9113 17.3488 10.7211 17.1514 10.5896C16.9541 10.458 16.7204 10.3917 16.4834 10.3999Z" fill="#E5173F"/>
<path d="M14.8168 23.6667H12.8668C12.698 23.6656 12.5334 23.6143 12.3939 23.5193C12.2544 23.4243 12.1463 23.29 12.0834 23.1333L11.1168 20.7C11.0319 20.495 10.8888 20.3194 10.7051 20.1949C10.5214 20.0705 10.3053 20.0027 10.0834 20C9.86339 20.0016 9.64889 20.0692 9.46765 20.194C9.28642 20.3187 9.14677 20.495 9.06676 20.7L8.08343 23.1333C8.02055 23.29 7.91248 23.4243 7.77298 23.5193C7.63348 23.6143 7.46886 23.6656 7.30009 23.6667H5.35009C5.12179 23.6628 4.89794 23.7301 4.70959 23.8592C4.52124 23.9882 4.37773 24.1727 4.29897 24.3871C4.2202 24.6014 4.21008 24.8349 4.27001 25.0552C4.32994 25.2756 4.45695 25.4718 4.63343 25.6167L6.30009 27.0667C6.4252 27.1686 6.5173 27.3053 6.56476 27.4596C6.61222 27.6138 6.61292 27.7787 6.56676 27.9333L6.00009 30.1667C5.93271 30.3922 5.93946 30.6334 6.01934 30.8548C6.09922 31.0763 6.24803 31.2662 6.44389 31.3968C6.63975 31.5274 6.87233 31.5917 7.10745 31.5803C7.34256 31.5688 7.56781 31.4823 7.75009 31.3333L9.56676 30C9.71507 29.8865 9.89665 29.8249 10.0834 29.8249C10.2702 29.8249 10.4518 29.8865 10.6001 30L12.4168 31.4333C12.6003 31.5509 12.8147 31.6113 13.0326 31.6068C13.2505 31.6023 13.4622 31.5332 13.6408 31.4082C13.8194 31.2832 13.9568 31.1079 14.0356 30.9047C14.1144 30.7014 14.1311 30.4794 14.0834 30.2667L13.4668 28C13.4241 27.8477 13.4266 27.6863 13.474 27.5354C13.5213 27.3846 13.6115 27.2507 13.7334 27.15L15.4001 25.7C15.5771 25.5547 15.7044 25.3578 15.7642 25.1367C15.8239 24.9156 15.8132 24.6814 15.7334 24.4667C15.6743 24.259 15.5563 24.0728 15.3936 23.9309C15.2309 23.7889 15.0305 23.6971 14.8168 23.6667Z" fill="#E5173F"/>
<path d="M33.2836 14.6666L32.6669 16.9333C32.5995 17.1588 32.6063 17.4 32.6861 17.6214C32.766 17.8429 32.9148 18.0328 33.1107 18.1634C33.3065 18.294 33.5391 18.3583 33.7742 18.3468C34.0094 18.3354 34.2346 18.2489 34.4169 18.0999L36.2336 16.6666C36.3819 16.5531 36.5634 16.4915 36.7502 16.4915C36.937 16.4915 37.1186 16.5531 37.2669 16.6666L39.0836 18.0833C39.2741 18.2166 39.501 18.2882 39.7336 18.2882C39.9661 18.2882 40.193 18.2166 40.3836 18.0833C40.5798 17.9562 40.7297 17.769 40.8108 17.5497C40.8919 17.3304 40.8999 17.0908 40.8336 16.8666L40.2169 14.6666C40.1697 14.5146 40.17 14.3518 40.2176 14.2C40.2653 14.0481 40.358 13.9144 40.4836 13.8166L42.1502 12.3499C42.3435 12.2205 42.49 12.0323 42.568 11.8132C42.6461 11.5941 42.6515 11.3557 42.5836 11.1333C42.5039 10.922 42.3631 10.7393 42.1789 10.6087C41.9948 10.478 41.7759 10.4053 41.5502 10.3999H39.5336C39.3662 10.4024 39.202 10.3545 39.0623 10.2623C38.9225 10.1702 38.8138 10.0381 38.7502 9.88326L37.7669 7.43326C37.6862 7.23007 37.5459 7.05606 37.3644 6.9341C37.183 6.81214 36.9688 6.74793 36.7502 6.74992C36.5298 6.7491 36.314 6.81355 36.1301 6.93515C35.9462 7.05676 35.8024 7.23007 35.7169 7.43326L34.7502 9.88326C34.6866 10.0381 34.5779 10.1702 34.4382 10.2623C34.2985 10.3545 34.1342 10.4024 33.9669 10.3999H32.0169C31.7912 10.4053 31.5723 10.478 31.3882 10.6087C31.2041 10.7393 31.0632 10.922 30.9836 11.1333C30.9025 11.3451 30.8911 11.5774 30.9511 11.7961C31.011 12.0149 31.1392 12.2089 31.3169 12.3499L32.9836 13.7999C33.1112 13.9006 33.2073 14.0357 33.2605 14.1893C33.3136 14.3429 33.3217 14.5086 33.2836 14.6666Z" fill="#E5173F"/>
<path d="M43.8668 25.6167C44.0432 25.4718 44.1703 25.2756 44.2302 25.0552C44.2901 24.8349 44.28 24.6014 44.2012 24.3871C44.1225 24.1727 43.979 23.9882 43.7906 23.8592C43.6023 23.7301 43.3784 23.6628 43.1501 23.6667H41.2001C41.0313 23.6656 40.8667 23.6143 40.7272 23.5193C40.5877 23.4243 40.4796 23.29 40.4168 23.1333L39.4334 20.7C39.3534 20.495 39.2138 20.3187 39.0325 20.194C38.8513 20.0692 38.6368 20.0016 38.4168 20C38.1949 20.0027 37.9788 20.0705 37.7951 20.1949C37.6114 20.3194 37.4683 20.495 37.3834 20.7L36.4168 23.1333C36.3539 23.29 36.2458 23.4243 36.1063 23.5193C35.9668 23.6143 35.8022 23.6656 35.6334 23.6667H33.6834C33.4591 23.6685 33.2406 23.7379 33.0563 23.8657C32.872 23.9935 32.7304 24.1739 32.6501 24.3833C32.5704 24.598 32.5596 24.8323 32.6194 25.0534C32.6791 25.2744 32.8064 25.4714 32.9834 25.6167L34.6501 27.0667C34.7721 27.1673 34.8622 27.3012 34.9095 27.4521C34.9569 27.603 34.9594 27.7644 34.9168 27.9167L34.3001 30.1833C34.2327 30.4089 34.2395 30.6501 34.3194 30.8715C34.3992 31.0929 34.548 31.2829 34.7439 31.4135C34.9398 31.544 35.1723 31.6083 35.4075 31.5969C35.6426 31.5855 35.8678 31.4989 36.0501 31.35L37.9001 30C38.0484 29.8865 38.23 29.825 38.4168 29.825C38.6036 29.825 38.7851 29.8865 38.9334 30L40.7501 31.4167C40.9159 31.6598 41.1714 31.8271 41.4605 31.8818C41.7497 31.9365 42.0487 31.8741 42.2918 31.7083C42.5349 31.5426 42.7022 31.287 42.7569 30.9979C42.8116 30.7088 42.7492 30.4098 42.5834 30.1667L41.9668 27.9333C41.9206 27.7787 41.9213 27.6138 41.9688 27.4596C42.0162 27.3053 42.1083 27.1686 42.2334 27.0667L43.8668 25.6167Z" fill="#E5173F"/>
<path d="M29.1002 15.4834H19.2502C18.8081 15.4834 18.3842 15.659 18.0717 15.9716C17.7591 16.2841 17.5835 16.708 17.5835 17.1501V39.1667C17.5835 39.3877 17.6713 39.5997 17.8276 39.756C17.9839 39.9123 18.1958 40.0001 18.4168 40.0001H20.9168C21.1378 40.0001 21.3498 39.9123 21.5061 39.756C21.6624 39.5997 21.7502 39.3877 21.7502 39.1667V35.8334C21.7502 35.6124 21.838 35.4004 21.9942 35.2441C22.1505 35.0879 22.3625 35.0001 22.5835 35.0001H25.9168C26.1378 35.0001 26.3498 35.0879 26.5061 35.2441C26.6624 35.4004 26.7502 35.6124 26.7502 35.8334V39.1667C26.7502 39.3877 26.838 39.5997 26.9942 39.756C27.1505 39.9123 27.3625 40.0001 27.5835 40.0001H30.0835C30.3045 40.0001 30.5165 39.9123 30.6728 39.756C30.829 39.5997 30.9168 39.3877 30.9168 39.1667V17.1501C30.9168 16.708 30.7412 16.2841 30.4287 15.9716C30.1161 15.659 29.6922 15.4834 29.2502 15.4834M22.5835 30.7501C22.5835 30.9711 22.4957 31.183 22.3394 31.3393C22.1831 31.4956 21.9712 31.5834 21.7502 31.5834H20.9168C20.6958 31.5834 20.4839 31.4956 20.3276 31.3393C20.1713 31.183 20.0835 30.9711 20.0835 30.7501V30.0001C20.0835 29.7791 20.1713 29.5671 20.3276 29.4108C20.4839 29.2545 20.6958 29.1667 20.9168 29.1667H21.7502C21.9712 29.1667 22.1831 29.2545 22.3394 29.4108C22.4957 29.5671 22.5835 29.7791 22.5835 30.0001V30.7501ZM22.5835 25.7501C22.5835 25.9711 22.4957 26.183 22.3394 26.3393C22.1831 26.4956 21.9712 26.5834 21.7502 26.5834H20.9168C20.6958 26.5834 20.4839 26.4956 20.3276 26.3393C20.1713 26.183 20.0835 25.9711 20.0835 25.7501V25.0001C20.0835 24.7791 20.1713 24.5671 20.3276 24.4108C20.4839 24.2545 20.6958 24.1667 20.9168 24.1667H21.7502C21.9712 24.1667 22.1831 24.2545 22.3394 24.4108C22.4957 24.5671 22.5835 24.7791 22.5835 25.0001V25.7501ZM28.4168 30.7501C28.4168 30.9711 28.329 31.183 28.1728 31.3393C28.0165 31.4956 27.8045 31.5834 27.5835 31.5834H26.7502C26.5291 31.5834 26.3172 31.4956 26.1609 31.3393C26.0046 31.183 25.9168 30.9711 25.9168 30.7501V30.0001C25.9168 29.7791 26.0046 29.5671 26.1609 29.4108C26.3172 29.2545 26.5291 29.1667 26.7502 29.1667H27.5835C27.8045 29.1667 28.0165 29.2545 28.1728 29.4108C28.329 29.5671 28.4168 29.7791 28.4168 30.0001V30.7501ZM28.4168 25.7501C28.4168 25.9711 28.329 26.183 28.1728 26.3393C28.0165 26.4956 27.8045 26.5834 27.5835 26.5834H26.7502C26.5291 26.5834 26.3172 26.4956 26.1609 26.3393C26.0046 26.183 25.9168 25.9711 25.9168 25.7501V25.0001C25.9168 24.7791 26.0046 24.5671 26.1609 24.4108C26.3172 24.2545 26.5291 24.1667 26.7502 24.1667H27.5835C27.8045 24.1667 28.0165 24.2545 28.1728 24.4108C28.329 24.5671 28.4168 24.7791 28.4168 25.0001V25.7501ZM22.5835 20.4334C22.5835 20.6544 22.4957 20.8664 22.3394 21.0227C22.1831 21.1789 21.9712 21.2667 21.7502 21.2667H20.9168C20.6958 21.2667 20.4839 21.1789 20.3276 21.0227C20.1713 20.8664 20.0835 20.6544 20.0835 20.4334V19.6001C20.0835 19.3791 20.1713 19.1671 20.3276 19.0108C20.4839 18.8545 20.6958 18.7667 20.9168 18.7667H21.7502C21.9698 18.771 22.1793 18.8602 22.3347 19.0155C22.4901 19.1709 22.5792 19.3804 22.5835 19.6001V20.4334ZM28.4168 20.4334C28.4168 20.6544 28.329 20.8664 28.1728 21.0227C28.0165 21.1789 27.8045 21.2667 27.5835 21.2667H26.7502C26.5291 21.2667 26.3172 21.1789 26.1609 21.0227C26.0046 20.8664 25.9168 20.6544 25.9168 20.4334V19.6001C25.9168 19.3791 26.0046 19.1671 26.1609 19.0108C26.3172 18.8545 26.5291 18.7667 26.7502 18.7667H27.5835C27.8032 18.771 28.0127 18.8602 28.168 19.0155C28.3234 19.1709 28.4126 19.3804 28.4168 19.6001V20.4334Z" fill="#E5173F"/>
</g>
<defs>
<clipPath id="clip0_135_4538">
<rect width="40" height="40" fill="white" transform="translate(4.25)"/>
</clipPath>
</defs>
</svg>
