<svg width="14" height="13" viewBox="0 0 14 13" fill="none" xmlns="http://www.w3.org/2000/svg">
<g clip-path="url(#clip0_133_865)">
<path d="M6.60454 1.1303C6.71385 0.867486 7.08615 0.867485 7.19546 1.1303L8.51776 4.30949C8.56384 4.42028 8.66804 4.49598 8.78765 4.50557L12.2199 4.78073C12.5036 4.80348 12.6186 5.15756 12.4025 5.34273L9.78748 7.58274C9.69635 7.6608 9.65655 7.78329 9.68439 7.90001L10.4833 11.2493C10.5494 11.5261 10.2482 11.745 10.0052 11.5966L7.0668 9.8018C6.9644 9.73926 6.8356 9.73926 6.7332 9.8018L3.79476 11.5966C3.55185 11.745 3.25065 11.5261 3.31669 11.2493L4.11561 7.90001C4.14345 7.78329 4.10365 7.6608 4.01252 7.58274L1.39754 5.34273C1.18137 5.15756 1.29642 4.80348 1.58015 4.78073L5.01235 4.50557C5.13196 4.49598 5.23616 4.42028 5.28224 4.30949L6.60454 1.1303Z" fill="#F2F4F7"/>
<g clip-path="url(#clip1_133_865)">
<path d="M6.60454 1.1303C6.71385 0.867486 7.08615 0.867485 7.19546 1.1303L8.51776 4.30949C8.56384 4.42028 8.66804 4.49598 8.78765 4.50557L12.2199 4.78073C12.5036 4.80348 12.6186 5.15756 12.4025 5.34273L9.78748 7.58274C9.69635 7.6608 9.65655 7.78329 9.68439 7.90001L10.4833 11.2493C10.5494 11.5261 10.2482 11.745 10.0052 11.5966L7.0668 9.8018C6.9644 9.73926 6.8356 9.73926 6.7332 9.8018L3.79476 11.5966C3.55185 11.745 3.25065 11.5261 3.31669 11.2493L4.11561 7.90001C4.14345 7.78329 4.10365 7.6608 4.01252 7.58274L1.39754 5.34273C1.18137 5.15756 1.29642 4.80348 1.58015 4.78073L5.01235 4.50557C5.13196 4.49598 5.23616 4.42028 5.28224 4.30949L6.60454 1.1303Z" fill="#FDB022"/>
</g>
</g>
<defs>
<clipPath id="clip0_133_865">
<rect width="12.8" height="12.8" fill="white" transform="translate(0.5 0.0999756)"/>
</clipPath>
<clipPath id="clip1_133_865">
<rect width="12.8" height="12.8" fill="white" transform="translate(0.5 0.0999756)"/>
</clipPath>
</defs>
</svg>
