<svg width="30" height="65" viewBox="0 0 30 65" fill="none" xmlns="http://www.w3.org/2000/svg">
<path fill-rule="evenodd" clip-rule="evenodd" d="M1.7496 63.4984C11.5925 62.1354 18.7582 54.3916 22.0274 43.8069C23.3704 39.4261 23.5648 34.5674 23.0965 29.4875C22.2306 20.4161 18.069 12.5395 11.9989 6.79583C11.9724 6.76928 11.9636 6.76043 11.9548 6.78698C11.9371 6.81353 11.8841 6.84008 11.8576 6.85778C11.8222 6.87548 11.8134 6.85778 11.8399 6.90203C18.2811 12.805 22.4161 22.195 22.8667 31.6823C23.5648 45.2318 16.9911 57.2325 7.13934 61.3655C5.48707 62.0646 3.75529 62.5957 1.95282 62.87C1.82912 63.0293 1.75844 63.2506 1.7496 63.4984Z" fill="#00092E"/>
<path fill-rule="evenodd" clip-rule="evenodd" d="M26.2861 40.8687C25.4821 41.8245 24.2009 42.7626 22.8226 42.3997C22.7519 42.5059 22.3896 43.037 22.3366 43.1166C22.2748 43.214 22.1599 43.3113 22.0715 43.2317C22.0185 43.1963 21.9743 43.1166 22.0274 42.9927C22.2306 42.7449 22.425 42.4882 22.6547 42.2227C23.0611 40.0722 23.6531 38.6385 24.8901 37.187C26.3215 35.5232 27.7882 34.7798 28.6983 34.4701C28.8308 34.4347 28.9545 34.3993 29.087 34.355C29.1754 35.1869 28.7954 36.3994 28.495 37.0897C27.9119 38.5057 27.2757 39.7447 26.2861 40.8687Z" fill="#00092E"/>
<path fill-rule="evenodd" clip-rule="evenodd" d="M14.4464 10.5748C14.5613 10.6191 15.2328 10.7961 15.3123 10.6633C15.3388 10.6279 15.3035 10.4952 15.2416 10.4863C14.9942 10.4598 14.7203 10.4421 14.4817 10.389C14.0488 9.02606 12.8471 8.4331 11.7427 8.203C10.4174 7.93749 8.95947 8.3446 7.39557 8.56585C7.31605 8.58355 7.22769 8.5924 7.15701 8.5924C7.18351 8.6455 7.21885 8.6809 7.2542 8.734C7.90803 9.62786 8.93297 10.4509 9.93139 10.858C10.6029 11.1412 11.4069 11.3005 12.1933 11.274C13.0239 11.2386 13.7219 11.0527 14.4464 10.5748Z" fill="#00092E"/>
<path fill-rule="evenodd" clip-rule="evenodd" d="M11.8576 6.84893C11.8045 6.86663 11.8045 6.84893 11.7074 6.79583C11.5218 6.61883 11.3628 6.51263 11.1772 6.34448C10.1169 6.35333 9.10968 6.03473 8.15543 5.39752C7.73132 5.11432 7.30721 4.76916 6.95379 4.35321C6.10557 3.44165 5.42522 2.10529 5.11598 0.883973C5.09831 0.813172 5.08947 0.768921 5.08063 0.69812C5.16016 0.73352 5.23084 0.768922 5.31036 0.804322C7.02447 1.49463 8.68557 1.81323 10.0639 3.1496C11.0005 4.04346 11.4865 5.12317 11.2921 6.16748C11.5041 6.33563 11.725 6.49493 11.9282 6.68963C12.0166 6.76928 11.9106 6.84893 11.8576 6.84893Z" fill="#00092E"/>
<path fill-rule="evenodd" clip-rule="evenodd" d="M18.0955 16.2831C18.2104 16.3451 18.8554 16.6814 18.9526 16.5663C18.9967 16.5221 18.9791 16.3805 18.9172 16.3539C18.6787 16.2654 18.3959 16.2035 18.1574 16.0973C18.069 15.1326 17.53 14.2299 16.4609 13.6104C14.8263 12.7431 12.9708 12.8847 11.2214 12.7342C11.133 12.7254 11.0535 12.7254 10.974 12.7165C11.0005 12.7696 11.027 12.8139 11.0447 12.867C11.6278 13.8759 12.5732 14.9645 13.5363 15.584C14.1813 16.0176 14.9765 16.3451 15.7717 16.5044C16.6111 16.6725 17.3268 16.5752 18.0955 16.2831Z" fill="#00092E"/>
<path fill-rule="evenodd" clip-rule="evenodd" d="M26.6572 31.169C26.1271 32.3637 25.1728 33.6736 23.7768 33.7621C23.7326 33.886 23.4764 34.4612 23.4411 34.5497C23.4146 34.6736 23.3262 34.8064 23.2113 34.7533C23.1583 34.7356 23.1053 34.6648 23.1141 34.5409C23.2467 34.2223 23.4146 33.9745 23.5736 33.647C23.4499 31.4522 23.5736 29.8503 24.413 28.0449C25.3672 25.9651 26.6749 24.7704 27.4789 24.1863C27.5761 24.0978 27.691 24.027 27.8059 23.9562C27.9914 24.8058 27.9296 26.1244 27.8147 26.8855C27.6115 28.4255 27.2846 29.7795 26.6572 31.169Z" fill="#00092E"/>
<path fill-rule="evenodd" clip-rule="evenodd" d="M25.0933 22.3543C24.8636 23.6287 24.2893 24.912 23.017 25.4695C22.9993 25.6023 22.8579 26.2218 22.8402 26.3191C22.8402 26.4519 22.7961 26.6023 22.6724 26.5846C22.637 26.5758 22.5487 26.5404 22.5398 26.4076C22.5928 26.0713 22.69 25.6908 22.7519 25.3279C22.3278 23.7792 22.098 22.3631 22.1687 20.8498C22.2836 18.7169 23.0788 16.8672 24.3335 15.3804C24.4307 15.2742 24.5013 15.1592 24.5897 15.0618C24.9431 15.7964 25.1728 17.0531 25.2347 17.8053C25.3672 19.3276 25.3584 20.8586 25.0933 22.3543Z" fill="#00092E"/>
<path fill-rule="evenodd" clip-rule="evenodd" d="M21.886 14.3096C21.9213 15.6194 21.6033 17.0885 20.5076 17.9381C20.5165 18.0708 20.543 18.7081 20.543 18.7966C20.5606 18.9205 20.5518 19.0709 20.4281 19.0975C20.3839 19.0975 20.3044 19.0886 20.2779 18.9647C20.2514 18.6373 20.2426 18.1328 20.2249 17.7699C19.2883 16.1769 18.7847 14.4423 18.767 12.4599C18.7317 10.1677 19.2972 8.70745 19.7478 7.78704C19.8096 7.66314 19.8715 7.53924 19.9333 7.41534C20.4281 8.01715 20.8964 9.16766 21.1085 9.87567C21.5326 11.3094 21.8418 12.805 21.886 14.3096Z" fill="#00092E"/>
<path fill-rule="evenodd" clip-rule="evenodd" d="M17.0264 6.96398C17.3091 8.19415 17.2296 9.99957 16.3107 10.743C16.3461 10.9023 16.4256 11.451 16.4344 11.5749C16.4698 11.7076 16.4963 11.8315 16.3902 11.8846C16.3461 11.9023 16.3107 11.9023 16.2577 11.7873C16.1958 11.4421 16.1782 11.1589 16.1252 10.8049C14.8175 9.40661 14.0753 8.02599 13.66 6.14093C13.2447 4.16736 13.3066 2.60089 13.4833 1.49463C13.501 1.36188 13.5363 1.22913 13.5717 1.08752C14.7203 2.00793 15.5332 3.2204 16.2224 4.60101C16.5935 5.35327 16.885 6.12323 17.0264 6.96398Z" fill="#00092E"/>
<path fill-rule="evenodd" clip-rule="evenodd" d="M21.0289 23.8146C21.135 23.9119 21.7181 24.4695 21.8595 24.3987C21.8948 24.3633 21.9213 24.1774 21.8595 24.142C21.6386 23.965 21.3559 23.8323 21.135 23.6641C21.2056 22.6021 20.9671 21.5224 20.004 20.5135C18.5196 19.0709 16.5493 18.5842 14.7556 17.8407C14.6761 17.8053 14.5966 17.7611 14.4994 17.7257C14.5171 17.7876 14.5259 17.8584 14.5524 17.9204C14.9058 19.1594 15.6127 20.602 16.4698 21.5755C17.0264 22.2304 17.7774 22.8587 18.5638 23.2747C19.3855 23.7172 20.163 23.8588 21.0289 23.8146Z" fill="#00092E"/>
<path fill-rule="evenodd" clip-rule="evenodd" d="M22.2659 32.4611C22.3454 32.6027 22.8137 33.3638 22.9639 33.3284C23.0258 33.3284 23.0876 33.1426 23.0435 33.0718C22.8491 32.8151 22.6017 32.6115 22.4338 32.346C22.7342 31.3725 22.5928 29.9654 21.8683 28.6202C20.7197 26.6554 19.0409 25.6996 17.4152 24.3279C17.3445 24.2571 17.2738 24.1951 17.1943 24.1155C17.1854 24.1774 17.1766 24.2482 17.1854 24.3279C17.2208 25.6731 17.5742 27.3634 18.2015 28.6379C18.608 29.4963 19.2088 30.3548 19.898 31.0716C20.6137 31.7885 21.3735 32.2044 22.2659 32.4611Z" fill="#00092E"/>
<path fill-rule="evenodd" clip-rule="evenodd" d="M21.453 40.9395C21.5149 41.1076 21.833 42.0103 21.992 42.0457C22.045 42.0369 22.1511 41.9041 22.1069 41.8068C21.9743 41.5059 21.8241 41.1607 21.7004 40.851C22.2483 40.3288 22.4338 38.8774 21.992 37.3552C21.2587 35.125 19.6241 33.4523 18.3076 31.6026C18.2457 31.5141 18.1839 31.4256 18.122 31.3371C18.1043 31.3991 18.0955 31.4699 18.0778 31.5407C17.8481 32.8416 17.8658 34.5674 18.2192 35.9746C18.4578 36.9127 18.873 37.9482 19.412 38.8332C19.9687 39.7713 20.6313 40.4173 21.453 40.9395Z" fill="#00092E"/>
<path fill-rule="evenodd" clip-rule="evenodd" d="M23.4234 50.8604C22.425 51.5153 20.6402 52.0109 19.412 51.2056C19.3148 51.2764 18.8024 51.5861 18.7405 51.6392C18.6522 51.7277 18.5285 51.7897 18.4489 51.6658C18.4048 51.6127 18.3783 51.5242 18.4666 51.4268C18.7228 51.2498 19.0056 51.1348 19.2795 50.9578C20.2161 49.0108 21.2233 47.6921 22.7696 46.7186C24.5367 45.5858 26.0122 45.5681 26.9576 45.5681C27.0902 45.5681 27.2227 45.5769 27.3552 45.5769C27.1255 47.4974 24.7487 50.0374 23.4234 50.8604Z" fill="#00092E"/>
<path fill-rule="evenodd" clip-rule="evenodd" d="M18.5196 49.3559C18.5285 49.4798 18.5903 50.0285 18.6787 50.3648C18.7052 50.4622 18.714 50.6038 18.8465 50.5507C18.8996 50.5418 18.9526 50.4268 18.9526 50.3737C18.8907 50.0462 18.8377 49.6745 18.8112 49.3471C19.4209 48.9577 19.898 47.6832 19.9952 46.1168C19.8891 43.7538 18.8289 41.6121 17.9806 39.3819C17.9541 39.2845 17.9188 39.1783 17.8835 39.0721C17.8481 39.1252 17.8304 39.1783 17.7951 39.2314C17.2296 40.3996 16.7967 42.0369 16.7613 43.5149C16.726 44.4795 16.8674 45.6035 17.1501 46.6478C17.4505 47.7186 17.8923 48.5594 18.5196 49.3559Z" fill="#00092E"/>
<path fill-rule="evenodd" clip-rule="evenodd" d="M18.016 58.9406C16.8674 59.1707 15.3123 59.1176 14.3404 57.8786C14.093 57.914 13.6954 57.9759 13.4391 57.9936C13.3684 58.0025 13.3154 57.9494 13.2889 57.8609C13.2713 57.7989 13.2889 57.7193 13.4038 57.6573C13.6954 57.5954 13.9869 57.5953 14.2962 57.5422C15.5862 56.0289 16.8055 55.1793 18.5638 54.8607C20.596 54.489 22.3189 55.0111 23.2378 55.3917C23.3615 55.4359 23.4941 55.489 23.6089 55.551C23.282 56.2855 22.3278 57.0378 21.727 57.4006C20.5783 58.1618 19.4032 58.7105 18.016 58.9406Z" fill="#00092E"/>
<path fill-rule="evenodd" clip-rule="evenodd" d="M13.9074 55.7457C13.8898 55.8784 13.8721 56.4094 13.8721 56.7634C13.8809 56.8608 13.8544 56.9935 13.9869 57.0024C14.0488 57.0024 14.1195 56.9227 14.1195 56.8608C14.146 56.5333 14.1283 56.1793 14.1813 55.843C14.8617 55.6306 15.7629 54.5952 16.1782 53.1703C16.6553 50.887 16.134 48.5329 15.8866 46.1168C15.8689 46.0106 15.8778 45.9044 15.8689 45.7893C15.8248 45.8336 15.7717 45.8778 15.7276 45.9221C14.897 46.8336 14.0665 48.2408 13.6689 49.6214C13.395 50.5241 13.2536 51.6392 13.2536 52.7101C13.2713 53.8341 13.501 54.781 13.9074 55.7457Z" fill="#00092E"/>
<path fill-rule="evenodd" clip-rule="evenodd" d="M7.47509 60.392C7.41324 60.4893 7.33372 60.9318 7.24536 61.2681C7.21886 61.3478 7.16584 61.4717 7.28954 61.5159C7.35139 61.5425 7.43091 61.4894 7.44858 61.4363C7.56345 61.1531 7.56344 60.8522 7.70481 60.569C8.36749 60.7283 9.51612 59.8875 10.2671 58.7901C11.3097 56.8962 11.4246 54.6748 11.8311 52.4181C11.8399 52.3119 11.8752 52.2145 11.8929 52.1083C11.8399 52.1172 11.7869 52.1526 11.7339 52.1703C10.7354 52.6747 9.59564 53.5686 8.86228 54.666C8.35865 55.374 7.89036 56.3563 7.62529 57.3387C7.35139 58.3742 7.34255 59.3565 7.47509 60.392Z" fill="#00092E"/>
<path fill-rule="evenodd" clip-rule="evenodd" d="M11.0889 64.6046C9.91372 64.4453 8.39399 63.9055 7.72249 62.401C7.48393 62.3302 7.06865 62.2859 6.82125 62.2151C6.75057 62.2063 6.71523 62.1266 6.70639 62.0293C6.70639 61.9762 6.74173 61.8965 6.86543 61.8788C7.15701 61.9231 7.44858 62.0115 7.7755 62.0469C9.48078 61.038 10.8591 60.5778 12.6528 60.8345C14.7115 61.1265 16.2135 62.162 17.0176 62.8258C17.1324 62.9231 17.2473 63.0116 17.3533 63.109C16.8585 63.7196 15.7452 64.1267 15.0826 64.3037C13.7837 64.6666 12.5114 64.8082 11.0889 64.6046Z" fill="#00092E"/>
</svg>
