<svg width="30" height="65" viewBox="0 0 30 65" fill="none" xmlns="http://www.w3.org/2000/svg">
<path fill-rule="evenodd" clip-rule="evenodd" d="M28.2504 63.4984C18.4075 62.1354 11.2418 54.3916 7.97266 43.8069C6.62965 39.4261 6.43526 34.5674 6.90355 29.4875C7.76944 20.4161 11.931 12.5395 18.0011 6.79583C18.0276 6.76928 18.0364 6.76043 18.0453 6.78698C18.0629 6.81353 18.116 6.84008 18.1425 6.85778C18.1778 6.87548 18.1866 6.85778 18.1601 6.90203C11.719 12.805 7.5839 22.195 7.13328 31.6823C6.43526 45.2318 13.009 57.2325 22.8607 61.3655C24.513 62.0647 26.2447 62.5957 28.0472 62.87C28.1709 63.0293 28.2416 63.2506 28.2504 63.4984Z" fill="#00092E"/>
<path fill-rule="evenodd" clip-rule="evenodd" d="M3.71389 40.8687C4.51793 41.8245 5.7991 42.7626 7.17746 42.3997C7.24814 42.5059 7.6104 43.037 7.66342 43.1166C7.72527 43.214 7.84013 43.3113 7.92849 43.2317C7.9815 43.1963 8.02568 43.1166 7.97266 42.9927C7.76944 42.7449 7.57506 42.4882 7.34533 42.2227C6.93889 40.0722 6.34691 38.6385 5.10992 37.187C3.67855 35.5232 2.21184 34.7798 1.30177 34.4701C1.16923 34.4347 1.04553 34.3993 0.913 34.355C0.824644 35.1869 1.20458 36.3994 1.50499 37.0897C2.08814 38.5057 2.7243 39.7447 3.71389 40.8687Z" fill="#00092E"/>
<path fill-rule="evenodd" clip-rule="evenodd" d="M15.5536 10.5748C15.4388 10.6191 14.7673 10.7961 14.6877 10.6633C14.6612 10.6279 14.6966 10.4952 14.7584 10.4863C15.0058 10.4598 15.2797 10.4421 15.5183 10.389C15.9512 9.02606 17.1529 8.4331 18.2573 8.203C19.5827 7.9375 21.0406 8.3446 22.6045 8.56585C22.684 8.58355 22.7723 8.5924 22.843 8.5924C22.8165 8.6455 22.7812 8.6809 22.7458 8.734C22.092 9.62786 21.0671 10.4509 20.0686 10.858C19.3971 11.1412 18.5931 11.3005 17.8067 11.274C16.9762 11.2386 16.2782 11.0527 15.5536 10.5748Z" fill="#00092E"/>
<path fill-rule="evenodd" clip-rule="evenodd" d="M18.1425 6.84893C18.1955 6.86663 18.1955 6.84893 18.2927 6.79583C18.4782 6.61883 18.6373 6.51263 18.8228 6.34448C19.8831 6.35333 20.8903 6.03473 21.8446 5.39752C22.2687 5.11432 22.6928 4.76916 23.0462 4.35321C23.8945 3.44165 24.5748 2.10529 24.884 0.883973C24.9017 0.813172 24.9106 0.768921 24.9194 0.69812C24.8399 0.73352 24.7692 0.768922 24.6897 0.804322C22.9756 1.49463 21.3145 1.81323 19.9361 3.1496C18.9995 4.04346 18.5136 5.12317 18.7079 6.16748C18.4959 6.33563 18.275 6.49493 18.0718 6.68963C17.9834 6.76928 18.0895 6.84893 18.1425 6.84893Z" fill="#00092E"/>
<path fill-rule="evenodd" clip-rule="evenodd" d="M11.9045 16.2831C11.7897 16.3451 11.1447 16.6814 11.0475 16.5663C11.0033 16.5221 11.021 16.3805 11.0828 16.3539C11.3214 16.2654 11.6041 16.2035 11.8427 16.0973C11.931 15.1326 12.47 14.2299 13.5391 13.6104C15.1737 12.7431 17.0292 12.8847 18.7786 12.7342C18.867 12.7254 18.9465 12.7254 19.026 12.7165C18.9995 12.7696 18.973 12.8139 18.9553 12.867C18.3722 13.8759 17.4268 14.9645 16.4637 15.584C15.8187 16.0176 15.0235 16.3451 14.2283 16.5044C13.3889 16.6725 12.6732 16.5752 11.9045 16.2831Z" fill="#00092E"/>
<path fill-rule="evenodd" clip-rule="evenodd" d="M3.3428 31.169C3.87293 32.3637 4.82718 33.6736 6.22321 33.7621C6.26739 33.886 6.52362 34.4612 6.55896 34.5497C6.58547 34.6736 6.67383 34.8064 6.78869 34.7533C6.8417 34.7356 6.89472 34.6648 6.88588 34.5409C6.75335 34.2223 6.58547 33.9745 6.42643 33.647C6.55013 31.4522 6.42643 29.8503 5.58704 28.0449C4.6328 25.9651 3.32513 24.7704 2.52108 24.1863C2.42389 24.0978 2.30903 24.027 2.19417 23.9562C2.00862 24.8058 2.07047 26.1244 2.18533 26.8855C2.38855 28.4255 2.71547 29.7795 3.3428 31.169Z" fill="#00092E"/>
<path fill-rule="evenodd" clip-rule="evenodd" d="M4.9067 22.3543C5.13643 23.6287 5.71074 24.912 6.98307 25.4695C7.00074 25.6023 7.14211 26.2218 7.15979 26.3191C7.15979 26.4519 7.20396 26.6023 7.32766 26.5846C7.363 26.5758 7.45136 26.5404 7.4602 26.4076C7.40718 26.0713 7.30999 25.6908 7.24814 25.3279C7.67225 23.7792 7.90198 22.3631 7.83129 20.8498C7.71643 18.7169 6.92122 16.8672 5.66656 15.3804C5.56937 15.2742 5.49869 15.1592 5.41033 15.0618C5.05691 15.7964 4.82718 17.0531 4.76533 17.8053C4.6328 19.3276 4.64163 20.8586 4.9067 22.3543Z" fill="#00092E"/>
<path fill-rule="evenodd" clip-rule="evenodd" d="M8.11403 14.3096C8.07869 15.6194 8.39677 17.0885 9.49239 17.9381C9.48356 18.0709 9.45705 18.7081 9.45705 18.7966C9.43938 18.9205 9.44821 19.0709 9.57191 19.0975C9.61609 19.0975 9.69561 19.0886 9.72212 18.9647C9.74862 18.6373 9.75746 18.1328 9.77513 17.7699C10.7117 16.1769 11.2153 14.4423 11.233 12.4599C11.2684 10.1677 10.7029 8.70745 10.2523 7.78704C10.1904 7.66314 10.1286 7.53924 10.0667 7.41534C9.57191 8.01715 9.10362 9.16766 8.89157 9.87567C8.46746 11.3094 8.15821 12.805 8.11403 14.3096Z" fill="#00092E"/>
<path fill-rule="evenodd" clip-rule="evenodd" d="M12.9736 6.96398C12.6909 8.19415 12.7704 9.99957 13.6893 10.743C13.654 10.9023 13.5744 11.451 13.5656 11.5749C13.5303 11.7076 13.5038 11.8315 13.6098 11.8846C13.654 11.9023 13.6893 11.9023 13.7423 11.7873C13.8042 11.4421 13.8218 11.1589 13.8749 10.8049C15.1825 9.40661 15.9247 8.026 16.34 6.14093C16.7553 4.16736 16.6934 2.60089 16.5167 1.49463C16.499 1.36188 16.4637 1.22913 16.4284 1.08752C15.2797 2.00793 14.4668 3.2204 13.7777 4.60101C13.4066 5.35327 13.115 6.12323 12.9736 6.96398Z" fill="#00092E"/>
<path fill-rule="evenodd" clip-rule="evenodd" d="M8.97109 23.8146C8.86506 23.9119 8.28191 24.4695 8.14054 24.3987C8.1052 24.3633 8.07869 24.1774 8.14054 24.142C8.36143 23.965 8.64417 23.8323 8.86506 23.6641C8.79438 22.6021 9.03294 21.5224 9.99602 20.5135C11.4804 19.0709 13.4507 18.5842 15.2444 17.8407C15.3239 17.8053 15.4034 17.7611 15.5006 17.7257C15.4829 17.7876 15.4741 17.8584 15.4476 17.9204C15.0942 19.1594 14.3873 20.602 13.5303 21.5755C12.9736 22.2304 12.2226 22.8587 11.4362 23.2747C10.6145 23.7172 9.83698 23.8588 8.97109 23.8146Z" fill="#00092E"/>
<path fill-rule="evenodd" clip-rule="evenodd" d="M7.7341 32.4611C7.65458 32.6027 7.18629 33.3638 7.03609 33.3284C6.97424 33.3284 6.91239 33.1426 6.95657 33.0718C7.15095 32.8151 7.39835 32.6115 7.56622 32.346C7.26581 31.3725 7.40718 29.9654 8.1317 28.6202C9.28034 26.6554 10.9591 25.6996 12.5849 24.3279C12.6555 24.2571 12.7262 24.1951 12.8058 24.1155C12.8146 24.1774 12.8234 24.2482 12.8146 24.3279C12.7792 25.6731 12.4258 27.3634 11.7985 28.6379C11.392 29.4963 10.7912 30.3548 10.102 31.0716C9.38636 31.7885 8.6265 32.2044 7.7341 32.4611Z" fill="#00092E"/>
<path fill-rule="evenodd" clip-rule="evenodd" d="M8.54698 40.9395C8.48513 41.1076 8.16705 42.0103 8.00801 42.0457C7.95499 42.0369 7.84897 41.9041 7.89314 41.8068C8.02568 41.5059 8.17588 41.1607 8.29958 40.851C7.75177 40.3288 7.56622 38.8774 8.00801 37.3552C8.74136 35.125 10.376 33.4523 11.6925 31.6026C11.7543 31.5141 11.8162 31.4256 11.878 31.3371C11.8957 31.3991 11.9045 31.4699 11.9222 31.5407C12.1519 32.8417 12.1342 34.5674 11.7808 35.9746C11.5423 36.9127 11.127 37.9482 10.588 38.8332C10.0314 39.7713 9.36869 40.4173 8.54698 40.9395Z" fill="#00092E"/>
<path fill-rule="evenodd" clip-rule="evenodd" d="M6.57663 50.8604C7.57506 51.5153 9.35986 52.0109 10.588 51.2056C10.6852 51.2764 11.1977 51.5861 11.2595 51.6392C11.3479 51.7277 11.4716 51.7897 11.5511 51.6658C11.5953 51.6127 11.6218 51.5242 11.5334 51.4268C11.2772 51.2498 10.9944 51.1348 10.7205 50.9578C9.78397 49.0108 8.77671 47.6921 7.23047 46.7186C5.46335 45.5858 3.9878 45.5681 3.04238 45.5681C2.90985 45.5681 2.77732 45.5769 2.64478 45.5769C2.87451 47.4974 5.25129 50.0374 6.57663 50.8604Z" fill="#00092E"/>
<path fill-rule="evenodd" clip-rule="evenodd" d="M11.4804 49.3559C11.4716 49.4798 11.4097 50.0285 11.3214 50.3648C11.2949 50.4622 11.286 50.6038 11.1535 50.5507C11.1005 50.5418 11.0475 50.4268 11.0475 50.3737C11.1093 50.0462 11.1623 49.6745 11.1888 49.3471C10.5792 48.9577 10.102 47.6832 10.0049 46.1168C10.1109 43.7538 11.1712 41.6121 12.0194 39.3819C12.0459 39.2845 12.0812 39.1783 12.1166 39.0721C12.1519 39.1252 12.1696 39.1783 12.2049 39.2314C12.7704 40.3996 13.2034 42.0369 13.2387 43.5149C13.274 44.4795 13.1327 45.6035 12.8499 46.6478C12.5495 47.7186 12.1077 48.5594 11.4804 49.3559Z" fill="#00092E"/>
<path fill-rule="evenodd" clip-rule="evenodd" d="M11.984 58.9406C13.1327 59.1707 14.6877 59.1176 15.6597 57.8786C15.9071 57.914 16.3047 57.9759 16.5609 57.9936C16.6316 58.0025 16.6846 57.9494 16.7111 57.8609C16.7288 57.7989 16.7111 57.7193 16.5962 57.6573C16.3047 57.5954 16.0131 57.5954 15.7038 57.5423C14.4138 56.0289 13.1945 55.1793 11.4362 54.8607C9.40404 54.489 7.68109 55.0111 6.76218 55.3917C6.63848 55.4359 6.50595 55.489 6.39109 55.551C6.71801 56.2855 7.67225 57.0378 8.27307 57.4006C9.42171 58.1618 10.5968 58.7105 11.984 58.9406Z" fill="#00092E"/>
<path fill-rule="evenodd" clip-rule="evenodd" d="M16.0926 55.7457C16.1103 55.8784 16.1279 56.4094 16.1279 56.7634C16.1191 56.8608 16.1456 56.9935 16.0131 57.0024C15.9512 57.0024 15.8805 56.9227 15.8805 56.8608C15.854 56.5333 15.8717 56.1793 15.8187 55.843C15.1384 55.6306 14.2371 54.5952 13.8218 53.1703C13.3447 50.887 13.866 48.5329 14.1134 46.1168C14.1311 46.0106 14.1223 45.9044 14.1311 45.7893C14.1753 45.8336 14.2283 45.8778 14.2725 45.9221C15.103 46.8336 15.9336 48.2408 16.3312 49.6214C16.6051 50.5241 16.7464 51.6392 16.7464 52.7101C16.7288 53.8341 16.499 54.781 16.0926 55.7457Z" fill="#00092E"/>
<path fill-rule="evenodd" clip-rule="evenodd" d="M22.5249 60.392C22.5868 60.4893 22.6663 60.9318 22.7547 61.2681C22.7812 61.3478 22.8342 61.4717 22.7105 61.5159C22.6486 61.5425 22.5691 61.4894 22.5514 61.4363C22.4366 61.1531 22.4366 60.8522 22.2952 60.569C21.6325 60.7283 20.4839 59.8875 19.7329 58.7901C18.6903 56.8962 18.5754 54.6748 18.169 52.4181C18.1601 52.3119 18.1248 52.2145 18.1071 52.1083C18.1601 52.1172 18.2132 52.1526 18.2662 52.1703C19.2646 52.6747 20.4044 53.5686 21.1377 54.666C21.6414 55.374 22.1097 56.3563 22.3747 57.3387C22.6486 58.3742 22.6575 59.3565 22.5249 60.392Z" fill="#00092E"/>
<path fill-rule="evenodd" clip-rule="evenodd" d="M18.9112 64.6046C20.0863 64.4453 21.606 63.9055 22.2775 62.401C22.5161 62.3302 22.9314 62.2859 23.1788 62.2151C23.2495 62.2063 23.2848 62.1266 23.2936 62.0293C23.2936 61.9762 23.2583 61.8965 23.1346 61.8788C22.843 61.9231 22.5514 62.0116 22.2245 62.047C20.5192 61.038 19.1409 60.5778 17.3473 60.8345C15.2886 61.1265 13.7865 62.162 12.9825 62.8258C12.8676 62.9231 12.7527 63.0116 12.6467 63.109C13.1415 63.7196 14.2548 64.1267 14.9175 64.3037C16.2163 64.6666 17.4886 64.8082 18.9112 64.6046Z" fill="#00092E"/>
</svg>
