<svg width="106" height="24" viewBox="0 0 106 24" fill="none" xmlns="http://www.w3.org/2000/svg">
<g clip-path="url(#clip0_148_4666)">
<path d="M0.847656 11.9984C0.847656 16.8119 3.83162 20.9154 8.03214 22.5269V1.47155C3.83085 3.08302 0.847656 7.18578 0.847656 11.9984ZM11.9727 0.75C11.6647 0.75 11.3598 0.760862 11.058 0.783362V1.57474H11.1146C15.3547 1.60578 18.7685 4.87526 18.7383 8.87793C18.7103 12.862 15.2748 16.0702 11.0596 16.0663V23.2143C11.3598 23.2399 11.6655 23.25 11.9735 23.25C18.1152 23.25 23.0994 18.2123 23.0994 11.9984C23.0994 5.78534 18.1152 0.75 11.9735 0.75H11.9727ZM33.3315 14.624H29.747L29.1185 16.4992H27.5389L30.6097 7.49922H32.5028L35.5489 16.4992H33.9568L33.3315 14.624ZM32.8791 13.267L31.5377 9.27517L30.1954 13.267H32.8791ZM40.2615 9.93388H41.7915V16.5H40.2622V15.7397H40.2118C39.7983 16.3099 39.2342 16.6653 38.3691 16.6653C37.0533 16.6653 36.2006 15.7024 36.2006 14.2322V9.93466H37.7306V14.0669C37.7306 14.8024 38.0813 15.3347 38.9215 15.3347C39.7983 15.3347 40.263 14.714 40.263 13.9653V9.93466H40.2615V9.93388ZM44.3627 14.5984C44.4635 15.1803 44.8515 15.5364 45.6661 15.5364C46.4187 15.5364 46.8454 15.2183 46.8454 14.6752C46.8454 14.2314 46.6825 13.9645 45.9803 13.876L44.8142 13.7364C43.4859 13.5843 42.9343 12.9497 42.9343 11.924C42.9343 10.6694 43.9871 9.77017 45.6165 9.77017C47.321 9.77017 48.1489 10.771 48.2249 11.7595H46.7197C46.6445 11.228 46.269 10.8983 45.5924 10.8983C44.8902 10.8983 44.4387 11.228 44.4387 11.7354C44.4387 12.1536 44.6637 12.3949 45.4163 12.4834L46.57 12.623C47.8486 12.7743 48.3506 13.3709 48.3506 14.461C48.3506 15.8172 47.1845 16.6653 45.6552 16.6653C43.8878 16.6653 42.9475 15.7916 42.8233 14.5991L44.3627 14.5984ZM50.0156 11.0744H48.775V9.93388H50.0296V7.5H51.5456V9.9331H53.0376V11.0736H51.5456V14.4447C51.5456 15.0414 51.8458 15.2827 52.4239 15.2827H53.05V16.4992H52.1601C50.7177 16.4992 50.0156 15.8397 50.0156 14.5472V11.0744ZM55.8695 16.4992H54.3395V9.93388H55.8695V10.9231H55.9199C56.2333 10.2008 56.7594 9.93388 57.311 9.93388H58.0512V11.3033H57.3746C56.359 11.3033 55.8702 11.7967 55.8702 13.0024L55.8695 16.4992ZM60.5068 16.6645C59.2662 16.6645 58.4267 15.929 58.4267 14.7C58.4267 13.4082 59.4043 12.9132 60.4703 12.7735L61.849 12.5951C62.3751 12.5454 62.5008 12.3041 62.5008 11.924C62.5008 11.3653 62.1369 10.9355 61.3727 10.9355C60.5952 10.9355 60.1825 11.3661 60.1189 11.9752H58.5648C58.6021 10.8587 59.53 9.77017 61.3346 9.77017C63.0392 9.77017 64.0424 10.7834 64.0424 12.2793V15.3719C64.0424 15.7784 64.1052 16.1834 64.1805 16.5H62.6008C62.559 16.219 62.5383 15.9353 62.5388 15.6512H62.5008C62.1625 16.2199 61.4471 16.6645 60.5068 16.6645ZM61.6861 13.4834L61.0088 13.6347C60.3695 13.7744 59.9691 14.0413 59.9691 14.6356C59.9691 15.233 60.319 15.5356 60.9964 15.5356C61.787 15.5356 62.5132 15.0166 62.5132 14.1546V13.1273C62.3254 13.3182 62.0252 13.4066 61.6861 13.4834ZM65.3839 14.7248V7.04379H66.9131V14.624C66.9131 15.0297 67.0892 15.2834 67.54 15.2834H68.042V16.4992H67.2397C66.048 16.4992 65.3839 15.8157 65.3839 14.7248ZM70.7738 7.88017C70.7738 8.41164 70.3595 8.81819 69.8334 8.81819C69.7096 8.82007 69.5866 8.79708 69.4717 8.75059C69.3569 8.70409 69.2526 8.63504 69.1649 8.54751C69.0772 8.45998 69.008 8.35575 68.9613 8.24099C68.9146 8.12623 68.8914 8.00328 68.8931 7.8794C68.8931 7.34793 69.3074 6.94138 69.8334 6.94138C70.3595 6.94138 70.7738 7.34793 70.7738 7.88017ZM70.5977 9.93388V16.5H69.0677V9.93466H70.5977V9.93388ZM73.7453 16.6645C72.5047 16.6645 71.6645 15.929 71.6645 14.7C71.6645 13.4082 72.6421 12.9132 73.7089 12.7735L75.0868 12.5951C75.6136 12.5454 75.7385 12.3041 75.7385 11.924C75.7385 11.3653 75.3754 10.9355 74.6112 10.9355C73.833 10.9355 73.4202 11.3661 73.3574 11.9752H71.8026C71.8406 10.8587 72.7685 9.77017 74.5724 9.77017C76.2777 9.77017 77.2809 10.7834 77.2809 12.2793V15.3719C77.2809 15.7784 77.343 16.1834 77.419 16.5H75.8394C75.7976 16.219 75.7768 15.9353 75.7773 15.6512H75.7385C75.3995 16.2199 74.6857 16.6645 73.7453 16.6645ZM74.9239 13.4834L74.2473 13.6347C73.6072 13.7744 73.2069 14.0413 73.2069 14.6356C73.2069 15.233 73.5583 15.5356 74.2349 15.5356C75.0247 15.5356 75.7517 15.0166 75.7517 14.1546V13.1273C75.5632 13.3182 75.2614 13.4066 74.9239 13.4834ZM84.9511 7.5C86.869 7.5 88.0848 8.60172 88.0848 10.4141C88.0848 12.2653 86.8566 13.3547 84.9511 13.3547H82.7065V16.5H81.0904V7.5H84.9511ZM86.4431 10.4157C86.4431 9.3 85.7665 8.83138 84.6508 8.83138H82.7081V12.0256H84.6508C85.7665 12.0256 86.4431 11.581 86.4431 10.4157ZM91.5327 9.78104C93.4134 9.78104 94.6672 11.138 94.6672 13.229C94.6672 15.3199 93.4134 16.6637 91.5327 16.6637C89.6528 16.6637 88.399 15.3199 88.399 13.229C88.399 11.138 89.6528 9.78104 91.5327 9.78104ZM93.1116 12.9636C93.1116 11.7339 92.5096 11.0116 91.532 11.0116C90.5536 11.0116 89.9523 11.7339 89.9523 12.9636V13.4959C89.9523 14.7248 90.5536 15.4355 91.532 15.4355C92.5096 15.4355 93.1116 14.7248 93.1116 13.4959V12.9636ZM96.8854 14.5984C96.9855 15.1803 97.3734 15.5364 98.1889 15.5364C98.9415 15.5364 99.3674 15.2183 99.3674 14.6752C99.3674 14.2314 99.2045 13.9645 98.5031 13.876L97.337 13.7364C96.0087 13.5843 95.4563 12.9497 95.4563 11.924C95.4563 10.6694 96.5091 9.77017 98.1392 9.77017C99.8438 9.77017 100.671 10.771 100.747 11.7595H99.2425C99.1672 11.228 98.7909 10.8983 98.1144 10.8983C97.4122 10.8983 96.9607 11.228 96.9607 11.7354C96.9607 12.1536 97.1865 12.3949 97.939 12.4834L99.0927 12.623C100.371 12.7743 100.873 13.3709 100.873 14.461C100.873 15.8172 99.7065 16.6653 98.178 16.6653C96.4098 16.6653 95.4695 15.7916 95.3453 14.5991L96.8854 14.5984ZM102.538 11.0744H101.298V9.93388H102.552V7.5H104.068V9.9331H105.56V11.0736H104.068V14.4447C104.068 15.0414 104.369 15.2827 104.946 15.2827H105.572V16.4992H104.682C103.24 16.4992 102.538 15.8397 102.538 14.5472V11.0744Z" fill="#707070"/>
</g>
<defs>
<clipPath id="clip0_148_4666">
<rect width="104.741" height="22.5" fill="white" transform="translate(0.847656 0.75)"/>
</clipPath>
</defs>
</svg>
