<svg width="146" height="24" viewBox="0 0 146 24" fill="none" xmlns="http://www.w3.org/2000/svg">
<g clip-path="url(#clip0_148_4722)">
<path d="M18.0089 6.70466H18.8125L21.1027 4.41448L21.2152 3.44216C19.9032 2.28417 18.3177 1.47976 16.6084 1.10491C14.8991 0.730064 13.1225 0.797149 11.4464 1.29983C9.77022 1.80252 8.24989 2.7242 7.02899 3.97783C5.80809 5.23145 4.92693 6.77562 4.46875 8.46448C4.72389 8.3599 5.00651 8.34294 5.27232 8.41626L9.85268 7.66091C9.85268 7.66091 10.0857 7.27519 10.2063 7.2993C11.1877 6.22144 12.544 5.55948 13.9975 5.44894C15.451 5.33839 16.8919 5.78762 18.025 6.70466H18.0089Z" fill="#666666"/>
<path d="M24.3625 8.46448C23.8361 6.52597 22.7553 4.78327 21.2527 3.4502L18.0384 6.66448C18.7083 7.21184 19.2451 7.90418 19.6084 8.68927C19.9718 9.47436 20.152 10.3317 20.1357 11.1966V11.7672C20.5114 11.7672 20.8834 11.8412 21.2305 11.9849C21.5775 12.1287 21.8929 12.3394 22.1585 12.605C22.4242 12.8707 22.6349 13.186 22.7787 13.5331C22.9224 13.8802 22.9964 14.2522 22.9964 14.6279C22.9964 15.0035 22.9224 15.3755 22.7787 15.7226C22.6349 16.0697 22.4242 16.3851 22.1585 16.6507C21.8929 16.9163 21.5775 17.1271 21.2305 17.2708C20.8834 17.4146 20.5114 17.4886 20.1357 17.4886H14.4143L13.8438 18.0672V21.4984L14.4143 22.0689H20.1357C21.7334 22.0814 23.2927 21.5792 24.5828 20.6368C25.873 19.6944 26.8256 18.3617 27.2996 16.8359C27.7737 15.3101 27.7441 13.6722 27.2151 12.1646C26.6861 10.657 25.6859 9.35961 24.3625 8.46448Z" fill="#808080"/>
<path d="M8.68728 22.037H14.4087V17.4566H8.68728C8.27965 17.4565 7.87681 17.3688 7.50603 17.1995L6.70246 17.4486L4.39621 19.7387L4.19531 20.5423C5.48861 21.5189 7.0667 22.044 8.68728 22.037Z" fill="#999999"/>
<path d="M8.68569 7.17876C7.13545 7.18802 5.62682 7.68123 4.3705 8.58951C3.11418 9.49779 2.17292 10.7758 1.67817 12.245C1.18342 13.7142 1.1599 15.3012 1.61089 16.7844C2.06189 18.2676 2.96487 19.5729 4.19372 20.518L7.51247 17.1993C7.09073 17.0088 6.72151 16.7187 6.43649 16.3541C6.15147 15.9895 5.95917 15.5612 5.87608 15.1059C5.79298 14.6507 5.82158 14.182 5.95942 13.7402C6.09726 13.2985 6.34023 12.8967 6.66747 12.5695C6.99471 12.2422 7.39646 11.9993 7.83825 11.8614C8.28003 11.7236 8.74866 11.695 9.20393 11.7781C9.6592 11.8612 10.0875 12.0535 10.4521 12.3385C10.8167 12.6235 11.1068 12.9927 11.2973 13.4145L14.616 10.0957C13.9195 9.18508 13.0217 8.44792 11.9929 7.94189C10.9641 7.43586 9.83219 7.17467 8.68569 7.17876Z" fill="#CCCCCC"/>
<path d="M42.8699 18.8384C41.8848 18.8509 40.9073 18.6645 39.996 18.2903C39.0847 17.9161 38.2583 17.3618 37.5663 16.6607C36.8525 15.9893 36.286 15.1768 35.9029 14.2749C35.5197 13.373 35.3281 12.4013 35.3404 11.4214C35.3286 10.4416 35.5204 9.47003 35.9035 8.56817C36.2867 7.66632 36.8529 6.85382 37.5663 6.18211C38.2549 5.47368 39.0798 4.91197 39.9913 4.53081C40.9027 4.14965 41.8819 3.95693 42.8699 3.96425C43.8112 3.95171 44.7456 4.1264 45.6189 4.47817C46.4921 4.82995 47.2867 5.35179 47.9565 6.01336L46.5261 7.46783C45.5466 6.52118 44.2319 6.0011 42.8699 6.0214C42.1633 6.01272 41.4627 6.15112 40.8125 6.4278C40.1623 6.70448 39.5767 7.11339 39.0931 7.62854C38.5904 8.12722 38.1939 8.72247 37.9273 9.37844C37.6608 10.0344 37.5298 10.7376 37.5422 11.4455C37.5363 12.1454 37.6705 12.8394 37.9368 13.4866C38.2032 14.1338 38.5963 14.7212 39.0931 15.2143C40.0882 16.2059 41.4311 16.7701 42.8358 16.7866C44.2406 16.8031 45.5964 16.2707 46.6145 15.3026C47.2448 14.6124 47.6315 13.7345 47.7154 12.8035H42.894V10.7464H49.7163C49.7833 11.1607 49.8102 11.5805 49.7966 12C49.8391 12.8682 49.705 13.7359 49.4025 14.5508C49.1 15.3657 48.6354 16.1108 48.0368 16.741C47.3713 17.434 46.5671 17.9789 45.6768 18.3403C44.7866 18.7017 43.8301 18.8714 42.8699 18.8384ZM58.7324 17.4723C57.8168 18.3499 56.5975 18.8399 55.3292 18.8399C54.0609 18.8399 52.8417 18.3499 51.9261 17.4723C51.4704 17.0304 51.1115 16.4987 50.8722 15.9108C50.6329 15.3229 50.5184 14.6916 50.5359 14.0571C50.5189 13.4227 50.6336 12.7916 50.8729 12.2037C51.1122 11.6159 51.4708 11.0841 51.9261 10.6419C52.8426 9.76612 54.0615 9.27738 55.3292 9.27738C56.5969 9.27738 57.8158 9.76612 58.7324 10.6419C59.1877 11.0841 59.5463 11.6159 59.7856 12.2037C60.0249 12.7916 60.1396 13.4227 60.1225 14.0571C60.1391 14.6922 60.0233 15.3238 59.7826 15.9117C59.5419 16.4997 59.1815 17.0311 58.7243 17.4723H58.7324ZM53.4288 16.1303C53.6723 16.3904 53.9666 16.5977 54.2935 16.7395C54.6204 16.8812 54.9729 16.9543 55.3292 16.9543C55.6855 16.9543 56.038 16.8812 56.3649 16.7395C56.6918 16.5977 56.9862 16.3904 57.2297 16.1303C57.4952 15.8559 57.7031 15.5311 57.8411 15.175C57.9791 14.8189 58.0445 14.4388 58.0333 14.0571C58.0451 13.6741 57.9801 13.2926 57.8421 12.9352C57.7041 12.5777 57.4958 12.2515 57.2297 11.9759C56.9829 11.7185 56.6866 11.5136 56.3587 11.3737C56.0307 11.2338 55.6778 11.1616 55.3212 11.1616C54.9646 11.1616 54.6117 11.2338 54.2837 11.3737C53.9558 11.5136 53.6595 11.7185 53.4127 11.9759C53.1466 12.2515 52.9383 12.5777 52.8003 12.9352C52.6623 13.2926 52.5973 13.6741 52.6092 14.0571C52.599 14.4394 52.6656 14.8198 52.805 15.1759C52.9444 15.532 53.1538 15.8565 53.4208 16.1303H53.4288ZM69.1949 17.4723C68.2793 18.3499 67.06 18.8399 65.7917 18.8399C64.5234 18.8399 63.3042 18.3499 62.3886 17.4723C61.9329 17.0304 61.574 16.4987 61.3347 15.9108C61.0954 15.3229 60.9809 14.6916 60.9984 14.0571C60.9814 13.4227 61.0961 12.7916 61.3354 12.2037C61.5747 11.6159 61.9333 11.0841 62.3886 10.6419C63.3042 9.76428 64.5234 9.2743 65.7917 9.2743C67.06 9.2743 68.2793 9.76428 69.1949 10.6419C69.6502 11.0841 70.0088 11.6159 70.2481 12.2037C70.4874 12.7916 70.6021 13.4227 70.585 14.0571C70.6026 14.6916 70.4881 15.3229 70.2488 15.9108C70.0095 16.4987 69.6506 17.0304 69.1949 17.4723ZM63.8913 16.1303C64.1348 16.3904 64.4291 16.5977 64.756 16.7395C65.0829 16.8812 65.4354 16.9543 65.7917 16.9543C66.148 16.9543 66.5005 16.8812 66.8274 16.7395C67.1543 16.5977 67.4486 16.3904 67.6922 16.1303C67.9577 15.8559 68.1656 15.5311 68.3036 15.175C68.4416 14.8189 68.507 14.4388 68.4958 14.0571C68.5076 13.6741 68.4426 13.2926 68.3046 12.9352C68.1666 12.5777 67.9583 12.2515 67.6922 11.9759C67.4454 11.7185 67.1491 11.5136 66.8212 11.3737C66.4932 11.2338 66.1403 11.1616 65.7837 11.1616C65.4271 11.1616 65.0742 11.2338 64.7462 11.3737C64.4183 11.5136 64.122 11.7185 63.8752 11.9759C63.6091 12.2515 63.4008 12.5777 63.2628 12.9352C63.1248 13.2926 63.0598 13.6741 63.0716 14.0571C63.0615 14.4394 63.1281 14.8198 63.2675 15.1759C63.4069 15.532 63.6163 15.8565 63.8833 16.1303H63.8913ZM76.0734 23.1294C75.1103 23.1601 74.1658 22.8594 73.3975 22.2776C72.7154 21.7649 72.1783 21.0837 71.8386 20.3009L73.6708 19.5375C73.8701 20.0053 74.1821 20.4166 74.5788 20.7348C75.0034 21.0771 75.5363 21.2566 76.0815 21.241C76.4272 21.2621 76.7734 21.2084 77.0965 21.0836C77.4196 20.9588 77.712 20.7658 77.9538 20.5178C78.4379 19.9338 78.677 19.185 78.6208 18.4285V17.7375H78.5484C78.2422 18.1012 77.8555 18.3886 77.4189 18.5769C76.9824 18.7651 76.5079 18.8492 76.0333 18.8223C75.4299 18.8241 74.8328 18.7008 74.2795 18.4601C73.7263 18.2195 73.229 17.8667 72.819 17.4241C72.3741 16.985 72.0229 16.4602 71.7867 15.8815C71.5506 15.3027 71.4342 14.6821 71.4449 14.0571C71.4338 13.4285 71.5498 12.8041 71.7859 12.2214C72.022 11.6386 72.3734 11.1096 72.819 10.666C73.2279 10.2216 73.7249 9.86704 74.2782 9.62494C74.8316 9.38285 75.4293 9.2585 76.0333 9.25979C76.5444 9.25889 77.0494 9.37142 77.5118 9.58925C77.9119 9.76395 78.2685 10.0246 78.5565 10.3526H78.6288V9.58925H80.6216V18.1473C80.6741 18.8243 80.5878 19.5049 80.3682 20.1474C80.1485 20.7899 79.8 21.3808 79.344 21.8839C78.9096 22.2994 78.3965 22.6237 77.8347 22.8376C77.273 23.0516 76.6741 23.1508 76.0734 23.1294ZM76.2181 16.958C76.5612 16.9655 76.9018 16.8975 77.2157 16.7586C77.5295 16.6197 77.809 16.4134 78.0341 16.1544C78.5299 15.5863 78.7913 14.8509 78.7654 14.0973C78.7952 13.3309 78.5339 12.5817 78.0341 12C77.8093 11.7405 77.5299 11.534 77.216 11.395C76.902 11.2561 76.5613 11.1883 76.2181 11.1964C75.8656 11.1892 75.5156 11.2571 75.1913 11.3956C74.8671 11.5342 74.5761 11.7402 74.3377 12C73.8062 12.5608 73.5174 13.3087 73.5341 14.0812C73.526 14.4601 73.5928 14.8369 73.7307 15.19C73.8686 15.543 74.0749 15.8653 74.3377 16.1384C74.575 16.4006 74.8654 16.6094 75.1896 16.7507C75.5138 16.892 75.8644 16.9627 76.2181 16.958ZM84.1654 4.50265V18.5491H82.0681V4.50265H84.1654ZM89.919 18.8384C89.2909 18.8545 88.6662 18.7408 88.0841 18.5044C87.5019 18.2679 86.9749 17.9138 86.5359 17.4643C86.0905 17.018 85.7405 16.4859 85.507 15.9002C85.2736 15.3145 85.1616 14.6874 85.1779 14.0571C85.1541 13.4253 85.2579 12.7951 85.4829 12.2042C85.7079 11.6133 86.0497 11.0738 86.4877 10.6178C86.9005 10.1827 87.3996 9.83852 87.9532 9.60743C88.5067 9.37634 89.1023 9.26341 89.702 9.27586C90.2534 9.27004 90.8003 9.37667 91.3091 9.58925C91.7675 9.77426 92.1852 10.0473 92.5386 10.3928C92.8421 10.6858 93.1116 11.0119 93.3422 11.3651C93.5287 11.6634 93.6874 11.9781 93.8163 12.3053L94.0333 12.8518L87.6047 15.4955C87.7991 15.9422 88.1243 16.3195 88.5374 16.5777C88.9506 16.8359 89.4322 16.9629 89.919 16.9419C90.3925 16.9432 90.8584 16.8218 91.271 16.5894C91.6836 16.357 92.029 16.0217 92.2734 15.616L93.8806 16.7009C93.4704 17.2876 92.9456 17.7852 92.3377 18.1634C91.6148 18.6201 90.7739 18.8548 89.919 18.8384ZM87.235 13.9125L91.51 12.1366C91.3783 11.8234 91.1428 11.5652 90.8431 11.4053C90.5075 11.2158 90.1276 11.1188 89.7422 11.1241C89.0882 11.141 88.4673 11.4153 88.0145 11.8875C87.7435 12.1468 87.5331 12.4628 87.3984 12.8128C87.2636 13.1629 87.2079 13.5384 87.235 13.9125Z" fill="#5F6368"/>
<path d="M105.017 18.8387C104.125 18.8541 103.239 18.6891 102.413 18.3536C101.586 18.0182 100.836 17.5191 100.207 16.8864C99.5778 16.2537 99.0832 15.5005 98.7526 14.6719C98.4221 13.8433 98.2623 12.9565 98.283 12.0646C98.2623 11.1728 98.4221 10.2859 98.7526 9.45736C99.0832 8.62878 99.5778 7.87554 100.207 7.24286C100.836 6.61018 101.586 6.11111 102.413 5.77562C103.239 5.44013 104.125 5.27513 105.017 5.29053C105.92 5.2623 106.817 5.43844 107.642 5.80579C108.468 6.17314 109.199 6.7222 109.782 7.41195L108.625 8.53695C108.197 7.99848 107.648 7.56864 107.022 7.28239C106.397 6.99615 105.712 6.86158 105.025 6.88963C104.363 6.87473 103.705 6.99375 103.091 7.23955C102.476 7.48536 101.918 7.85287 101.449 8.31999C100.962 8.81018 100.581 9.39588 100.33 10.0403C100.08 10.6847 99.9658 11.3739 99.9946 12.0646C99.9658 12.7554 100.08 13.4446 100.33 14.089C100.581 14.7334 100.962 15.3191 101.449 15.8093C101.918 16.2764 102.476 16.6439 103.091 16.8897C103.705 17.1355 104.363 17.2545 105.025 17.2396C105.793 17.2482 106.553 17.0837 107.249 16.7581C107.944 16.4326 108.557 15.9544 109.043 15.3593L110.2 16.5164C109.594 17.2409 108.834 17.8203 107.974 18.212C107.048 18.6396 106.037 18.8538 105.017 18.8387Z" fill="#5F6368"/>
<path d="M113.312 18.5492H111.648V5.57153H113.312V18.5492Z" fill="#5F6368"/>
<path d="M116.026 10.7384C116.898 9.87276 118.076 9.38696 119.305 9.38696C120.533 9.38696 121.712 9.87276 122.583 10.7384C123.01 11.1884 123.343 11.7183 123.563 12.2975C123.784 12.8767 123.888 13.4938 123.869 14.1134C123.888 14.7329 123.784 15.3501 123.563 15.9293C123.343 16.5085 123.01 17.0384 122.583 17.4884C121.712 18.354 120.533 18.8398 119.305 18.8398C118.076 18.8398 116.898 18.354 116.026 17.4884C115.6 17.0384 115.267 16.5085 115.046 15.9293C114.826 15.3501 114.722 14.7329 114.74 14.1134C114.722 13.4938 114.826 12.8767 115.046 12.2975C115.267 11.7183 115.6 11.1884 116.026 10.7384ZM117.264 16.4437C117.526 16.7207 117.842 16.9413 118.192 17.0921C118.542 17.2429 118.919 17.3206 119.301 17.3206C119.682 17.3206 120.059 17.2429 120.41 17.0921C120.76 16.9413 121.076 16.7207 121.338 16.4437C121.629 16.1318 121.854 15.765 122.002 15.365C122.149 14.9649 122.216 14.5394 122.198 14.1134C122.216 13.6873 122.149 13.2619 122.002 12.8618C121.854 12.4617 121.629 12.095 121.338 11.783C121.076 11.506 120.76 11.2854 120.41 11.1346C120.059 10.9839 119.682 10.9061 119.301 10.9061C118.919 10.9061 118.542 10.9839 118.192 11.1346C117.842 11.2854 117.526 11.506 117.264 11.783C116.973 12.095 116.747 12.4617 116.6 12.8618C116.452 13.2619 116.385 13.6873 116.404 14.1134C116.388 14.5386 116.456 14.9629 116.605 15.3616C116.754 15.7602 116.98 16.1253 117.272 16.4357L117.264 16.4437Z" fill="#5F6368"/>
<path d="M133.088 18.5492H131.481V17.3197H131.432C131.146 17.7867 130.742 18.1693 130.259 18.4286C129.759 18.7187 129.19 18.8712 128.612 18.8706C128.142 18.9027 127.671 18.8284 127.235 18.653C126.798 18.4777 126.406 18.206 126.089 17.8581C125.48 17.0881 125.174 16.122 125.229 15.142V9.67773H126.892V14.8367C126.892 16.492 127.624 17.3197 129.086 17.3197C129.411 17.3298 129.734 17.2622 130.027 17.1224C130.321 16.9826 130.577 16.7748 130.774 16.5161C131.205 15.9697 131.435 15.2915 131.424 14.5956V9.67773H133.088V18.5492Z" fill="#5F6368"/>
<path d="M138.736 18.8385C138.172 18.8404 137.614 18.7199 137.101 18.4855C136.587 18.2511 136.131 17.9082 135.763 17.4805C134.93 16.5603 134.484 15.3543 134.517 14.1135C134.484 12.8727 134.93 11.6667 135.763 10.7465C136.131 10.3188 136.587 9.97593 137.101 9.74149C137.614 9.50705 138.172 9.38662 138.736 9.3885C139.368 9.37852 139.993 9.52774 140.552 9.82243C141.044 10.0698 141.46 10.4444 141.758 10.9072H141.83L141.758 9.67778V5.57153H143.421V18.5492H141.814V17.3197H141.742C141.444 17.7826 141.028 18.1572 140.536 18.4046C139.982 18.6966 139.363 18.8458 138.736 18.8385ZM139.009 17.3197C139.385 17.3252 139.758 17.2507 140.103 17.101C140.448 16.9514 140.757 16.7301 141.01 16.4519C141.575 15.8085 141.864 14.9683 141.814 14.1135C141.864 13.2587 141.575 12.4185 141.01 11.7751C140.756 11.4953 140.446 11.2718 140.1 11.1189C139.754 10.9659 139.38 10.8869 139.001 10.8869C138.623 10.8869 138.249 10.9659 137.903 11.1189C137.557 11.2718 137.247 11.4953 136.992 11.7751C136.712 12.0916 136.496 12.4603 136.358 12.8602C136.22 13.2601 136.163 13.6833 136.189 14.1055C136.163 14.5277 136.22 14.9508 136.358 15.3507C136.496 15.7506 136.712 16.1194 136.992 16.4358C137.246 16.719 137.557 16.9445 137.905 17.0971C138.253 17.2496 138.629 17.3255 139.009 17.3197Z" fill="#5F6368"/>
</g>
<defs>
<clipPath id="clip0_148_4722">
<rect width="145.446" height="22.5" fill="white" transform="translate(0.449219 0.75)"/>
</clipPath>
</defs>
</svg>
