<svg width="49" height="30" viewBox="0 0 49 30" fill="none" xmlns="http://www.w3.org/2000/svg">
<path d="M30.9414 3.20703H17.8164V26.793H30.9414V3.20703Z" fill="#818181"/>
<path d="M18.6498 15C18.6478 12.7285 19.1625 10.4863 20.1551 8.44313C21.1477 6.39998 22.5921 4.60942 24.3789 3.20701C22.1661 1.46769 19.5086 0.386033 16.7101 0.0856692C13.9116 -0.214695 11.0851 0.278343 8.5536 1.50845C6.02208 2.73856 3.88772 4.6561 2.39448 7.04188C0.90124 9.42767 0.109375 12.1854 0.109375 15C0.109375 17.8146 0.90124 20.5723 2.39448 22.9581C3.88772 25.3439 6.02208 27.2614 8.5536 28.4916C11.0851 29.7217 13.9116 30.2147 16.7101 29.9143C19.5086 29.614 22.1661 28.5323 24.3789 26.793C22.5921 25.3906 21.1477 23.6 20.1551 21.5569C19.1625 19.5137 18.6478 17.2715 18.6498 15Z" fill="#5B5B5B"/>
<path d="M48.6477 15C48.6478 17.8145 47.8561 20.5723 46.3629 22.9581C44.8697 25.3439 42.7354 27.2614 40.204 28.4915C37.6725 29.7216 34.846 30.2147 32.0476 29.9143C29.2491 29.614 26.5917 28.5323 24.3789 26.793C26.1642 25.3892 27.6075 23.5983 28.5999 21.5555C29.5923 19.5126 30.108 17.2711 30.108 15C30.108 12.7289 29.5923 10.4874 28.5999 8.44452C27.6075 6.40168 26.1642 4.61083 24.3789 3.207C26.5917 1.46768 29.2491 0.386025 32.0476 0.0856652C34.846 -0.214695 37.6725 0.278364 40.204 1.50848C42.7354 2.7386 44.8697 4.65614 46.3629 7.04193C47.8561 9.42772 48.6478 12.1855 48.6477 15Z" fill="#C6C6C6"/>
<path d="M47.2152 24.2949V23.812H47.4099V23.7136H46.9141V23.812H47.1089V24.2949H47.2152ZM48.1779 24.2949V23.7126H48.0259L47.8511 24.1131L47.6762 23.7126H47.5241V24.2949H47.6315V23.8557L47.7954 24.2343H47.9067L48.0707 23.8547V24.2949H48.1779Z" fill="#C6C6C6"/>
</svg>
