<svg width="108" height="18" viewBox="0 0 108 18" fill="none" xmlns="http://www.w3.org/2000/svg">
<path d="M91.2711 12.2907C90.9515 12.4506 85.7834 12.8057 86.334 8.40143C86.8135 3.99711 94.6809 0.906987 96.1195 1.45753C94.1482 2.45205 90.099 3.26898 88.625 7.70882C87.1332 12.1309 91.2356 12.2019 91.2711 12.2907Z" fill="#808080"/>
<path d="M91.2711 12.2907C90.9515 12.4506 85.7834 12.8057 86.334 8.40143C86.8135 3.99711 94.6809 0.906987 96.1195 1.45753C94.1482 2.45205 90.099 3.26898 88.625 7.70882C87.1332 12.1309 91.2356 12.2019 91.2711 12.2907Z" fill="#808080"/>
<path d="M99.2634 14.5814C99.1746 14.9366 96.1377 19.1101 93.0831 15.8601C90.0817 12.6102 92.7279 4.63621 94.0776 3.87256C93.5981 6.00368 91.5913 9.60883 94.0421 13.658C96.4929 17.6716 99.1746 14.5814 99.2634 14.5814Z" fill="#808080"/>
<path d="M99.2634 14.5814C99.1746 14.9366 96.1377 19.1101 93.0831 15.8601C90.0817 12.6102 92.7279 4.63621 94.0776 3.87256C93.5981 6.00368 91.5913 9.60883 94.0421 13.658C96.4929 17.6716 99.1746 14.5814 99.2634 14.5814Z" fill="#808080"/>
<path d="M105.797 7.92188C106.117 8.11723 109.367 12.1308 105.442 14.2264C101.552 16.3043 94.4841 11.6513 94.1289 10.1418C96.0469 11.1896 99.0305 14.0311 103.595 12.7169C108.07 11.4027 105.797 7.99291 105.797 7.92188Z" fill="#808080"/>
<path d="M105.797 7.92188C106.117 8.11723 109.367 12.1308 105.442 14.2264C101.552 16.3043 94.4841 11.6513 94.1289 10.1418C96.0469 11.1896 99.0305 14.0311 103.595 12.7169C108.07 11.4027 105.797 7.99291 105.797 7.92188Z" fill="#808080"/>
<path d="M3.98173 7.51369C3.37791 8.15302 2.86289 8.79236 3.02272 9.71584C3.30687 11.2431 5.7044 13.8893 6.43254 13.8005C7.07188 13.765 7.87106 12.9125 8.19073 12.5573C9.55821 11.2254 10.6415 9.39618 10.7659 7.38937C10.8546 5.79103 9.93116 4.33476 8.15521 3.34024C6.46806 2.41676 4.26588 1.93726 1.77956 1.97278C1.53093 1.97278 1.26453 1.97277 1.0159 2.00829C1.05142 1.84846 1.30005 1.56431 1.61972 1.40447C3.11152 0.836175 5.11834 1.04929 6.68117 1.28016C6.84101 1.31568 7.12516 1.40448 7.28499 1.43999C7.60467 1.08481 8.11969 0.765137 8.77679 0.765137C9.50493 0.765137 10.3041 1.04929 10.535 1.40447C10.4995 1.59983 10.535 2.07933 10.7836 2.399C11.0322 2.68315 11.1388 2.80746 11.5117 3.03834C12.2754 3.60663 12.8792 4.28149 13.2344 4.88531C14.4065 6.89211 13.3943 9.2541 12.6306 10.6571C11.9025 11.989 10.7836 13.5874 9.66476 14.5819C8.70575 15.4699 7.21396 16.6597 5.84648 16.269C5.17162 16.0737 4.51452 15.6652 3.99949 15.1857C2.18803 13.7472 -0.0851851 10.4973 1.1935 8.04647C2.31234 5.91535 5.40249 4.12166 6.92981 3.74871C7.0186 3.99734 7.05412 4.58339 6.4503 5.11617C5.7044 5.82655 4.65659 6.78555 3.98173 7.51369Z" fill="#808080"/>
<path d="M18.7929 5.59552C17.2656 3.87286 14.9035 2.1502 13.465 1.54639C13.3407 1.86605 13.1809 2.5054 14.1399 3.30457C17.3899 5.98623 19.8762 9.80448 17.9937 13.0544C17.7983 13.4096 17.7451 13.3386 17.1057 13.0544C14.9391 12.1665 13.2874 12.5749 12.8079 12.7703C12.3284 12.9301 12.1686 13.09 11.8489 13.4984C11.5292 13.9069 11.2806 14.1733 10.9254 14.6173C10.8366 14.7061 10.8899 14.7416 10.9609 14.7061C13.4828 14.0667 15.4896 14.3864 17.1412 15.3809C17.5497 15.6295 17.6563 15.7361 17.6563 15.7361C17.6563 15.7361 17.6207 15.8249 17.5319 15.7716C15.9691 15.0435 15.1167 15.0968 15.1167 15.2033C16.2 15.967 16.9992 17.0503 17.2833 17.441C17.3721 17.5298 17.4431 17.6896 17.5675 17.7251C18.2423 17.9738 19.45 16.2866 19.8584 15.7183C22.3625 12.0066 21.2792 8.40149 18.7929 5.59552Z" fill="#808080"/>
<path d="M29.6985 3.05597C29.6985 4.29913 28.7395 5.18709 27.3365 5.18709H25.969V7.47805C25.969 7.60237 25.8802 7.63789 25.8092 7.63789H24.7614C24.6371 7.63789 24.6016 7.54909 24.6016 7.47805V1.17349C24.6016 1.04917 24.6904 1.01365 24.7614 1.01365H27.3365C28.7395 1.01365 29.6985 1.81282 29.6985 3.05597ZM28.3666 3.10925C28.3666 2.62975 28.0114 2.18577 27.3188 2.18577H25.9513V4.03274H27.3188C28.0114 4.03274 28.3666 3.58876 28.3666 3.10925ZM35.4348 2.86063V7.47805C35.4348 7.60237 35.346 7.63789 35.275 7.63789H34.3515C34.2272 7.63789 34.1917 7.54909 34.1917 7.47805L34.1029 6.87423C33.6944 7.38925 33.1794 7.7622 32.4157 7.7622C31.2081 7.7622 30.0892 6.80319 30.0892 5.18709C30.0892 3.53548 31.2081 2.57647 32.3802 2.57647C33.1083 2.57647 33.7122 2.93166 34.1029 3.41116L34.1917 2.89614C34.1917 2.77183 34.2805 2.73631 34.3515 2.73631H35.275C35.346 2.70079 35.4348 2.78959 35.4348 2.86063ZM34.0674 5.18709C34.0674 4.22809 33.428 3.69531 32.6999 3.69531C31.9717 3.69531 31.3679 4.21033 31.3679 5.18709C31.3679 6.16386 31.9717 6.67888 32.7354 6.67888C33.428 6.62561 34.0674 6.19938 34.0674 5.18709ZM40.2832 2.89614L39.6438 3.94394C39.6083 3.97946 39.555 4.03274 39.484 4.03274C39.413 4.03274 39.3597 3.99722 39.1643 3.99722C38.4895 3.99722 38.1698 4.40569 38.081 5.24038V7.47805C38.081 7.60237 37.9922 7.63789 37.9212 7.63789H36.9266C36.8023 7.63789 36.7668 7.54909 36.7668 7.47805V2.9139C36.7668 2.78959 36.8556 2.75407 36.9266 2.75407H37.8856C38.01 2.75407 38.0455 2.84286 38.0455 2.9139L38.1343 3.42892C38.4539 2.94942 38.8979 2.62975 39.5728 2.59423C39.7326 2.59423 40.0168 2.59423 40.2121 2.62975C40.3187 2.70079 40.372 2.78958 40.2832 2.89614ZM45.8241 2.86063V7.47805C45.8241 7.60237 45.7353 7.63789 45.6643 7.63789H44.7408C44.6165 7.63789 44.581 7.54909 44.581 7.47805L44.4922 6.87423C44.0837 7.38925 43.5687 7.7622 42.805 7.7622C41.5974 7.7622 40.4785 6.80319 40.4785 5.18709C40.4785 3.53548 41.5974 2.57647 42.7695 2.57647C43.4976 2.57647 44.1015 2.93166 44.4922 3.41116L44.581 2.89614C44.581 2.77183 44.6698 2.73631 44.7408 2.73631H45.6643C45.7353 2.70079 45.8241 2.78959 45.8241 2.86063ZM44.4922 5.18709C44.4922 4.22809 43.8528 3.69531 43.1247 3.69531C42.3966 3.69531 41.7927 4.21033 41.7927 5.18709C41.7927 6.16386 42.3965 6.67888 43.1602 6.67888C43.8173 6.62561 44.4922 6.19938 44.4922 5.18709ZM47.1383 7.47805V0.942613C47.1383 0.818298 47.2271 0.78278 47.2982 0.78278H48.346C48.4703 0.78278 48.5058 0.871576 48.5058 0.942613V7.47805C48.5058 7.60237 48.417 7.63789 48.346 7.63789H47.3514C47.2271 7.63789 47.1383 7.60237 47.1383 7.47805ZM54.4908 2.89614L52.4484 8.15291C52.0932 9.07639 51.4894 9.59141 50.6902 9.59141C50.335 9.59141 49.9621 9.4671 49.6957 9.30726C49.6069 9.27174 49.5714 9.14743 49.6069 9.05863L49.8911 8.4193C49.9798 8.29498 50.0509 8.29498 50.1397 8.3305C50.264 8.36602 50.4238 8.4193 50.5481 8.4193C50.8678 8.4193 51.1165 8.22394 51.3118 7.62013L49.305 2.93166C49.2695 2.84286 49.305 2.73631 49.4648 2.73631H50.5481C50.6725 2.73631 50.708 2.77183 50.7435 2.89614L51.9511 5.95075L53.0345 2.89614C53.07 2.80734 53.1588 2.73631 53.2298 2.73631H54.3132C54.4908 2.70079 54.5263 2.8251 54.4908 2.89614ZM63.7612 4.95622V7.47805C63.7612 7.60237 63.6724 7.63789 63.6014 7.63789H62.5536C62.4292 7.63789 62.3937 7.54909 62.3937 7.47805V4.95622C62.3937 4.28137 62.0385 3.83739 61.3992 3.83739C60.7598 3.83739 60.2803 4.24585 60.2271 5.24038V7.47805C60.2271 7.60237 60.1383 7.63789 60.0672 7.63789H59.0727C58.9484 7.63789 58.9129 7.54909 58.9129 7.47805V4.95622C58.9129 4.28137 58.5577 3.83739 57.9183 3.83739C57.279 3.83739 56.7995 4.24585 56.7462 5.24038V7.47805C56.7462 7.60237 56.6574 7.63789 56.5864 7.63789H55.5386C55.4142 7.63789 55.3787 7.54909 55.3787 7.47805V2.86063C55.3787 2.73631 55.4675 2.70079 55.5386 2.70079H56.4976C56.6219 2.70079 56.6574 2.78959 56.6574 2.86063L56.6929 3.34012C57.1014 2.89614 57.6164 2.57647 58.2913 2.57647C59.0549 2.57647 59.6232 2.93166 59.9429 3.62427C60.3514 3.02046 60.9907 2.57647 61.8254 2.57647C62.9975 2.57647 63.7612 3.46444 63.7612 4.95622ZM70.3322 5.15158C70.3322 6.8032 69.2489 7.72668 68.0057 7.72668C67.2776 7.72668 66.727 7.3715 66.3186 6.83872V9.07639C66.3186 9.20071 66.2298 9.23623 66.1587 9.23623H65.1109C64.9866 9.23623 64.9511 9.14743 64.9511 9.07639V2.86063C64.9511 2.73631 65.0399 2.70079 65.1109 2.70079H66.0699C66.1942 2.70079 66.2298 2.78959 66.2298 2.86063L66.3186 3.37564C66.7625 2.89614 67.3664 2.54095 68.0412 2.54095C69.2134 2.57647 70.3322 3.49996 70.3322 5.15158ZM69.0002 5.15158C69.0002 4.19257 68.3964 3.6598 67.6683 3.6598C66.9401 3.6598 66.3008 4.17482 66.3008 5.15158C66.3008 6.1461 66.9401 6.59009 67.6683 6.59009C68.4142 6.62561 69.0002 6.11058 69.0002 5.15158ZM71.2557 1.04917C71.2557 0.605187 71.6109 0.25 72.0549 0.25C72.4989 0.25 72.854 0.605187 72.854 1.04917C72.854 1.49315 72.4989 1.84834 72.0549 1.84834C71.6109 1.84834 71.2557 1.49315 71.2557 1.04917ZM71.38 7.47805V2.86063C71.38 2.73631 71.4688 2.70079 71.5398 2.70079H72.5877C72.712 2.70079 72.7475 2.78959 72.7475 2.86063V7.47805C72.7475 7.60237 72.6587 7.63789 72.5877 7.63789H71.5398C71.4155 7.63789 71.38 7.60237 71.38 7.47805ZM73.742 5.15158C73.742 3.74859 74.7898 2.57647 76.3171 2.57647C77.1518 2.57647 77.8445 2.93166 78.2352 3.41116C78.2707 3.49996 78.324 3.571 78.1996 3.6598L77.5958 4.13929C77.507 4.22809 77.436 4.17482 77.3472 4.10378C77.0986 3.85515 76.8322 3.6598 76.3882 3.6598C75.589 3.6598 75.0562 4.29913 75.0562 5.15158C75.0562 5.98627 75.5712 6.59009 76.3882 6.59009C76.9565 6.59009 77.2229 6.27042 77.3827 6.18162C77.4715 6.09282 77.5425 6.09282 77.6313 6.18162L78.2352 6.6256C78.324 6.7144 78.3595 6.78543 78.2707 6.87423C77.9155 7.35373 77.1518 7.7622 76.2994 7.7622C74.7898 7.7622 73.742 6.59009 73.742 5.15158ZM78.8745 7.03407C78.7857 6.94527 78.7857 6.87423 78.8745 6.78543L79.2297 6.21714C79.3185 6.09282 79.3895 6.12834 79.5138 6.18162C79.8335 6.46577 80.4018 6.66112 80.9168 6.66112C81.4319 6.66112 81.716 6.46577 81.716 6.1461C81.716 5.79092 81.3608 5.70212 80.7925 5.63108C79.7092 5.43572 78.91 5.11606 78.91 4.13929C78.91 3.18029 79.6737 2.61199 80.9168 2.61199C81.645 2.61199 82.2488 2.80735 82.675 3.12702C82.7638 3.16253 82.7993 3.28685 82.7106 3.37564L82.3554 3.89066C82.2666 4.01498 82.1955 4.01498 82.1067 3.92619C81.7515 3.67755 81.3431 3.571 80.9879 3.571C80.4729 3.571 80.1887 3.73083 80.1887 4.01498C80.1887 4.37017 80.6682 4.42345 81.1832 4.53C82.231 4.77863 82.9947 5.0983 82.9947 6.05731C82.9947 6.98079 82.2666 7.70892 80.9524 7.70892C79.9578 7.70892 79.2297 7.38926 78.8745 7.03407ZM30.9062 17.0148H29.7873C29.6985 17.0148 29.6275 16.9793 29.592 16.8905L29.148 15.8072H26.5729L26.0934 16.8905C26.0578 16.9793 25.969 17.0148 25.898 17.0148H24.7792C24.6548 17.0148 24.5838 16.926 24.6548 16.8195L27.4253 10.5149C27.4608 10.4261 27.5496 10.3906 27.6207 10.3906H28.26C28.3488 10.3906 28.4198 10.4261 28.4554 10.5149L31.066 16.8195C31.1015 16.9438 31.0127 17.0148 30.9062 17.0148ZM26.9636 14.7771H28.6862L27.8515 12.4151L26.9636 14.7771ZM36.5537 12.2908V16.855C36.5537 16.9793 36.4649 17.0148 36.3938 17.0148H35.4348C35.3105 17.0148 35.275 16.926 35.275 16.855L35.1862 16.3755C34.7422 16.855 34.1384 17.1391 33.4635 17.1391C32.2559 17.1391 31.6166 16.3044 31.6166 14.7771V12.2908C31.6166 12.1665 31.7053 12.131 31.7764 12.131H32.8242C32.9485 12.131 32.984 12.2198 32.984 12.2908V14.8127C32.984 15.5408 33.3392 15.9315 33.9786 15.9315C34.6179 15.9315 35.0974 15.523 35.1507 14.5285V12.2908C35.1507 12.1665 35.2395 12.131 35.3105 12.131H36.3583C36.5182 12.0955 36.5537 12.1665 36.5537 12.2908ZM37.6015 16.411C37.5127 16.3222 37.5127 16.2512 37.6015 16.1624L37.9567 15.5941C38.0455 15.4698 38.1165 15.5053 38.2408 15.5586C38.5605 15.8427 39.1288 16.0381 39.6438 16.0381C40.1589 16.0381 40.443 15.8427 40.443 15.523C40.443 15.1678 40.0878 15.079 39.5195 15.008C38.4362 14.8127 37.637 14.493 37.637 13.5162C37.637 12.5395 38.4007 11.9889 39.6438 11.9889C40.372 11.9889 40.9758 12.1843 41.402 12.5039C41.4908 12.5395 41.5263 12.6638 41.4375 12.7526L41.0824 13.2676C40.9936 13.3919 40.9225 13.3919 40.8337 13.3031C40.4785 13.0545 40.0701 12.9479 39.7149 12.9479C39.1998 12.9479 38.9157 13.1078 38.9157 13.3919C38.9157 13.7471 39.3952 13.8004 39.9102 13.9069C40.958 14.1556 41.7217 14.4752 41.7217 15.4342C41.7217 16.3577 40.9936 17.0859 39.6794 17.0859C38.6848 17.1391 37.9922 16.8195 37.6015 16.411ZM45.8241 16.9083C45.4689 17.0681 45.0605 17.1569 44.6165 17.1569C43.3733 17.1569 42.8938 16.4288 42.8938 15.1501V13.2321H42.29C42.1657 13.2321 42.1302 13.1433 42.1302 13.0722V12.3086C42.1302 12.1843 42.219 12.1488 42.29 12.1488H42.8938V11.0654C42.8938 10.9411 42.9826 10.9056 43.0537 10.9056H44.1015C44.2258 10.9056 44.2613 10.9944 44.2613 11.0654V12.1488H45.54C45.6643 12.1488 45.6998 12.2376 45.6998 12.3086V13.0722C45.6998 13.1966 45.611 13.2321 45.54 13.2321H44.2613V15.2566C44.2613 15.8605 44.5454 16.0203 44.9362 16.0203C45.1848 16.0203 45.2558 15.9848 45.3801 15.9315C45.5045 15.896 45.5755 15.9315 45.6288 16.0558L45.8774 16.6596C45.9484 16.7484 45.8952 16.8195 45.8241 16.9083ZM50.3883 12.2908L49.749 13.3386C49.7135 13.3742 49.6602 13.4274 49.5891 13.4274C49.5181 13.4274 49.4648 13.3919 49.2695 13.3919C48.5946 13.3919 48.2749 13.8004 48.1861 14.6351V16.855C48.1861 16.9793 48.0973 17.0148 48.0263 17.0148H47.0318C46.9075 17.0148 46.8719 16.926 46.8719 16.855V12.2908C46.8719 12.1665 46.9607 12.131 47.0318 12.131H47.9908C48.1151 12.131 48.1506 12.2198 48.1506 12.2908L48.2394 12.8591C48.5591 12.3796 49.0031 12.06 49.6779 12.0244C49.8378 12.0244 50.1219 12.0244 50.3173 12.06C50.3883 12.0955 50.4771 12.1665 50.3883 12.2908ZM55.8937 12.2908V16.855C55.8937 16.9793 55.805 17.0148 55.7339 17.0148H54.8104C54.6861 17.0148 54.6506 16.926 54.6506 16.855L54.5618 16.2512C54.1533 16.7662 53.6383 17.1391 52.8746 17.1391C51.667 17.1391 50.5481 16.1801 50.5481 14.564C50.5481 12.9124 51.667 11.9534 52.8391 11.9534C53.5673 11.9534 54.1711 12.3086 54.5618 12.7881L54.6506 12.2731C54.6506 12.1488 54.7394 12.1132 54.8104 12.1132H55.7339C55.8582 12.0955 55.8937 12.1665 55.8937 12.2908ZM54.5618 14.6173C54.5618 13.6583 53.9224 13.1255 53.1943 13.1255C52.4662 13.1255 51.8623 13.6405 51.8623 14.6173C51.8623 15.5941 52.4662 16.1091 53.2298 16.1091C53.9224 16.0203 54.5618 15.5763 54.5618 14.6173ZM57.2612 16.855V10.4439C57.2612 10.3195 57.35 10.284 57.4211 10.284H58.4689C58.5932 10.284 58.6287 10.3728 58.6287 10.4439V16.855C58.6287 16.9793 58.5399 17.0148 58.4689 17.0148H57.4211C57.2967 17.0148 57.2612 16.9793 57.2612 16.855ZM59.8541 10.4794C59.8541 10.0354 60.2093 9.68021 60.6533 9.68021C61.0973 9.68021 61.4525 10.0354 61.4525 10.4794C61.4525 10.9234 61.0973 11.2786 60.6533 11.2786C60.2271 11.2786 59.8541 10.9234 59.8541 10.4794ZM59.9784 16.855V12.2908C59.9784 12.1665 60.0672 12.131 60.1383 12.131H61.1861C61.3104 12.131 61.3459 12.2198 61.3459 12.2908V16.855C61.3459 16.9793 61.2571 17.0148 61.1861 17.0148H60.1383C60.0672 17.0148 59.9784 16.9793 59.9784 16.855ZM67.7571 12.2908V16.855C67.7571 16.9793 67.6683 17.0148 67.5972 17.0148H66.6738C66.5494 17.0148 66.5139 16.926 66.5139 16.855L66.4251 16.2512C66.0166 16.7662 65.5016 17.1391 64.738 17.1391C63.5303 17.1391 62.4115 16.1801 62.4115 14.564C62.4115 12.9124 63.5303 11.9534 64.7024 11.9534C65.4306 11.9534 66.0344 12.3086 66.4251 12.7881L66.5139 12.2731C66.5139 12.1488 66.6027 12.1132 66.6738 12.1132H67.5972C67.686 12.0955 67.7571 12.1665 67.7571 12.2908ZM66.4429 14.6173C66.4429 13.6583 65.8035 13.1255 65.0754 13.1255C64.3473 13.1255 63.7434 13.6405 63.7434 14.6173C63.7434 15.5941 64.3473 16.1091 65.1109 16.1091C65.7503 16.0203 66.4429 15.5763 66.4429 14.6173Z" fill="#808080"/>
</svg>
