<svg width="90" height="18" viewBox="0 0 90 18" fill="none" xmlns="http://www.w3.org/2000/svg">
<g clip-path="url(#clip0_148_4669)">
<mask id="mask0_148_4669" style="mask-type:luminance" maskUnits="userSpaceOnUse" x="0" y="0" width="26" height="18">
<path d="M0.433594 0.249512L0.652344 0.818262L1.65859 3.44326L7.08359 17.7495H25.0211L10.6711 3.31201C8.74609 1.38701 6.12109 0.249512 3.40859 0.249512H0.433594Z" fill="white"/>
</mask>
<g mask="url(#mask0_148_4669)">
<path d="M8.2664 29.2121L-7.74609 5.84961L17.1914 -11.2129L33.2039 12.1496L8.2664 29.2121Z" fill="url(#paint0_linear_148_4669)"/>
</g>
<mask id="mask1_148_4669" style="mask-type:luminance" maskUnits="userSpaceOnUse" x="0" y="0" width="90" height="18">
<path d="M89.0711 0.249512H0.433594V17.7495H89.0711V0.249512Z" fill="white"/>
</mask>
<g mask="url(#mask1_148_4669)">
<path d="M1.65859 3.44355C3.62734 6.8123 8.78984 7.1623 9.35859 12.3686C9.40234 12.5873 9.53359 12.7623 9.75234 12.8061C12.7273 13.2873 15.6148 14.5123 18.1523 16.5248H18.1961C18.2398 16.5248 18.2398 16.5248 18.2398 16.4811C18.2836 16.4373 18.2836 16.3936 18.2398 16.3498C16.4898 14.5123 14.3898 13.0686 11.9836 12.1061L11.2398 11.7998C10.8461 11.6686 10.6273 11.2748 10.6273 10.8373C10.6711 9.2623 14.3461 9.6123 14.7398 8.8248L14.7836 8.69355C14.0398 8.0373 13.1211 7.55605 12.1148 7.29355C12.1148 7.3373 12.0711 7.5123 12.2898 7.8623C12.5086 8.2123 12.0711 8.78105 11.3711 8.16855H11.3273C6.33984 3.61856 2.62109 5.98105 0.652344 0.862305L1.65859 3.44355Z" fill="white"/>
</g>
<mask id="mask2_148_4669" style="mask-type:luminance" maskUnits="userSpaceOnUse" x="11" y="7" width="3" height="3">
<path d="M11.9414 8.47554V9.70054C12.4664 9.52554 13.0789 9.43804 13.6039 9.35054V8.65054C13.6039 8.65054 12.7727 8.69429 12.2914 7.86304C12.4664 8.12554 12.2914 8.47554 11.9414 8.47554Z" fill="white"/>
</mask>
<g mask="url(#mask2_148_4669)">
<path d="M11.8086 9.70015L11.9836 7.77515L13.7773 7.9064L13.6023 9.87515L11.8086 9.70015Z" fill="url(#paint1_linear_148_4669)"/>
</g>
<mask id="mask3_148_4669" style="mask-type:luminance" maskUnits="userSpaceOnUse" x="10" y="12" width="9" height="5">
<path d="M10.3203 12.8941C13.0766 13.4191 15.7453 14.6004 18.0641 16.4816C14.3016 13.2879 12.0266 12.8066 10.9766 12.8066C10.6266 12.8066 10.3641 12.8941 10.3203 12.8941Z" fill="white"/>
</mask>
<g mask="url(#mask3_148_4669)">
<path d="M18.0641 12.8064H10.3203V16.4814H18.0641V12.8064Z" fill="url(#paint2_linear_148_4669)"/>
</g>
<mask id="mask4_148_4669" style="mask-type:luminance" maskUnits="userSpaceOnUse" x="0" y="0" width="10" height="13">
<path d="M0.652344 0.862793L1.65859 3.48779C3.62734 6.85654 8.78984 7.20654 9.35859 12.4128C8.78984 5.76279 5.85859 6.76904 2.70859 3.70654C1.87734 3.09404 1.17734 2.26279 0.652344 0.862793Z" fill="white"/>
</mask>
<g mask="url(#mask4_148_4669)">
<path d="M9.31484 0.862305H0.652344V12.4123H9.31484V0.862305Z" fill="url(#paint3_linear_148_4669)"/>
</g>
<mask id="mask5_148_4669" style="mask-type:luminance" maskUnits="userSpaceOnUse" x="0" y="0" width="90" height="18">
<path d="M89.0711 0.249512H0.433594V17.7495H89.0711V0.249512Z" fill="white"/>
</mask>
<g mask="url(#mask5_148_4669)">
<path d="M26.8578 14.5559C23.3141 14.5559 21.0391 12.7184 21.0391 10.3997C21.0391 8.03716 23.4453 6.24341 26.9453 6.24341C30.4453 6.24341 32.8516 8.03716 32.8516 10.3122C32.8516 11.3184 32.4141 12.1497 31.5391 12.8497H33.6391L33.1578 13.7247C32.8516 14.2497 32.4578 14.5997 31.6266 14.5997H26.8578V14.5559ZM26.9453 12.6309C28.8703 12.6309 30.5328 11.6684 30.5328 10.3559C30.5328 9.04341 28.9141 8.08091 26.9453 8.08091C25.0203 8.08091 23.3578 9.04341 23.3578 10.3559C23.4016 11.7122 25.0203 12.6309 26.9453 12.6309Z" fill="#575757"/>
</g>
<mask id="mask6_148_4669" style="mask-type:luminance" maskUnits="userSpaceOnUse" x="0" y="0" width="90" height="18">
<path d="M89.0711 0.249512H0.433594V17.7495H89.0711V0.249512Z" fill="white"/>
</mask>
<g mask="url(#mask6_148_4669)">
<path d="M42.3469 13.1122H36.7906L36.0031 14.5122H33.6406L37.5344 7.81841C37.8406 7.29341 38.2781 6.89966 39.1531 6.89966H40.0281C40.9031 6.89966 41.3406 7.29341 41.6469 7.81841L45.5406 14.5122H43.1781L42.3469 13.1122ZM37.7094 11.4497H41.3844L39.6781 8.38716C39.6344 8.29966 39.5906 8.29966 39.5469 8.29966C39.5031 8.29966 39.4594 8.29966 39.4156 8.38716L37.7094 11.4497Z" fill="#575757"/>
</g>
<mask id="mask7_148_4669" style="mask-type:luminance" maskUnits="userSpaceOnUse" x="0" y="0" width="90" height="18">
<path d="M89.0711 0.249512H0.433594V17.7495H89.0711V0.249512Z" fill="white"/>
</mask>
<g mask="url(#mask7_148_4669)">
<path d="M56.5219 6.89966V14.5559H54.4656L48.3844 9.48091V14.5559H46.3281V6.89966H47.6406C48.2969 6.89966 48.6469 7.07466 48.9969 7.38091L54.4656 11.9309V6.89966H56.5219Z" fill="#575757"/>
</g>
<mask id="mask8_148_4669" style="mask-type:luminance" maskUnits="userSpaceOnUse" x="0" y="0" width="90" height="18">
<path d="M89.0711 0.249512H0.433594V17.7495H89.0711V0.249512Z" fill="white"/>
</mask>
<g mask="url(#mask8_148_4669)">
<path d="M63.9141 8.60591V14.5559H61.8141V8.60591H57.5703V6.89966H68.1578V8.60591H63.9141Z" fill="#575757"/>
</g>
<mask id="mask9_148_4669" style="mask-type:luminance" maskUnits="userSpaceOnUse" x="0" y="0" width="90" height="18">
<path d="M89.0711 0.249512H0.433594V17.7495H89.0711V0.249512Z" fill="white"/>
</mask>
<g mask="url(#mask9_148_4669)">
<path d="M75.0266 13.1122H69.4266L68.6391 14.5122H66.3203L70.2141 7.81841C70.5203 7.29341 70.9578 6.89966 71.8328 6.89966H72.7078C73.5828 6.89966 74.0203 7.29341 74.3266 7.81841L78.2203 14.5122H75.8578L75.0266 13.1122ZM70.3891 11.4497H74.0641L72.3578 8.38716C72.3141 8.29966 72.2703 8.29966 72.2266 8.29966C72.1828 8.29966 72.1391 8.29966 72.0953 8.38716L70.3891 11.4497Z" fill="#575757"/>
</g>
<mask id="mask10_148_4669" style="mask-type:luminance" maskUnits="userSpaceOnUse" x="0" y="0" width="90" height="18">
<path d="M89.0711 0.249512H0.433594V17.7495H89.0711V0.249512Z" fill="white"/>
</mask>
<g mask="url(#mask10_148_4669)">
<path d="M78.9219 13.9872L78.7469 13.9435L79.2719 12.281C80.7594 12.7622 82.3344 12.9372 83.7781 12.9372C86.1406 12.9372 86.7094 12.6747 86.7094 12.3685C86.7094 12.2372 86.6219 12.1497 86.4469 12.106C86.2281 12.0185 85.5719 11.8872 83.6469 11.581C81.5031 11.231 80.5406 11.056 79.8406 10.7497C79.1406 10.4435 78.7031 9.91846 78.7031 9.13096C78.7031 8.56221 79.0094 8.08096 79.4469 7.73096C80.2781 7.11846 81.6781 6.85596 83.1656 6.85596C85.1344 6.85596 86.7531 7.03096 88.5906 7.46846L88.7656 7.51221L88.3281 9.13096C86.2719 8.69346 85.1781 8.56221 83.6031 8.56221C82.5094 8.56221 81.7656 8.64971 81.3719 8.73721C81.1531 8.82471 81.0656 8.91221 81.0656 9.04346C81.0656 9.17471 81.1531 9.26221 81.3719 9.34971C81.6344 9.43721 82.0281 9.52471 84.0844 9.87471C86.3594 10.2247 87.1031 10.3997 87.7156 10.6185C88.5469 10.9247 89.0719 11.5372 89.0719 12.281C89.0719 13.2435 88.3281 13.9435 87.0594 14.3372C86.2719 14.556 85.2219 14.6872 84.0406 14.6872C82.1594 14.6435 80.1906 14.381 78.9219 13.9872Z" fill="#575757"/>
</g>
</g>
<defs>
<linearGradient id="paint0_linear_148_4669" x1="17.8267" y1="16.4394" x2="5.85628" y2="-1.04303" gradientUnits="userSpaceOnUse">
<stop stop-color="#BEBEBE"/>
<stop offset="0.3828" stop-color="#DDDDDD"/>
<stop offset="0.7663" stop-color="#F6F6F6"/>
<stop offset="1" stop-color="white"/>
</linearGradient>
<linearGradient id="paint1_linear_148_4669" x1="12.6945" y1="9.79795" x2="12.8558" y2="7.95357" gradientUnits="userSpaceOnUse">
<stop stop-color="white"/>
<stop offset="0.65" stop-color="white"/>
<stop offset="0.7282" stop-color="#E0E0E0"/>
<stop offset="0.8147" stop-color="#C5C5C5"/>
<stop offset="0.8915" stop-color="#B5B5B5"/>
<stop offset="0.95" stop-color="#AFAFAF"/>
<stop offset="1" stop-color="#AFAFAF"/>
</linearGradient>
<linearGradient id="paint2_linear_148_4669" x1="10.3343" y1="14.6609" x2="18.0971" y2="14.6609" gradientUnits="userSpaceOnUse">
<stop stop-color="white"/>
<stop offset="0.0832758" stop-color="#F1F1F1"/>
<stop offset="0.2919" stop-color="#D4D4D4"/>
<stop offset="0.4994" stop-color="#C0C0C0"/>
<stop offset="0.7035" stop-color="#B3B3B3"/>
<stop offset="0.9" stop-color="#AFAFAF"/>
<stop offset="1" stop-color="#AFAFAF"/>
</linearGradient>
<linearGradient id="paint3_linear_148_4669" x1="0.643376" y1="6.61179" x2="9.32001" y2="6.61179" gradientUnits="userSpaceOnUse">
<stop stop-color="white"/>
<stop offset="0.25" stop-color="white"/>
<stop offset="0.4649" stop-color="#ECECEC"/>
<stop offset="0.8983" stop-color="#BBBBBB"/>
<stop offset="1" stop-color="#AFAFAF"/>
</linearGradient>
<clipPath id="clip0_148_4669">
<rect width="88.6812" height="17.5" fill="white" transform="translate(0.390625 0.25)"/>
</clipPath>
</defs>
</svg>
