<svg width="86" height="30" viewBox="0 0 86 30" fill="none" xmlns="http://www.w3.org/2000/svg">
<path d="M0.40625 7.83798H8.21839V0.0266113H0.40625V7.83798ZM0.40625 23.4385H8.21839V15.6264H0.40625V23.4385ZM15.9603 7.83798H23.7724V0.0266113H15.9603V7.83798ZM8.16077 15.6795H15.9729V7.86656H8.16077V15.6795ZM15.9603 23.4384H23.7724V15.6263H15.9603V23.4384Z" fill="#818181"/>
<path d="M82.7705 10.9094C81.3563 10.0496 79.7921 9.47292 78.1351 8.86219C77.8131 8.74321 77.4871 8.62344 77.1579 8.4989C75.2241 7.78185 74.2429 6.99425 74.2429 6.15738C74.2429 4.72884 76.198 4.51544 77.3641 4.51544C79.3217 4.51544 81.6266 5.21901 84.6155 6.73088L84.8542 6.85144V1.8956L84.7614 1.85118C82.2328 0.625739 79.6437 0.00537109 77.0683 0.00537109C71.9807 0.00537109 68.428 2.72362 68.428 6.61745C68.428 10.8998 71.4232 12.7567 76.9485 14.6834C79.0385 15.4155 79.8277 15.8034 79.8277 16.9908C79.8277 18.2107 78.7553 18.8294 76.6407 18.8294C74.1319 18.8294 71.8007 17.711 69.0721 16.0311L68.8223 15.8772V21.2558L68.9024 21.3034C71.316 22.7589 73.9637 23.4966 76.7724 23.4966C82.4295 23.4966 85.8069 20.9426 85.8069 16.6625C85.8069 14.0854 84.7852 12.1501 82.7705 10.9094ZM56.9731 13.5323H65.9291V9.02942H56.9731V4.84053H66.3542V0.378078H51.0351V23.0909H66.6168V18.58H56.9731V13.5323ZM45.6705 10.9095C44.2586 10.0504 42.6952 9.4746 41.0406 8.86377C40.7162 8.74478 40.3886 8.62343 40.0578 8.4989C38.1241 7.78185 37.1437 6.99425 37.1437 6.15738C37.1437 4.72884 39.0981 4.51544 40.2641 4.51544C42.2218 4.51544 44.5259 5.21901 47.5155 6.73088L47.7535 6.85144V1.8956L47.6615 1.85118C45.1336 0.625739 42.5447 0.00537109 39.9684 0.00537109C34.8817 0.00537109 31.3281 2.72362 31.3281 6.61745C31.3281 10.9007 34.3233 12.7567 39.8494 14.6834C41.9378 15.4147 42.7271 15.8034 42.7271 16.9908C42.7271 18.2107 41.6555 18.8294 39.5416 18.8294C37.032 18.8294 34.7008 17.711 31.973 16.0311L31.7231 15.8772V21.2558L31.8025 21.3034C34.2162 22.7589 36.8638 23.4966 39.6734 23.4966C45.3304 23.4966 48.707 20.9426 48.707 16.6625C48.707 14.0854 47.6852 12.1492 45.6705 10.9095Z" fill="#575757"/>
<path d="M27.7031 23.4385H28.0307V0H27.7031V23.4385Z" fill="#575757"/>
<path d="M8.80352 29.9991H8.4553L7.02443 26.7026H7.88267L8.65128 28.5016L9.48571 26.7026H10.1393L10.9745 28.5016L11.7376 26.7026H12.5958L11.1697 29.9991H10.8215L9.81015 27.8765L8.80352 29.9991ZM6.64615 27.5472C6.1742 27.337 5.89261 27.2561 5.61579 27.2561C5.32468 27.2561 5.13907 27.3608 5.13907 27.5234C5.13907 28.0144 6.79364 27.8764 6.79364 29.0115C6.79364 29.6365 6.26933 29.999 5.54437 29.999C4.97645 29.999 4.69488 29.8515 4.37046 29.6841V28.9829C4.83845 29.2931 5.12477 29.4033 5.48255 29.4033C5.79267 29.4033 5.95925 29.2931 5.95925 29.1027C5.95925 28.5681 4.3039 28.764 4.3039 27.5948C4.3039 27.0317 4.7909 26.6597 5.54441 26.6597C5.9069 26.6597 6.23606 26.7366 6.64616 26.9127L6.64615 27.5472ZM3.68237 29.9561H3.00023L1.20207 27.8717V29.9561H0.390625V26.7025H1.13466L2.87177 28.6918V26.7025H3.68241L3.68237 29.9561Z" fill="#575757"/>
<path d="M84.9181 29.9569H82.5187V26.7032H84.8848V27.2997H83.3294V27.9819H84.8127V28.5783H83.3294V29.3604H84.9182L84.9181 29.9569ZM81.8158 29.6755C81.3629 29.9095 81.0186 29.9999 80.5372 29.9999C79.2728 29.9999 78.6438 29.1798 78.6438 28.3398C78.6438 27.4713 79.3545 26.6606 80.599 26.6606C81.0527 26.6606 81.458 26.7558 81.7777 26.947V27.672C81.42 27.4713 81.0575 27.338 80.657 27.338C79.9653 27.338 79.4783 27.7481 79.4783 28.3255C79.4783 28.907 79.9597 29.3226 80.6371 29.3226C81.0623 29.3226 81.3486 29.1885 81.8158 28.9649V29.6755ZM77.9849 29.9572H77.1735V26.7035H77.9849V29.9572ZM75.231 29.9998H74.878L73.3036 26.7032H74.1864L75.0446 28.5594L75.8608 26.7032H76.7333L75.231 29.9998ZM71.4845 28.0392H71.9137C72.1381 28.0392 72.3578 27.944 72.3578 27.6671C72.3578 27.4236 72.2 27.2999 71.8946 27.2999H71.4845V28.0392ZM72.1286 26.7035C72.7965 26.7035 73.1923 27.1516 73.1923 27.6386C73.1923 27.9964 73.0059 28.2637 72.6339 28.435C72.9678 28.6016 73.0677 29.0029 73.5262 29.9572H72.6339C72.2857 29.2607 72.1572 28.6357 71.7185 28.6357H71.4845V29.9572H70.6739V26.7035L72.1286 26.7035ZM70.0043 29.9569H67.6049V26.7032H69.971V27.2997H68.4156V27.9819H69.8997V28.5784H68.4156V29.3604H70.0044L70.0043 29.9569ZM66.85 27.548C66.3773 27.3378 66.0965 27.2569 65.8197 27.2569C65.5286 27.2569 65.3422 27.3616 65.3422 27.5242C65.3422 28.0152 66.9984 27.8772 66.9984 29.0122C66.9984 29.6372 66.4733 29.9997 65.7483 29.9997C65.1804 29.9997 64.8988 29.8522 64.5744 29.6848V28.9837C65.0416 29.2938 65.3279 29.4041 65.6865 29.4041C65.9959 29.4041 66.1632 29.2938 66.1632 29.1034C66.1632 28.5688 64.5079 28.7647 64.5079 27.5956C64.5079 27.0324 64.9941 26.6604 65.7484 26.6604C66.1109 26.6604 66.4401 26.7373 66.8501 26.9134L66.85 27.548ZM60.7853 28.4351L59.5019 26.7035H60.4847L61.1906 27.7244L61.9013 26.7035H62.8793L61.5959 28.4351V29.9572H60.7853L60.7853 28.4351ZM59.1715 29.6756C58.7186 29.9096 58.3751 30 57.8929 30C56.6285 30 55.9995 29.1798 55.9995 28.3399C55.9995 27.4714 56.7102 26.6607 57.9547 26.6607C58.4084 26.6607 58.8137 26.7559 59.1334 26.9471V27.672C58.7757 27.4714 58.4132 27.3381 58.0127 27.3381C57.3202 27.3381 56.834 27.7482 56.834 28.3256C56.834 28.907 57.3154 29.3227 57.9928 29.3227C58.418 29.3227 58.7043 29.1886 59.1715 28.9649V29.6756ZM55.3583 29.9569H54.6762L52.878 27.8725V29.9569H52.0666V26.7033H52.8106L54.5477 28.6926V26.7033H55.3584L55.3583 29.9569ZM51.3932 29.9569H48.9938V26.7033H51.3599V27.2998H49.8045V27.9819H51.2886V28.5784H49.8045V29.3605H51.3933L51.3932 29.9569ZM48.162 27.6385C47.7472 27.4378 47.3466 27.3379 46.9452 27.3379C46.0632 27.3379 45.753 27.882 45.753 28.3634C45.753 28.9409 46.2059 29.3224 46.8786 29.3224C47.0785 29.3224 47.1792 29.3033 47.418 29.2082V28.8259H46.9453V28.2302H48.2287V29.5611C47.9851 29.8133 47.3839 29.9997 46.8596 29.9997C45.7246 29.9997 44.9178 29.3081 44.9178 28.3349C44.9178 27.3426 45.7198 26.6605 46.8787 26.6605C47.3657 26.6605 47.8376 26.7699 48.1621 26.9278L48.162 27.6385ZM42.589 28.0393H43.0181C43.2425 28.0393 43.4623 27.9441 43.4623 27.6673C43.4623 27.4238 43.3045 27.3 42.9991 27.3H42.589L42.589 28.0393ZM43.2331 26.7036C43.901 26.7036 44.2968 27.1517 44.2968 27.6388C44.2968 27.9965 44.1104 28.2638 43.7383 28.4351C44.0723 28.6017 44.1722 29.003 44.6307 29.9573H43.7383C43.3902 29.2609 43.2617 28.6358 42.823 28.6358H42.589V29.9573H41.7776V26.7037L43.2331 26.7036ZM41.1091 29.957H38.7097V26.7034H41.0758V27.2998H39.5204V27.982H41.0045V28.5785H39.5204V29.3606H41.1092L41.1091 29.957ZM37.2245 26.7036H37.9304V29.9572H37.1198V27.925L36.2417 28.9459H36.118L35.24 27.925V29.9572H34.4293V26.7036H35.1353L36.1799 27.9101L37.2245 26.7036ZM33.7601 29.957H31.3607V26.7034H33.7268V27.2998H32.1714V27.982H33.6555V28.5785H32.1714V29.3606H33.7602L33.7601 29.957ZM29.3077 29.957H26.9084V26.7034H29.2745V27.2998H27.7191V27.982H29.2031V28.5785H27.7191V29.3606H29.3078L29.3077 29.957ZM26.3584 27.2998H25.1797V29.957H24.369V27.2998H23.1911V26.7033H26.3583L26.3584 27.2998ZM21.6626 27.4811L21.1851 28.7455H22.1869L21.6626 27.4811ZM23.5654 29.9567H22.6929L22.4256 29.3127H20.9709L20.7274 29.9567H19.8692L21.1812 26.7039H22.1203L23.5654 29.9567ZM20.2488 27.2999H19.0701V29.9571H18.2594V27.2999H17.0815V26.7034H20.2487L20.2488 27.2999ZM16.5649 27.5481C16.093 27.3379 15.8114 27.257 15.5345 27.257C15.2434 27.257 15.0578 27.3617 15.0578 27.5243C15.0578 28.0153 16.7132 27.8773 16.7132 29.0124C16.7132 29.6374 16.1881 29.9999 15.4631 29.9999C14.8952 29.9999 14.6136 29.8524 14.2892 29.685V28.9838C14.7572 29.294 15.0435 29.4042 15.4013 29.4042C15.7114 29.4042 15.878 29.294 15.878 29.1036C15.878 28.569 14.2227 28.7649 14.2227 27.5957C14.2227 27.0326 14.7097 26.6606 15.4632 26.6606C15.8257 26.6606 16.1548 26.7375 16.5649 26.9136L16.5649 27.5481Z" fill="#818181"/>
</svg>
