<svg width="47" height="30" viewBox="0 0 47 30" fill="none" xmlns="http://www.w3.org/2000/svg">
<g clip-path="url(#clip0_148_4642)">
<path d="M23.7464 0.207275C11.1202 0.207275 0.882812 6.82987 0.882812 14.9969C0.882812 23.167 11.1202 29.7926 23.7464 29.7926C36.3726 29.7926 46.61 23.17 46.61 14.9969C46.61 6.82386 36.3726 0.207275 23.7464 0.207275ZM23.7464 23.4435C21.8684 23.4435 20.3359 19.7445 20.2398 15.0901C21.3696 15.1892 22.5445 15.2433 23.7464 15.2433C24.9483 15.2433 26.1232 15.1892 27.253 15.0901C27.1568 19.7415 25.6244 23.4435 23.7464 23.4435ZM20.4712 11.3942C20.982 8.10391 22.256 5.76917 23.7464 5.76917C25.2368 5.76917 26.5108 8.10391 27.0216 11.3942C25.973 11.4873 24.8792 11.5384 23.7464 11.5384C22.6136 11.5384 21.5198 11.4873 20.4712 11.3942ZM23.7464 2.3467C21.2945 2.3467 19.2031 6.01857 18.4309 11.1448C13.7825 10.4206 10.5373 8.76797 10.5373 6.8479C10.5373 4.25776 16.4507 2.1574 23.7464 2.1574C31.0421 2.1574 36.9555 4.25776 36.9555 6.8479C36.9555 8.76797 33.7103 10.4206 29.0619 11.1448C28.2897 6.01857 26.1983 2.3467 23.7464 2.3467ZM4.16106 14.4441C4.16106 11.938 5.1256 9.58528 6.80529 7.56605C6.78726 7.70728 6.77524 7.85151 6.77524 7.99574C6.77524 11.1538 11.5108 13.8461 18.1184 14.8377C18.1124 15.0661 18.1124 15.2974 18.1124 15.5288C18.1124 21.4152 19.762 26.4002 22.0427 28.0919C12.0216 27.4879 4.16106 21.6075 4.16106 14.4441ZM25.4501 28.0919C27.7308 26.4002 29.3804 21.4152 29.3804 15.5288C29.3804 15.2944 29.3774 15.0661 29.3744 14.8377C35.979 13.8461 40.7175 11.1568 40.7175 7.99574C40.7175 7.85151 40.7055 7.70728 40.6875 7.56605C42.3672 9.59129 43.3317 11.938 43.3317 14.4441C43.3317 21.6075 35.4712 27.4879 25.4501 28.0919Z" fill="#575757"/>
</g>
<defs>
<clipPath id="clip0_148_4642">
<rect width="46.1538" height="30" fill="white" transform="translate(0.667969)"/>
</clipPath>
</defs>
</svg>
