<svg width="81" height="30" viewBox="0 0 81 30" fill="none" xmlns="http://www.w3.org/2000/svg">
<path d="M31.814 29.0923C31.6744 29.0923 31.5625 28.9808 31.5625 28.8413V3.12992C31.5625 2.99146 31.6744 2.87793 31.814 2.87793C31.953 2.87793 32.0659 2.99146 32.0659 3.12992V28.8419C32.0659 28.9808 31.953 29.0923 31.814 29.0923Z" fill="#5B5B5B"/>
<path d="M8.74388 22.5344L4.5147 17.5684H2.72266V25.3418H4.46854V20.3859L8.68552 25.3418H10.4892V17.5684H8.74388V22.5344ZM25.4993 17.5689L24.3412 22.5455L23.1253 17.5689H21.4548L20.2181 22.4898L19.0967 17.5689H17.2675L19.2903 25.3408H21.0876L22.2749 20.4235L23.4802 25.3408H25.2463L25.2638 25.2739L27.2998 17.5694L25.4993 17.5689Z" fill="#5B5B5B"/>
<path d="M2.53906 27.7248V27.7184C2.53906 27.0452 3.05471 26.4744 3.77991 26.4744C4.19901 26.4744 4.45683 26.5911 4.70458 26.8017L4.43668 27.1211C4.24994 26.9624 4.06851 26.8632 3.7624 26.8632C3.31996 26.8632 2.98203 27.2516 2.98203 27.712V27.7189C2.98203 28.2149 3.30935 28.5783 3.8006 28.5783C4.02766 28.5783 4.23349 28.5067 4.3815 28.3959V27.9455H3.76612V27.5773H4.78999V28.589C4.55286 28.7911 4.21227 28.9646 3.78681 28.9646C3.03402 28.964 2.53906 28.4261 2.53906 27.7248Z" fill="#5B5B5B"/>
<path d="M5.04688 27.7248V27.7184C5.04688 27.0409 5.56942 26.4744 6.30788 26.4744C7.04741 26.4744 7.56252 27.0351 7.56252 27.7115V27.7184C7.56252 28.3948 7.04157 28.964 6.30099 28.964C5.56252 28.964 5.04688 28.4022 5.04688 27.7248ZM7.11955 27.7248V27.7184C7.11955 27.251 6.77897 26.8627 6.30152 26.8627C5.82406 26.8627 5.49091 27.2436 5.49091 27.7115V27.7184C5.49091 28.1868 5.83149 28.5741 6.30894 28.5741C6.7864 28.5741 7.11955 28.1927 7.11955 27.7248Z" fill="#5B5B5B"/>
<path d="M7.53125 26.5156H7.99809L8.72329 28.365L9.44637 26.5156H9.90207L8.90207 28.939H8.53019L7.53125 26.5156Z" fill="#5B5B5B"/>
<path d="M10.1875 26.5156H11.9721V26.8933H10.6098V27.5193H11.8172V27.8981H10.6098V28.5437H11.9896V28.9215H10.1875V26.5156Z" fill="#5B5B5B"/>
<path d="M12.3984 26.5156H13.4706C13.773 26.5156 14.0106 26.6048 14.165 26.7559C14.2934 26.8864 14.364 27.0658 14.364 27.2753V27.2827C14.364 27.678 14.1268 27.9156 13.7905 28.0111L14.4393 28.922H13.9411L13.3496 28.0838H12.8207V28.922H12.3984V26.5156ZM13.4393 27.7082C13.7422 27.7082 13.9353 27.5501 13.9353 27.305V27.2992C13.9353 27.0408 13.7502 26.9008 13.4361 26.9008H12.8207V27.7082H13.4393Z" fill="#5B5B5B"/>
<path d="M14.7383 26.5156H15.1293L16.4184 28.1782V26.5156H16.8348V28.9215H16.4805L15.1537 27.2085V28.9215H14.7383V26.5156Z" fill="#5B5B5B"/>
<path d="M17.2617 26.5156H17.7121L18.4447 27.653L19.1774 26.5156H19.6272V28.9215H19.2034V27.1963L18.4447 28.3299H18.4299L17.6792 27.2021V28.9215H17.2617V26.5156Z" fill="#5B5B5B"/>
<path d="M20.0312 26.5156H21.8153V26.8933H20.4541V27.5193H21.6599V27.8981H20.4541V28.5437H21.8328V28.9215H20.0312V26.5156Z" fill="#5B5B5B"/>
<path d="M22.25 26.5156H22.6426L23.9301 28.1782V26.5156H24.3471V28.9215H23.9932L22.667 27.2085V28.9215H22.25V26.5156Z" fill="#5B5B5B"/>
<path d="M25.4415 26.9077H24.6797V26.5156H26.6314V26.9077H25.8685V28.9209H25.4415V26.9077Z" fill="#5B5B5B"/>
<path d="M10.9727 24.2587L11.9987 23.029C12.7101 23.6158 13.4538 23.9887 14.3573 23.9887C15.0676 23.9887 15.4973 23.706 15.4973 23.2434V23.2206C15.4973 22.7808 15.2257 22.5558 13.9058 22.2168C12.3154 21.8105 11.2883 21.3707 11.2883 19.803V19.7797C11.2883 18.3473 12.4395 17.4004 14.0528 17.4004C15.2034 17.4004 16.1854 17.7611 16.987 18.4041L16.0835 19.7134C15.3838 19.2285 14.6957 18.9346 14.0294 18.9346C13.3642 18.9346 13.0146 19.2391 13.0146 19.6232V19.645C13.0146 20.1643 13.3514 20.3335 14.7175 20.6831C16.3191 21.1001 17.222 21.6763 17.222 23.0529V23.0752C17.222 24.6434 16.0257 25.5229 14.3233 25.5229C13.1265 25.5219 11.9201 25.1049 10.9727 24.2587Z" fill="#5B5B5B"/>
<path d="M6.88018 2.81494C6.71679 2.82025 6.61864 2.91521 6.58363 3.10566C6.58363 3.10566 6.5449 3.38789 6.49981 3.87011C6.46002 4.31043 6.41016 5.00911 6.41016 5.83987C6.41016 7.71096 6.65472 10.3693 7.81971 12.4075C8.7136 13.9619 9.97567 14.8378 11.3847 14.8834C10.8351 14.4632 10.181 13.7672 9.83456 12.6839C9.50618 11.6563 9.34066 10.4404 9.34066 9.07224C9.34066 7.18258 9.65684 5.56242 9.75339 5.11149C9.75658 5.09929 9.7587 5.09186 9.7587 5.08868C9.81546 4.82555 9.96772 4.616 10.1704 4.5099C8.73376 3.58736 7.49822 3.04571 7.25896 2.94385C7.11679 2.87807 7.03986 2.84942 7.0388 2.84942H7.03615L7.03403 2.84836C6.98257 2.82608 6.93005 2.81494 6.88018 2.81494Z" fill="#C6C6C6"/>
<path d="M19.118 5C19.0836 5 19.0432 5.01698 18.9966 5.05093C18.9966 5.05305 18.952 5.08594 18.8714 5.15544C18.7891 5.22122 18.6719 5.32149 18.5101 5.46472C18.2942 5.65676 17.8576 6.06313 17.344 6.62546C16.5355 7.52732 15.4618 8.94801 14.9509 10.5942C14.657 11.5544 14.5111 12.3862 14.5159 13.0658C14.5101 13.5745 14.5913 14.0048 14.7557 14.3448C14.9106 14.678 15.1499 14.9141 15.4846 15.0679C15.6241 15.13 15.8029 15.1623 16.0141 15.1623H16.0247C17.0077 15.1623 18.647 14.3422 19.2119 12.5188C19.5154 11.5369 19.6714 10.3772 19.6714 9.07268C19.6714 7.45305 19.4353 6.04244 19.334 5.51141C19.2942 5.31459 19.2729 5.20849 19.2729 5.20849C19.2485 5.11565 19.2019 5 19.118 5Z" fill="#C6C6C6"/>
<path d="M10.4716 5C10.3862 5 10.3342 5.11406 10.3055 5.21114C10.3013 5.22918 10.2801 5.33316 10.2445 5.51194C10.2169 5.64775 10.1628 5.93687 10.1039 6.34695C10.0122 6.98674 9.90234 7.97878 9.90234 9.07268C9.90234 10.3984 10.0588 11.5549 10.366 12.513C10.9421 14.3401 12.6233 15.1618 13.6313 15.1618H13.6419C13.8546 15.1618 14.0408 15.1279 14.1978 15.0605C14.2801 15.0265 14.3591 14.9841 14.4488 14.9236C14.3745 14.8223 14.3092 14.7125 14.2482 14.5857C14.0519 14.1767 13.9533 13.6801 13.9485 13.0658C13.9527 12.3077 14.1119 11.4217 14.4191 10.4297C14.4456 10.3385 14.4774 10.2462 14.5087 10.1554C14.5209 10.1204 14.5331 10.0854 14.5453 10.0483C13.4732 7.38568 11.0116 5.37825 10.7321 5.15756C10.644 5.08594 10.5989 5.05252 10.5989 5.05252C10.5506 5.01804 10.5066 5 10.4716 5Z" fill="#C6C6C6"/>
<path d="M14.7873 0.640869C14.7273 0.640869 14.6663 0.688084 14.6048 0.780392C14.6037 0.781983 14.5538 0.855193 14.4716 0.991532C14.348 1.19631 14.2308 1.39737 14.1119 1.60426C13.8467 2.07482 13.4424 2.83556 13.0281 3.78198C12.7432 4.42708 12.4849 5.09869 12.2578 5.77933C13.0552 6.57562 14.1257 7.81965 14.8382 9.32946C15.3873 8.14697 16.2223 6.96925 17.3236 5.82548C16.5724 3.54644 15.5178 1.68808 15.0976 0.991532C15.009 0.85254 14.9634 0.7788 14.9634 0.7788C14.8785 0.650949 14.8074 0.640869 14.7873 0.640869Z" fill="#C6C6C6"/>
<path d="M22.6816 2.81494C22.6492 2.81494 22.5978 2.82131 22.5325 2.84836L22.5309 2.84942H22.5288C22.5277 2.84942 22.4503 2.87807 22.3086 2.94279C22.1712 2.9985 21.9903 3.08444 21.7601 3.19213L21.6795 3.23033C20.9702 3.57356 20.2795 3.95659 19.628 4.36879C19.5527 4.41123 19.4784 4.45791 19.4047 4.50619C19.6073 4.60911 19.7617 4.82078 19.8195 5.08603C19.8216 5.09239 19.8227 5.09982 19.8248 5.11202C19.9208 5.56401 20.2328 7.18417 20.2328 9.07277C20.2328 10.4335 20.0704 11.6489 19.7511 12.6839C19.4073 13.772 18.7702 14.4664 18.2344 14.8828C19.6211 14.8176 20.8657 13.9444 21.7484 12.408C22.9134 10.3693 23.158 7.71096 23.158 5.84041C23.158 5.17781 23.1272 4.51361 23.0673 3.86481C23.0238 3.38842 22.9845 3.10566 22.9834 3.10247C22.9484 2.91521 22.8482 2.82025 22.6816 2.81494Z" fill="#C6C6C6"/>
<path d="M18.8296 1.23169C18.8127 1.23169 18.7936 1.23328 18.775 1.23699H18.7734H18.7718C18.7288 1.24124 18.6832 1.25928 18.6392 1.29164L18.636 1.29217L18.6355 1.29429C18.6323 1.29482 18.3267 1.48262 17.8572 1.82055C17.5973 2.00782 17.1824 2.31551 16.6758 2.73567C17.0429 3.50012 17.3729 4.2805 17.6562 5.05715C18.2615 4.58076 18.9256 4.12665 19.6784 3.67254C19.4662 2.59243 19.2222 1.78872 19.1256 1.48951C19.1214 1.47943 19.1198 1.47307 19.1172 1.4667C19.0588 1.3118 18.9633 1.23169 18.8296 1.23169Z" fill="#C6C6C6"/>
<path d="M10.7378 1.23169C10.6073 1.23169 10.5108 1.3118 10.4514 1.46617C10.4498 1.47254 10.4482 1.4789 10.4439 1.48898C10.3474 1.78819 10.1034 2.5919 9.89062 3.67201C10.6434 4.12612 11.3065 4.5797 11.9118 5.05662C12.1813 4.30278 12.5113 3.52188 12.8938 2.73514C12.4938 2.40251 12.0959 2.09535 11.7124 1.82002C11.2413 1.48209 10.9368 1.29429 10.9331 1.29376L10.9315 1.29164L10.9299 1.29111C10.8848 1.25928 10.8413 1.24124 10.7973 1.23646H10.7951H10.7941C10.775 1.23328 10.7559 1.23169 10.7378 1.23169Z" fill="#C6C6C6"/>
<path d="M3.94216 6.28857C3.53314 6.28857 3.29813 6.30025 3.29495 6.30025C3.13368 6.30979 2.98566 6.39839 2.88752 6.54269C2.8297 6.62916 2.79999 6.73526 2.80529 6.84242C2.83394 7.12412 3.02068 8.14109 4.23553 9.67266C4.85834 9.36338 5.47638 9.09229 6.07426 8.86417C5.95065 8.10078 5.87691 7.26735 5.85516 6.38407C5.11192 6.31457 4.52678 6.29388 4.16179 6.2891C4.08434 6.28857 4.01113 6.28857 3.94216 6.28857Z" fill="#C6C6C6"/>
<path d="M25.6243 6.28857C25.5564 6.28857 25.4837 6.28857 25.4047 6.2891C25.0402 6.29388 24.4551 6.31351 23.7113 6.38407C23.6922 7.23499 23.6174 8.06788 23.4922 8.86417C24.0906 9.09176 24.7092 9.36284 25.3314 9.67266C26.549 8.13685 26.7352 7.11775 26.7638 6.8403C26.7728 6.74587 26.7208 6.60104 26.68 6.54322C26.5813 6.39892 26.4338 6.31033 26.272 6.30025C26.271 6.30025 26.0306 6.28857 25.6243 6.28857Z" fill="#C6C6C6"/>
<path d="M23.3906 9.43164C23.1413 10.6842 22.7524 11.7791 22.2336 12.6873C21.6925 13.6385 21.0156 14.359 20.2188 14.8354C25.9991 14.5218 27.631 12.6619 27.8007 12.4465L27.8012 12.4454C27.8585 12.3579 27.8872 12.2619 27.8872 12.159C27.8872 11.9929 27.8097 11.8306 27.684 11.7367C27.684 11.7367 27.6166 11.6921 27.4957 11.6099L27.4941 11.6088L27.492 11.6072C27.4012 11.5388 27.2681 11.4518 27.1015 11.3415C27.0569 11.3128 27.0092 11.2826 26.962 11.2507C26.5477 10.985 25.8819 10.5828 25.066 10.1738C24.501 9.88894 23.9381 9.6396 23.3906 9.43164Z" fill="#C6C6C6"/>
<path d="M6.17783 9.43164C4.2277 10.1701 2.65847 11.1982 2.06855 11.6099C1.95078 11.6921 1.88393 11.7377 1.88181 11.7399C1.75767 11.8306 1.67969 11.9929 1.67969 12.159C1.67969 12.2613 1.70833 12.3568 1.76457 12.4433C1.76987 12.4497 1.77306 12.4545 1.77571 12.4592C1.78738 12.472 1.79905 12.4863 1.81337 12.5038C1.81974 12.5117 1.82717 12.5208 1.83619 12.5308C1.87544 12.5749 1.96828 12.6698 2.11258 12.7924C2.35608 12.9998 2.79269 13.3133 3.49719 13.6306C4.95237 14.2905 6.97094 14.707 9.34865 14.8407C8.56086 14.3653 7.86908 13.6285 7.3338 12.6868C6.8155 11.7791 6.42611 10.6847 6.17783 9.43164Z" fill="#C6C6C6"/>
<path d="M22.6667 15.2593C22.3702 15.2593 21.9331 15.3192 21.2694 15.411C21.1702 15.4243 21.0683 15.4375 20.9601 15.4534C20.671 15.4948 20.3177 15.5134 19.8482 15.5134C19.5606 15.5134 19.2646 15.507 18.9484 15.4996L18.9193 15.4985C18.6195 15.4922 18.28 15.4842 17.9394 15.4842C17.2307 15.4842 16.3155 15.5134 15.5081 15.7383C15.4673 15.7505 15.4376 15.7946 15.4418 15.8221C15.4461 15.8487 15.4959 15.8577 15.5373 15.8577C15.549 15.8577 15.5628 15.8572 15.5755 15.8556C15.8949 15.8274 16.2052 15.8131 16.497 15.8131C17.5495 15.8131 18.2689 15.9946 18.9659 16.1702C19.6185 16.3357 20.237 16.4911 21.0959 16.4911C22.0116 16.4911 22.7378 16.2964 23.036 15.9691C23.1357 15.8598 23.1803 15.7399 23.1697 15.6126C23.1453 15.368 23.0673 15.2593 22.6667 15.2593Z" fill="#C6C6C6"/>
<path d="M6.90215 15.2593C6.50321 15.2593 6.42522 15.368 6.40029 15.6137C6.38862 15.7389 6.43212 15.8587 6.53079 15.9675C6.8231 16.2911 7.56846 16.4911 8.47509 16.4911C9.33398 16.4911 9.95148 16.3357 10.6056 16.1702C11.3016 15.994 12.0204 15.8131 13.0746 15.8131C13.3647 15.8131 13.6762 15.8274 13.9955 15.8556C14.0093 15.8572 14.022 15.8577 14.0332 15.8577C14.0756 15.8577 14.1255 15.8487 14.1297 15.8221C14.1334 15.7946 14.1053 15.7505 14.0629 15.7383C13.2565 15.5134 12.3403 15.4842 11.6332 15.4842C11.2926 15.4842 10.952 15.4922 10.6523 15.4985L10.6231 15.4996C10.3085 15.507 10.0114 15.5134 9.72337 15.5134C9.25493 15.5134 8.90109 15.4948 8.60931 15.4534C8.50055 15.4381 8.39392 15.4237 8.29419 15.4094C7.63265 15.3192 7.19605 15.2593 6.90215 15.2593Z" fill="#C6C6C6"/>
<path d="M37.3975 12.9648H35.1641V11.8179H40.8765V12.9648H38.6431V18.8577H37.3975V12.9648Z" fill="#5B5B5B"/>
<path d="M40.9068 13.5489H42.1222V14.7463C42.4553 13.951 43.0691 13.4083 44.0023 13.4486V14.7362H43.9328C42.8665 14.7362 42.1216 15.4295 42.1216 16.8375V18.8587H40.9062L40.9068 13.5489Z" fill="#5B5B5B"/>
<path d="M44.043 17.3298V17.3091C44.043 16.1627 44.9379 15.5987 46.2355 15.5987C46.8281 15.5987 47.2515 15.6895 47.6642 15.8205V15.6895C47.6642 14.9356 47.2011 14.5335 46.3469 14.5335C45.7538 14.5335 45.3114 14.6645 44.8271 14.8656L44.5061 13.9096C45.0902 13.6481 45.6626 13.4778 46.5072 13.4778C47.3019 13.4778 47.8966 13.6895 48.2679 14.0704C48.6605 14.4528 48.8409 15.0157 48.8409 15.7101V18.8576H47.6541V18.1945C47.2928 18.6269 46.7395 18.9685 45.9257 18.9685C44.9284 18.9685 44.043 18.3956 44.043 17.3298ZM47.6833 16.9473V16.586C47.3719 16.4651 46.9607 16.3743 46.4764 16.3743C45.6918 16.3743 45.2302 16.7064 45.2302 17.2592V17.2794C45.2302 17.7924 45.6838 18.0836 46.2653 18.0836C47.0695 18.0831 47.6833 17.621 47.6833 16.9473Z" fill="#5B5B5B"/>
<path d="M49.8867 13.5489H51.1032V14.3632C51.4459 13.8703 51.9382 13.438 52.7631 13.438C53.9599 13.438 54.6533 14.2422 54.6533 15.4693V18.8587H53.4358V15.8417C53.4358 15.0168 53.0241 14.5446 52.2984 14.5446C51.5955 14.5446 51.1032 15.0364 51.1032 15.8613V18.8581H49.8867V13.5489Z" fill="#5B5B5B"/>
<path d="M55.2773 18.1646L55.8185 17.3397C56.4025 17.7721 57.0142 17.9933 57.5585 17.9933C58.0821 17.9933 58.384 17.7721 58.384 17.4203V17.4002C58.384 16.9869 57.819 16.8474 57.1967 16.6559C56.4132 16.4347 55.5389 16.1132 55.5389 15.0967V15.0771C55.5389 14.0707 56.3728 13.458 57.4275 13.458C58.0917 13.458 58.8163 13.6898 59.3797 14.0612L58.8964 14.9264C58.3845 14.6145 57.8413 14.4235 57.3967 14.4235C56.9251 14.4235 56.654 14.6442 56.654 14.9466V14.9662C56.654 15.3588 57.2269 15.519 57.8498 15.7206C58.6248 15.962 59.4991 16.3137 59.4991 17.2691V17.2893C59.4991 18.406 58.6354 18.9588 57.5283 18.9588C56.775 18.9588 55.9399 18.6882 55.2773 18.1646Z" fill="#5B5B5B"/>
<path d="M60.3359 13.5483H61.5524V14.4332C61.9444 13.8804 62.4983 13.438 63.3603 13.438C64.6086 13.438 65.8267 14.4237 65.8267 16.1934V16.2131C65.8267 17.9738 64.6176 18.969 63.3603 18.969C62.4786 18.969 61.9237 18.5266 61.5524 18.0343V20.4677H60.3359V13.5483ZM64.5885 16.2131V16.1934C64.5885 15.1669 63.8962 14.4937 63.0686 14.4937C62.2442 14.4937 61.5227 15.1775 61.5227 16.1934V16.2131C61.5227 17.23 62.2442 17.9133 63.0686 17.9133C63.9052 17.9133 64.5885 17.2592 64.5885 16.2131Z" fill="#5B5B5B"/>
<path d="M66.3789 16.2337V16.2131C66.3789 14.6948 67.5837 13.438 69.2139 13.438C70.8436 13.438 72.0399 14.6751 72.0399 16.1934V16.2131C72.0399 17.7229 70.8335 18.9791 69.1938 18.9791C67.5725 18.9791 66.3789 17.742 66.3789 16.2337ZM70.8224 16.2337V16.2131C70.8224 15.2783 70.1492 14.5038 69.1938 14.5038C68.2187 14.5038 67.5964 15.2682 67.5964 16.1934V16.2131C67.5964 17.1393 68.2691 17.9133 69.2139 17.9133C70.1996 17.9133 70.8224 17.1489 70.8224 16.2337Z" fill="#5B5B5B"/>
<path d="M72.8672 13.5489H74.0831V14.7463C74.4147 13.951 75.0295 13.4083 75.9643 13.4486V14.7362H75.8932C74.8274 14.7362 74.0831 15.4295 74.0831 16.8375V18.8587H72.8672V13.5489Z" fill="#5B5B5B"/>
<path d="M76.8589 17.3901V14.5948H76.1836V13.5476H76.8589V12.0903H78.077V13.5482H79.5046V14.5954H78.077V17.1991C78.077 17.6712 78.3173 17.8622 78.73 17.8622C79.0016 17.8622 79.2425 17.8028 79.4833 17.6818V18.6776C79.1836 18.8484 78.8494 18.9492 78.3873 18.9492C77.4924 18.9492 76.8589 18.5572 76.8589 17.3901Z" fill="#5B5B5B"/>
<path d="M35.7959 24.6509H35.1211V23.6344H35.7959V23.2429C35.7959 22.6594 35.9481 22.2169 36.2277 21.9347C36.51 21.6541 36.9025 21.5129 37.4256 21.5129C37.8468 21.5129 38.1381 21.5734 38.4107 21.6541V22.68C38.1678 22.5989 37.9577 22.549 37.6962 22.549C37.2346 22.549 36.9927 22.7994 36.9927 23.3538V23.645H38.3996V24.6509H37.0102V28.9145H35.7943V24.6509H35.7959Z" fill="#5B5B5B"/>
<path d="M38.4102 26.2901V26.27C38.4102 24.7511 39.616 23.4944 41.2462 23.4944C42.8765 23.4944 44.0722 24.731 44.0722 26.2498V26.27C44.0722 27.7793 42.8664 29.035 41.2245 29.035C39.607 29.035 38.4102 27.7984 38.4102 26.2901ZM42.8552 26.2901V26.27C42.8552 25.3347 42.1815 24.5602 41.2245 24.5602C40.2499 24.5602 39.6261 25.3252 39.6261 26.2498V26.27C39.6261 27.1952 40.3003 27.9697 41.2457 27.9697C42.2314 27.9697 42.8552 27.2053 42.8552 26.2901Z" fill="#5B5B5B"/>
<path d="M44.8086 23.6043H46.025V24.8016C46.3582 24.0064 46.9709 23.4642 47.9067 23.504V24.791H47.8372C46.7693 24.791 46.025 25.4854 46.025 26.8934V28.9141H44.8086V23.6043Z" fill="#5B5B5B"/>
<path d="M51.2031 21.8748H52.3495L56.122 26.7427V21.8748H57.3379V28.914H56.3007L52.419 23.9066V28.914H51.2031V21.8748Z" fill="#5B5B5B"/>
<path d="M58.0742 27.8885L58.8185 27.0042C59.4917 27.5883 60.1755 27.9193 61.0408 27.9193C61.8053 27.9193 62.287 27.558 62.287 27.0349V27.0148C62.287 26.5124 62.0047 26.2402 60.6976 25.9384C59.1994 25.576 58.3543 25.1341 58.3543 23.8371V23.8169C58.3543 22.6089 59.3607 21.7739 60.7591 21.7739C61.784 21.7739 62.5978 22.0864 63.3135 22.6604L62.6493 23.5951C62.0159 23.1219 61.3835 22.8705 60.7395 22.8705C60.0143 22.8705 59.5909 23.2429 59.5909 23.7055V23.7257C59.5909 24.2689 59.9135 24.5103 61.271 24.8312C62.758 25.1951 63.5251 25.7267 63.5251 26.8938V26.9134C63.5251 28.2312 62.4885 29.0153 61.0106 29.0153C59.9342 29.0153 58.9183 28.6434 58.0742 27.8885Z" fill="#5B5B5B"/>
<path d="M63.5859 21.8749H64.9223L66.6008 27.095L68.3324 21.8552H69.379L71.1069 27.095L72.7849 21.8749H74.0846L71.6406 28.9656H70.5642L68.8342 23.9067L67.1058 28.9656H66.0385L63.5859 21.8749Z" fill="#5B5B5B"/>
</svg>
