<svg width="37" height="40" viewBox="0 0 37 40" fill="none" xmlns="http://www.w3.org/2000/svg">
<mask id="mask0_148_4562" style="mask-type:luminance" maskUnits="userSpaceOnUse" x="0" y="0" width="37" height="40">
<path d="M36.7973 0H0.640625V40H36.7973V0Z" fill="white"/>
</mask>
<g mask="url(#mask0_148_4562)">
<path d="M5.29692 35.1678C5.23776 34.9792 5.06498 34.5553 5.01792 34.2424C4.91406 33.5493 5.27641 33.0928 5.60919 32.9883C5.98263 32.8841 6.12851 33.0716 6.27305 33.5076C6.45994 34.1715 6.48078 35.0414 6.41792 36.2868C6.33624 37.9879 5.48515 40.0424 3.36952 39.9997C1.5433 39.9597 0.735235 38.7768 0.651202 36.9721C0.611538 36.1214 0.672378 35.271 1.02465 34.0683C1.21154 33.4242 1.37826 33.195 1.95809 33.0716C2.41389 32.9883 2.37288 33.4649 2.26969 34.0269C2.04246 35.271 1.93692 35.8716 2.02095 37.2831C2.10229 38.7769 2.78834 39.358 3.53524 39.358C4.65557 39.3795 5.15305 38.4461 5.36145 37.0962C5.52582 36.0179 5.40179 35.4992 5.29692 35.1678ZM29.184 36.6411C29.6203 36.6411 29.7453 37.157 29.6411 37.4696C29.5369 37.7802 29.1641 38.1345 28.5836 38.2377C28.4586 37.9258 28.3961 36.6411 29.184 36.6411ZM21.0744 37.3442C21.0744 36.993 20.8865 36.7022 20.6603 36.7022C20.4714 36.7022 20.0374 36.909 20.0374 37.5732C20.0374 38.0935 20.2223 38.3402 20.307 38.4461C20.907 38.2585 21.0744 37.7594 21.0744 37.3442ZM14.6213 33.113C14.592 32.7802 14.3312 32.5537 13.9783 32.5537C13.5846 32.5537 13.2139 32.9668 13.2532 33.4858C13.2784 33.8279 13.4801 34.1093 13.8764 34.1093C14.3312 34.1096 14.663 33.591 14.6213 33.113ZM17.9951 34.3315C17.9591 33.7513 17.8186 33.4895 17.507 33.511C17.0939 33.5358 16.903 34.8357 16.9873 36.2021C17.0411 37.0935 17.1739 37.231 17.2976 37.2222C17.5262 37.2084 18.0744 35.6158 17.9951 34.3315ZM31.7567 36.5153C31.4996 37.5819 30.7201 39.151 29.5571 39.151C29.2878 39.151 28.8105 39.0464 28.8105 38.7769C28.8105 38.4861 30.6374 38.4461 30.6374 37.0552C30.6374 36.5372 30.1604 35.8101 29.4546 35.8101C28.5211 35.8101 27.6105 36.8276 27.6105 38.238C27.6105 39.5026 28.3961 39.9177 29.1843 39.9177C30.5541 39.9177 31.384 38.7967 31.8193 37.8639C32.0277 38.4864 32.15 39.9177 32.6707 39.9177C32.8774 39.9177 33.0236 39.8138 33.2727 39.2545C33.8936 37.8636 34.4959 36.2663 35.3262 36.2663C35.6364 36.2663 35.4505 36.8276 36.1971 36.8276C36.549 36.8276 36.7971 36.5372 36.7971 36.2037C36.7971 35.7261 36.3621 35.354 35.6989 35.354C33.7483 35.354 33.3349 38.2794 33.0233 38.2794C32.5043 38.2794 32.6704 35.9348 32.2962 35.9348C31.9641 35.9345 31.8011 36.3301 31.7567 36.5153ZM15.1611 39.0044C15.472 39.0044 16.0068 38.9036 16.4277 38.2296C16.187 37.6952 16.0152 36.6152 15.9914 36.2219C15.8677 34.2108 16.6425 32.319 17.4905 32.2666C18.1124 32.229 18.6099 32.8175 18.667 33.7711C18.8199 36.277 17.9853 37.3231 17.5675 38.2256C17.6381 38.5755 18.2317 39.1711 18.7917 39.1711C18.9984 39.1711 19.2485 39.0673 19.3114 38.9832C19.2697 38.839 19.2273 38.6525 19.2273 38.3819C19.2273 36.9298 20.1611 35.7053 20.9705 35.7053C21.6136 35.7053 21.987 36.5557 21.987 37.117C21.987 37.7799 21.4263 38.3204 20.5971 38.839C20.743 38.9832 21.0112 39.0881 21.2404 39.0881C22.424 39.0881 23.0431 37.6562 23.5016 36.3486C23.5843 36.0992 23.7305 35.7473 24.0203 35.7473C24.5181 35.7473 24.7265 39.0253 25.5541 39.0253C25.908 39.0253 26.1978 38.2985 26.1978 37.7399C26.1978 37.3244 26.0525 37.2827 26.0525 36.6811C26.0525 36.0179 26.4055 35.4582 26.8838 35.4582C27.1739 35.4582 27.2788 35.7473 27.2788 36.0992C27.2788 37.4273 26.3231 39.8965 24.9144 39.8965C23.8546 39.8965 23.9373 38.0706 23.5641 38.0706C23.1473 38.0706 22.5665 39.917 20.5147 39.917C20.1813 39.917 19.8294 39.7513 19.5396 39.4185C19.0425 39.7513 18.6263 39.8965 18.149 39.8965C17.3823 39.8965 17.0495 39.1079 16.7393 39.1079C16.3652 39.1079 15.9514 39.917 14.7053 39.917C13.7097 39.917 13.5436 38.5906 13.1917 38.5906C12.8798 38.5906 12.4028 39.917 11.8845 39.917C11.0119 39.917 10.827 37.6148 10.0579 37.6148C9.45658 37.6148 7.55574 39.953 7.03977 39.8995C6.83238 39.878 6.74498 39.7231 6.76683 39.5153C6.79608 39.2283 7.04313 38.4599 7.1433 38.0965C7.31103 37.4656 7.46498 36.7742 7.55103 36.5537C7.63641 36.3311 7.86666 36.1725 8.05154 36.1896C8.14465 36.1984 8.17255 36.3721 8.20145 36.5157C8.30633 37.0286 8.45255 37.5516 8.61759 37.5516C8.90902 37.5516 9.87137 35.7049 10.4314 35.7049C11.1171 35.7049 11.1991 38.6101 12.1322 38.6101C12.4441 38.6101 12.6731 38.2374 12.8798 37.7795C12.9009 37.0108 13.1083 35.9137 13.7305 35.9137C14.1665 35.9137 14.3742 36.8878 14.062 37.7395C14.0613 38.7553 14.7245 39.0044 15.1611 39.0044Z" fill="#575757"/>
</g>
<path d="M29.6122 6.47174C29.4582 6.47174 29.2377 6.47174 29.1164 6.23006C29.0169 6.03174 29.0505 5.71208 28.8633 5.56922C29.0505 5.62401 29.2485 5.62401 29.4024 5.62401C29.8986 5.62401 30.3725 5.28283 30.7362 5.28283C30.9759 5.28283 31.0532 5.43712 31.0532 5.59073C31.0535 6.07578 30.0754 6.47174 29.6122 6.47174ZM29.8542 7.71578C30.9981 7.71578 32.0455 6.80216 32.0455 5.9988C32.0455 5.62401 31.8687 5.31611 31.4172 5.26099C31.4942 5.36015 31.5271 5.43712 31.5271 5.61326C31.5271 6.21897 30.6045 6.89057 29.6014 6.89057C29.2377 6.89057 29.1275 7.14334 29.1275 7.27544C29.1275 7.58401 29.4253 7.71578 29.8542 7.71578ZM29.7665 8.1783C29.91 9.22368 31.4942 10.6331 31.9235 10.5998C32.2105 10.5756 32.3204 9.23477 32.3204 8.1783C32.3204 7.57292 32.3537 7.09931 32.034 6.98905C31.5268 8.01325 30.1964 8.22233 29.7665 8.1783Z" fill="#575757"/>
<path d="M4.98687 15.1024C5.36065 15.1024 5.28368 12.8123 5.88905 12.8123C6.03258 12.8123 6.07662 12.9555 6.07662 13.1316C6.07662 13.649 5.82317 14.409 5.82317 14.8268C5.82317 15.0362 5.8783 15.1024 5.97746 15.1024C6.242 15.1024 6.70418 12.5811 7.15527 12.5811C7.29847 12.5811 7.36435 12.7242 7.36435 12.8674C7.36435 13.3958 6.69342 14.9148 6.69342 15.3441C6.69342 15.4103 6.71494 15.4651 6.7704 15.4651C7.04569 15.4651 7.59595 14.2765 7.77174 13.6822C7.8709 13.3737 8.003 13.2083 8.12435 13.2083C8.23426 13.2083 8.33376 13.3296 8.33376 13.5831C8.33376 14.1774 7.78284 15.5753 7.29847 16.5115C6.92468 17.2379 6.34116 18.2829 6.34116 18.8664C6.34116 19.1639 6.39527 19.4718 6.82485 19.8463C6.12031 19.8022 5.83426 19.7363 5.5704 19.1861C4.39225 21.5306 7.7388 21.2997 6.59393 23.3794C6.38452 23.0059 4.73376 22.6204 4.73376 20.4409C4.73376 18.5585 6.38452 17.4577 6.38452 16.6765C6.38452 16.5226 6.33006 16.3905 6.18687 16.2695C5.82317 15.9606 5.81208 15.7081 5.52603 15.7081C5.31729 15.7081 5.06317 16.1921 5.32771 16.6214C5.41611 16.7646 5.49309 16.8527 5.49309 16.9848C5.49309 17.2927 5.00838 18.1179 4.66754 18.1179C4.32603 18.1179 4.0625 17.2715 4.0625 15.9058C4.0625 14.6943 4.33712 13.4732 4.67863 13.4732C4.77746 13.4732 4.8104 13.539 4.8104 13.6274C4.8104 13.7706 4.7667 14.0563 4.7667 14.5407C4.7667 15.058 4.88771 15.1024 4.98687 15.1024Z" fill="#575757"/>
<path d="M7.79418 18.3273C8.25703 18.3273 8.64191 17.9854 8.64191 17.2271V16.1037C8.64191 15.6745 8.67519 15.1905 8.96157 14.8486C8.92829 14.9921 8.92829 15.1461 8.92829 15.2893C8.92829 16.2362 9.45636 16.8859 9.45636 17.7992C9.45636 18.14 9.3572 18.3276 9.09367 18.3276C8.84023 18.3276 8.86241 18.0963 8.80695 18.0963C8.76325 18.0963 8.69703 18.2392 8.69703 18.3935C8.69703 18.6247 8.86208 18.9878 9.32426 18.9878C9.7209 18.9878 10.0396 18.6247 10.0396 18.2174C10.0396 17.2274 9.26914 16.1259 9.26914 15.0695C9.26914 14.6069 9.39014 14.299 9.4893 14.0563C9.4893 16.2473 11.3495 17.8432 11.3495 18.7565C11.3495 18.9659 11.1955 19.1313 10.9643 19.1313C10.7112 19.1313 10.5898 18.9326 10.5898 18.7784C10.5898 18.7014 10.5787 18.6795 10.5458 18.6795C10.4802 18.6795 10.2819 18.8997 10.2819 19.1864C10.2819 19.5491 10.5787 19.9901 11.1293 19.9901C11.7562 19.9901 12.0977 19.4611 12.0977 18.9878C12.0977 17.8325 9.84124 16.0819 9.84124 14.211C9.84124 13.8913 9.89569 13.374 10.1276 12.978C8.67451 13.9132 8.22342 15.1575 8.22342 16.2473C8.22342 17.1942 8.19048 17.6668 7.70611 17.6668C7.45266 17.6668 7.38678 17.4362 7.29838 17.4362C7.2325 17.4362 7.19922 17.6342 7.19922 17.689C7.19989 18.096 7.49737 18.3273 7.79418 18.3273Z" fill="#575757"/>
<path d="M24.4725 5.93256C24.6123 5.83877 25.2328 5.98735 26.0352 5.59071C26.134 5.53659 26.2331 5.5144 26.3212 5.5144C26.7071 5.5144 26.6079 5.9544 26.9605 5.9544C27.2352 5.9544 27.5884 5.72314 27.7978 5.72314C28.1259 5.72314 28.5995 6.7581 28.5995 7.24247C28.5995 7.80382 27.7535 8.14533 26.7511 8.14533C25.2879 8.14533 24.4062 6.86835 24.4062 6.04247C24.4066 5.97659 24.4399 5.9544 24.4725 5.93256ZM26.8725 7.33054C27.3572 7.33054 27.7205 7.11037 27.7205 6.97793C27.7205 6.93457 27.6547 6.90129 27.5111 6.90129C27.3679 6.90129 27.0815 6.89054 26.5417 6.80214C26.0785 6.72516 25.7263 6.54903 25.5942 6.54903C25.5501 6.54903 25.5279 6.57087 25.5279 6.60382C25.5279 6.89054 26.057 7.33054 26.8725 7.33054Z" fill="#575757"/>
<path d="M8.02502 22.4773C7.66199 22.5657 7.07812 23.1372 7.07812 24.041C7.07812 25.119 8.23409 26.7819 10.1383 26.7819C11.745 26.7819 12.1417 25.6699 12.1417 24.9207C12.1417 23.2589 11.1185 22.0918 9.7867 22.0918C9.05997 22.0918 8.41023 22.6202 8.41023 23.4014C8.41023 24.1288 8.96081 25.2182 10.2704 25.2182C10.8869 25.2182 11.2499 24.7772 11.2499 24.2723C11.2499 23.7765 10.7988 23.0945 10.138 23.0945C9.93997 23.0945 9.79712 23.2252 9.79712 23.4353C9.79712 23.6989 10.1598 23.9637 10.6116 23.9637C10.7212 23.9637 10.8096 23.9415 10.8539 23.9194C10.8754 23.9533 10.8869 24.0078 10.8869 24.0518C10.8869 24.3052 10.6445 24.4595 10.2704 24.4595C9.70905 24.4595 9.16955 24.0414 9.16955 23.3795C9.16955 22.9842 9.51107 22.6982 10.0062 22.6982C10.9857 22.6982 11.5689 23.5674 11.5689 24.4377C11.5689 25.2185 11.1403 25.6706 10.2593 25.6706C8.49796 25.6703 7.64014 24.0847 8.02502 22.4773Z" fill="#575757"/>
<path d="M20.592 28.9271C21.1201 28.9271 21.0925 28.883 21.2579 28.883C21.4226 28.883 21.434 28.9822 21.434 29.0484C21.434 29.2908 20.8942 29.5879 19.9365 29.5879C19.3752 29.5879 19.0337 29.2904 18.9349 28.9604C18.3846 29.3126 17.5483 29.632 16.7224 29.632C14.4663 29.632 13.8939 28.6514 13.189 28.3331C12.6495 28.0908 11.8239 28.5644 10.668 27.2763C10.8223 27.3096 11.0317 27.3204 11.1967 27.3204C12.2088 27.3204 12.7483 26.8259 12.7483 26.0326C12.7483 25.9331 12.7372 25.8242 12.7261 25.7254C13.0347 25.8464 13.7396 26.3741 13.9049 27.3096C13.9265 27.4199 14.3775 27.5187 14.6639 27.5187C15.0606 27.5187 15.5668 27.3533 15.6438 26.7046C16.9648 26.5946 17.8569 25.8135 18.0441 24.8215C18.5167 24.9758 19.0562 25.4051 19.1883 25.6259C19.3755 25.56 19.5954 25.5267 19.8485 25.5267C20.2007 25.5267 20.5974 25.593 21.0703 25.7362C21.0925 25.593 21.1144 25.4168 21.3349 25.4168C21.6649 25.4168 21.5769 25.7802 21.6871 25.9883C21.7423 26.0985 22.0179 26.1644 22.0179 26.3849C22.0179 26.5946 21.8407 26.672 21.7308 26.672C21.6868 26.672 21.6317 26.6609 21.5984 26.6501C21.3786 26.7271 21.3671 28.3113 20.4428 28.3113C19.7607 28.3113 19.1332 27.7499 18.8575 27.0461C18.7806 26.837 18.6155 26.7046 18.4612 26.7046C18.2854 26.7046 18.1863 26.7378 17.9775 26.9691C17.3833 27.6178 16.3923 28.1792 15.1705 28.1792C14.796 28.1792 14.4989 28.1456 14.4216 28.1456C14.3772 28.1456 14.3772 28.1567 14.3772 28.1674C14.3772 28.2447 14.7513 28.5422 15.5661 28.5422C17.5036 28.5422 17.9772 27.4521 18.2851 27.4521C18.3298 27.4521 18.4609 27.4521 18.5379 27.6286C18.99 28.6847 19.9755 28.9271 20.592 28.9271ZM19.7386 26.7271C19.7386 26.9694 19.9369 27.1678 20.1792 27.1678C20.4216 27.1678 20.6196 26.9694 20.6196 26.7271C20.6196 26.4844 20.4216 26.2861 20.1792 26.2861C19.9369 26.2861 19.7386 26.4844 19.7386 26.7271Z" fill="#575757"/>
<path d="M28.455 21.2334C28.3007 21.2334 28.1357 21.3547 28.1357 21.6525C28.1357 21.9816 28.3891 22.1913 28.532 22.2569C28.6093 22.3016 28.7306 22.3456 28.8506 22.3456C29.1703 22.3456 29.4241 22.2569 29.4241 21.9924C29.4238 21.6525 28.9276 21.2334 28.455 21.2334ZM27.2675 21.9154C27.0362 21.9154 25.7575 23.6216 24.9337 23.6216C24.7357 23.6216 24.5703 23.2475 24.5703 22.9624C24.5703 22.8082 24.6691 22.6979 25.0224 22.6203C26.9152 22.191 26.4964 20.7705 28.1132 20.7705C29.0046 20.7705 29.9969 21.3769 29.9969 22.7413C29.9969 24.1944 27.9286 25.9991 27.6201 25.9991C27.3666 25.9991 27.0913 25.6361 27.0913 25.394C27.0913 25.3171 27.1246 25.2179 27.3448 25.1298C28.4002 24.711 29.0049 23.7426 29.0049 23.2468C29.0049 23.1366 28.9501 23.0277 28.807 23.0277C28.6201 23.0277 27.8187 24.8542 26.9259 24.8542C26.3085 24.8542 25.6806 24.2942 25.6806 24.0293C25.6806 23.5883 27.4658 22.7745 27.4658 22.1574C27.4654 21.9258 27.3555 21.9154 27.2675 21.9154Z" fill="#575757"/>
<path d="M5.48375 7.48499C5.48375 7.48499 5.16476 7.72667 4.76846 7.72667C4.29551 7.72667 3.92106 7.37474 3.92106 6.87928C3.92106 6.53776 4.0972 6.18583 4.50425 6.00936C4.4935 6.07558 4.4935 6.13037 4.4935 6.19659C4.49316 6.82449 4.84543 7.29743 5.48375 7.48499ZM7.83938 9.5986C7.59736 9.88432 7.34392 10.369 7.34392 10.8641C7.34392 11.4584 7.70762 11.9536 8.26896 11.9536C8.80812 11.9536 9.06156 11.4914 9.06156 11.0184C9.06156 10.281 8.38997 9.76297 7.83938 9.5986ZM4.18526 10.0386C4.16442 10.0726 4.15199 10.1159 4.15199 10.1599C4.15199 10.2591 4.26224 10.369 4.36072 10.369C4.44879 10.369 4.50392 10.3472 4.54795 10.3472C4.81182 10.3472 5.1093 10.5341 5.53854 10.5341C5.79131 10.5341 6.08879 10.4568 6.46291 10.2702C7.25551 9.87356 7.56409 8.89407 7.56409 8.72869C7.56409 8.51928 7.39602 8.54684 7.25551 8.35423C7.11501 8.1623 7.16879 7.99255 7.07938 7.9028C7.02862 7.85138 6.87064 7.84801 6.67199 7.82583C6.60577 7.81877 6.5177 7.81474 6.42963 7.81474C6.06694 7.81474 5.63635 7.85944 5.15299 8.16734C4.19837 8.77675 4.33888 9.78549 4.18526 10.0386ZM6.77182 8.67356C6.84812 8.77743 7.05854 8.90516 7.05854 8.98213C7.05854 9.13575 6.9698 9.3344 6.794 9.3344C6.40846 9.3344 6.10056 8.75087 6.10056 8.42012C6.10056 8.21138 6.2219 8.18953 6.38661 8.18953C6.46358 8.18953 6.49686 8.20062 6.55165 8.23356C6.65047 8.28869 6.65047 8.50852 6.77182 8.67356ZM5.75871 10.0168C5.39568 10.0168 4.99938 9.56566 4.99938 9.15793C4.99938 8.9381 5.16442 8.66247 5.28543 8.66247C5.32946 8.66247 5.35165 8.69575 5.36241 8.77306C5.42829 9.31222 5.78089 9.62079 6.11131 9.7744C6.14425 9.79625 6.16644 9.80734 6.16644 9.82919C6.16644 9.9065 5.95703 10.0168 5.75871 10.0168ZM6.69484 7.24264C6.74963 7.06617 6.79367 6.84667 6.79367 6.60398C6.79367 6.07591 6.55098 5.27222 5.80274 5.27222C5.37383 5.27222 5.06493 5.61339 5.06493 6.02079C5.06493 6.8907 5.93484 7.24264 6.69484 7.24264ZM3.84375 11.6457C3.84375 12.482 4.0972 12.8786 4.54829 12.8786C4.90056 12.8786 5.37383 12.6252 5.93484 12.1408C5.50593 12.2399 5.17518 12.3062 4.87837 12.3062C4.48207 12.3062 4.17417 12.1519 3.84375 11.6457ZM4.2293 10.6658C4.21854 10.7213 4.21854 10.7761 4.21854 10.8309C4.21854 11.3482 4.49316 11.6346 4.85652 11.6346C5.13081 11.6346 5.45081 11.4695 5.73619 11.1058C5.61585 11.1277 5.47232 11.1388 5.34022 11.1388C4.9335 11.1388 4.49316 11.0292 4.2293 10.6658ZM6.9261 10.5119C6.67232 10.5778 6.14425 10.886 6.14425 11.4362C6.14425 11.8322 6.45215 12.086 6.8377 12.086C7.03602 12.086 7.17888 12.0416 7.26694 11.9757C6.95904 11.6786 6.84879 11.3482 6.84879 11.0184C6.84879 10.7868 6.88173 10.644 6.9261 10.5119ZM7.32207 7.49575C7.32207 7.73776 7.52005 7.93642 7.76207 7.93642C8.00442 7.93642 8.20274 7.7381 8.20274 7.49575C8.20274 7.25373 8.00442 7.05507 7.76207 7.05507C7.52005 7.05507 7.32207 7.25373 7.32207 7.49575ZM7.89417 8.48633C7.89417 8.72869 8.09283 8.92701 8.33551 8.92701C8.5772 8.92701 8.77551 8.72869 8.77551 8.48633C8.77551 8.24465 8.5772 8.04633 8.33551 8.04633C8.09249 8.04633 7.89417 8.24465 7.89417 8.48633Z" fill="#575757"/>
<path d="M25.0668 13.8911C25.0668 13.6713 25.2651 13.4841 25.4826 13.4841C25.7253 13.4841 25.9125 13.6713 25.9125 13.8911C25.9125 14.1442 25.7249 14.3207 25.4826 14.3207C25.2651 14.3207 25.0668 14.1442 25.0668 13.8911ZM21.2019 10.5009C21.2019 10.7429 21.4006 10.9412 21.6419 10.9412C21.8849 10.9412 22.0833 10.7429 22.0833 10.5009C22.0833 10.2592 21.8846 10.0609 21.6419 10.0609C21.4006 10.0609 21.2019 10.2592 21.2019 10.5009ZM20.8281 12.0528C20.8281 12.3943 21.1135 12.68 21.4554 12.68C21.7962 12.68 22.0833 12.3943 22.0833 12.0528C22.0833 11.712 21.7962 11.4252 21.4554 11.4252C21.1135 11.4252 20.8281 11.712 20.8281 12.0528ZM22.2154 11.3483C22.2154 11.7231 22.5128 12.0199 22.8849 12.0199C23.2591 12.0199 23.5575 11.7231 23.5575 11.3483C23.5575 10.9741 23.2591 10.677 22.8849 10.677C22.5128 10.677 22.2154 10.9741 22.2154 11.3483ZM22.2708 9.91734C22.2708 10.1489 22.458 10.3365 22.6869 10.3365C22.9182 10.3365 23.1054 10.1489 23.1054 9.91734C23.1054 9.68675 22.9179 9.49953 22.6869 9.49953C22.458 9.49953 22.2708 9.68675 22.2708 9.91734ZM24.2624 8.86121C24.2624 9.09179 24.4496 9.27902 24.6812 9.27902C24.9125 9.27902 25.1001 9.09179 25.1001 8.86121C25.1001 8.62961 24.9125 8.44238 24.6812 8.44238C24.4496 8.44238 24.2624 8.62961 24.2624 8.86121ZM23.4362 10.2152C23.4362 10.6 23.7555 10.919 24.1411 10.919C24.5269 10.919 24.8466 10.6 24.8466 10.2152C24.8466 9.82927 24.5273 9.51062 24.1411 9.51062C23.7555 9.51062 23.4362 9.82927 23.4362 10.2152ZM22.3034 12.7906C22.3034 13.033 22.5017 13.2306 22.7421 13.2306C22.9844 13.2306 23.1831 13.033 23.1831 12.7906C23.1831 12.5483 22.9844 12.3503 22.7421 12.3503C22.5017 12.3503 22.3034 12.5483 22.3034 12.7906ZM23.7448 11.9096C23.7448 12.152 23.9427 12.3503 24.1858 12.3503C24.4278 12.3503 24.6261 12.152 24.6261 11.9096C24.6261 11.6679 24.4278 11.4696 24.1858 11.4696C23.9427 11.4696 23.7448 11.6679 23.7448 11.9096ZM23.3374 13.4619C23.3374 13.88 23.6785 14.2215 24.0974 14.2215C24.5159 14.2215 24.858 13.88 24.858 13.4619C24.858 13.0437 24.5159 12.7022 24.0974 12.7022C23.6785 12.7022 23.3374 13.0437 23.3374 13.4619ZM24.9233 12.5257C24.9233 12.8125 25.1548 13.0437 25.4392 13.0437C25.7256 13.0437 25.9569 12.8125 25.9569 12.5257C25.9569 12.24 25.7256 12.0088 25.4392 12.0088C25.1548 12.0088 24.9233 12.24 24.9233 12.5257ZM24.8903 11.1389C24.8903 11.3926 25.1001 11.6017 25.3505 11.6017C25.6043 11.6017 25.8137 11.3926 25.8137 11.1389C25.8137 10.8861 25.6043 10.677 25.3505 10.677C25.1001 10.677 24.8903 10.8861 24.8903 11.1389Z" fill="#575757"/>
<path d="M26.0112 25.5817C25.7248 25.8022 25.0552 26.2967 23.9423 26.2967C23.3476 26.2967 23.0831 26.1095 22.995 26.1095C22.8848 26.1095 22.7638 26.2194 22.6424 26.3629C22.3809 26.6715 22.0391 27.2439 22.0391 27.8708C22.0391 28.3108 22.3809 28.7505 23.0169 28.7505C25.0774 28.7505 26.6172 27.4631 26.6172 26.418C26.6172 25.8241 26.2649 25.5817 26.0112 25.5817ZM25.4387 25.4607C25.5278 25.3848 25.5486 25.2628 25.5486 25.1411V24.888C25.5486 24.5683 25.0663 24.3821 24.4051 24.3821C23.6007 24.3821 23.1712 24.7444 23.1712 24.8991V25.4053C23.1712 25.615 23.6562 25.8241 24.2512 25.8241C24.7248 25.8241 25.1544 25.7031 25.4387 25.4607ZM25.35 26.5505C25.4054 26.5505 25.471 26.5831 25.471 26.7817C25.471 27.0234 25.3614 27.3424 24.9668 27.5952C24.6915 27.7831 24.3167 27.9374 23.7661 27.9471C23.8542 27.6839 23.9204 27.408 23.9204 27.1451C23.9204 27.0567 23.9097 26.9905 23.8986 26.8917H24.0418C24.912 26.892 25.2868 26.5505 25.35 26.5505Z" fill="#575757"/>
<path d="M21.1457 13.0991C21.2667 14.0342 22.5228 13.561 22.5228 14.6944C22.5228 14.8598 22.4788 15.1025 22.4788 15.3112C22.4788 15.5536 22.5003 15.7627 22.6858 15.7627C22.8727 15.7627 22.9171 15.6309 22.9171 15.4544C22.9171 15.2779 22.8727 15.0581 22.8727 14.9371C22.8727 14.5516 23.1483 14.4638 23.3141 14.4638C23.7325 14.4638 24.0519 14.8931 24.6801 14.8931C24.5366 15.5976 23.0825 15.4104 23.0825 16.1811C23.0825 16.5667 23.468 16.6541 23.7215 16.6541C23.9527 16.6541 24.03 16.6211 24.03 16.4235C24.03 16.3129 24.0078 16.1919 24.0078 16.1149C24.0078 16.0705 24.0411 16.0265 24.0962 16.0265C24.3393 16.0265 25.5258 16.9294 25.5258 17.205C25.5258 17.4578 24.2724 17.7109 23.909 17.7109C23.7988 17.7109 23.7766 17.6339 23.7766 17.5899C23.7766 17.5129 23.9638 17.2816 23.9638 17.1499C23.9638 17.0507 23.7988 16.9845 23.3578 16.9845C23.1483 16.9845 22.9941 17.0067 22.9941 17.1721C22.9941 17.4685 23.4788 17.8322 23.4788 18.1069C23.4788 18.3274 23.3467 18.4595 22.9941 18.4595C22.6966 18.4595 22.2468 18.2279 22.2468 17.843C22.2468 17.5348 22.5645 17.2272 22.5645 17.0396C22.5645 16.9845 22.5225 16.8964 22.3904 16.8964C21.9823 16.8964 21.8724 17.9748 20.4297 18.0961C20.6609 17.887 20.8586 17.6558 20.8586 17.1832C20.8586 16.9519 20.8041 16.7643 20.8041 16.5116C20.8041 16.1811 20.9578 16.0158 21.1779 16.0158C21.585 16.0158 21.7833 16.5879 22.0485 16.5879C22.192 16.5879 22.346 16.4564 22.346 16.2581C22.346 15.4215 20.7383 15.5425 20.7383 14.3647C20.7386 14.0453 20.8482 13.649 21.1457 13.0991ZM26.3961 16.3243C26.3961 16.599 26.4848 16.9183 26.7601 16.9183C26.9914 16.9183 27.1894 16.5667 27.1894 16.1811C27.1894 15.7408 27.1124 15.3993 27.1124 15.2228C27.1124 15.1462 27.1457 15.1132 27.1894 15.1132C27.3547 15.1243 27.5087 15.5754 27.6855 15.5754C27.8838 15.5754 28.1793 15.2117 28.2999 15.2117C28.3332 15.2117 28.344 15.2561 28.344 15.2669C28.344 15.4322 28.0905 15.7959 28.0905 15.9388C28.0905 16.0598 28.7295 16.0816 28.7295 16.1919C28.7295 16.3573 28.0596 16.3573 27.7406 16.5005C27.4324 16.6322 27.2441 16.7973 27.2441 17.0178C27.2441 17.2379 27.4646 17.2816 27.7732 17.2816C28.5087 17.2816 29.0263 16.8857 29.1914 16.8857C29.2243 16.8857 29.2462 16.9072 29.2462 16.9405C29.2462 17.0507 28.872 17.4137 28.872 17.5791C28.872 17.766 29.5551 17.9855 29.544 18.0961C29.5332 18.129 29.4888 18.1398 29.4119 18.1398C29.2902 18.1398 29.1033 18.1069 28.9598 18.1069C28.8717 18.1069 28.7947 18.1176 28.7611 18.1616C28.6848 18.25 28.7833 18.8336 28.63 18.8336C28.4865 18.8336 28.112 17.5348 27.2663 17.5348C27.145 17.5348 27.0569 17.6339 27.0569 17.799C27.0569 18.239 27.4865 18.7452 27.8942 18.9875C28.0788 19.1089 28.3877 19.2299 28.3877 19.2964C28.3877 19.4279 27.6848 19.3072 27.6848 19.527C27.6848 19.7253 27.7729 20.0232 27.7729 20.1986C27.7729 20.2537 27.7618 20.3193 27.6959 20.3193C27.5638 20.3193 27.2438 19.7142 27.0899 19.7142C26.9578 19.7142 26.6714 20.0773 26.55 20.0773C26.5171 20.0773 26.4952 20.0443 26.4952 20.0117C26.4952 19.7583 26.903 19.1862 26.903 18.6245C26.903 18.3603 26.8697 17.7879 26.55 17.7879C26.2858 17.7879 25.988 18.206 25.8559 18.6245C25.7793 18.8665 25.8341 19.8023 25.6576 19.8023C25.4925 19.8023 25.5366 19.1751 25.3157 19.1751C25.1534 19.1751 24.8008 19.4719 24.6794 19.4719C24.6572 19.4719 24.6351 19.4608 24.6351 19.439C24.6351 19.3072 24.9547 18.8776 24.9547 18.7895C24.9547 18.6245 24.2277 18.6027 24.2277 18.4705C24.2277 18.3932 24.5141 18.3384 24.7783 18.2941C25.3383 18.1949 26.1641 17.7879 26.1641 17.2158C26.1641 16.5774 25.5473 16.3018 25.142 16.0376C24.9325 15.9055 24.7013 15.7959 24.7013 15.7079C24.7013 15.6195 24.9655 15.6195 25.0757 15.6195C25.2408 15.6195 25.4041 15.6084 25.4041 15.4766C25.4041 15.3771 25.382 15.1795 25.382 15.0252C25.382 14.9149 25.3927 14.8269 25.4374 14.8269C25.6025 14.8269 25.8337 15.366 25.9443 15.366C26.1201 15.366 26.3625 14.9257 26.5282 14.9257C26.5826 14.9257 26.6051 14.959 26.6051 15.0578C26.6058 15.4652 26.3961 15.9274 26.3961 16.3243Z" fill="#575757"/>
<path d="M21.4654 19.3728C21.9723 19.439 22.0937 19.6148 22.0937 19.7584C22.0937 20.0007 21.8732 20.0774 21.6634 20.0774C21.5098 20.0774 21.3333 20.0444 21.1461 20.0444C20.9034 20.0444 20.6617 20.0995 20.4638 20.3308C20.6066 20.3526 20.816 20.4521 20.816 20.6726C20.816 21.311 19.0439 20.7819 19.0439 22.4229C19.0439 23.2921 19.9468 24.2394 21.3111 24.2394C22.0167 24.2394 22.4681 24.0081 22.4681 23.7432C22.4681 23.5345 22.094 23.677 22.094 23.5009C22.094 23.4239 22.2261 23.2804 22.2261 23.1587C22.2261 23.1056 22.1821 23.0058 22.094 23.0058C21.895 23.0058 21.5206 23.3241 20.7609 23.3241C20.1663 23.3241 19.5827 22.9839 19.5827 22.5211C19.5827 22.4222 19.6271 22.3668 19.693 22.3668C19.7592 22.3668 19.8469 22.4111 19.9243 22.4111C19.9905 22.4111 20.0012 22.3668 20.0012 22.2461C20.0012 22.1247 20.0012 21.7832 20.21 21.7832C20.4197 21.7832 20.816 22.554 22.336 22.554C22.8406 22.554 23.8211 22.4555 24.1848 22.1247C24.1737 23.3358 23.2258 24.9318 21.2453 24.9318C19.1868 24.9318 18.0859 23.2804 18.0859 21.7611C18.0859 20.0774 19.4614 18.5476 21.3444 18.5476C21.8281 18.5476 22.2365 18.7123 22.2365 18.9217C22.2362 19.2084 21.5202 19.032 21.4654 19.3728ZM24.8453 19.957C24.9222 20.0774 24.9555 20.1987 24.9555 20.3086C24.9555 20.6172 24.7461 20.9032 24.7461 21.2229C24.7461 21.5859 25.0217 21.8827 25.4382 21.8827C25.8896 21.8827 26.1982 21.5204 26.1982 21.0905C26.1982 20.5069 25.6695 20.0118 24.8453 19.957ZM21.2009 20.6612C21.3105 20.7708 21.3441 20.8811 21.3441 20.9913C21.3441 21.1563 21.2671 21.3328 21.2671 21.52C21.2671 21.7832 21.4654 22.0148 21.7511 22.0148C22.0601 22.0148 22.2698 21.7721 22.2698 21.4871C22.2698 21.0686 21.8389 20.6612 21.2009 20.6612ZM22.6641 18.7896C23.8207 19.0098 24.4486 19.8797 24.4486 20.6945C24.4486 21.2562 24.0964 21.7725 23.4792 21.7725C22.9172 21.7725 22.5118 21.3876 22.5118 20.7711C22.5118 20.309 22.8728 19.8246 22.8728 19.351C22.8728 19.1641 22.818 18.9769 22.6641 18.7896ZM23.2369 20.2538C23.2369 20.4078 23.3471 20.5291 23.5014 20.5291C23.6772 20.5291 23.7878 20.3748 23.7878 20.1987C23.7878 19.9678 23.5784 19.6484 23.3801 19.6484C23.2917 19.6484 23.3249 19.7805 23.3031 19.9237C23.2917 20.0333 23.2369 20.1654 23.2369 20.2538Z" fill="#575757"/>
<path d="M11.086 8.92699C11.4601 8.92699 11.889 6.90145 11.889 6.55993C11.889 6.47187 11.8564 6.40565 11.7794 6.40565C11.4379 6.40565 10.965 8.33237 10.965 8.76195C10.9647 8.83892 10.9865 8.92699 11.086 8.92699ZM13.7828 9.53237C14.0574 9.53237 14.3657 8.47523 14.3657 7.81472C14.3657 7.67153 14.3438 7.51792 14.2773 7.51792C14.046 7.51792 13.6608 8.60766 13.6608 9.20195C13.6611 9.43321 13.7166 9.53237 13.7828 9.53237ZM11.9875 8.55254C12.1085 8.55254 12.2628 8.41976 12.5499 8.10145C12.5714 7.95825 12.5714 7.82582 12.5714 7.66077C12.5714 7.44094 12.4833 7.19859 12.3515 7.19859C12.0208 7.19859 11.8561 8.07926 11.8561 8.31086C11.8564 8.44229 11.922 8.55254 11.9875 8.55254ZM13.4961 8.10145C13.4961 7.91388 13.4517 7.86985 13.408 7.86985C13.2978 7.86985 13.1771 8.00229 13.001 8.29943C13.0228 8.69573 13.089 8.87187 13.1989 8.87187C13.32 8.87187 13.4961 8.48632 13.4961 8.10145ZM14.3438 6.80229C15.0705 6.80229 15.4003 7.42985 15.4003 8.13439C15.4003 8.44229 15.3129 8.89405 15.1697 8.89405C15.0265 8.89405 15.0487 8.6406 15.0265 8.40934C15.0047 8.1122 14.9492 8.04632 14.85 8.04632C14.6628 8.04632 14.5421 8.48632 14.5421 8.89405C14.5421 9.14682 14.5862 9.43321 14.7838 9.43321C14.8941 9.43321 14.9932 9.37808 15.0594 9.3122C15.0154 9.81808 14.6406 10.2591 14.1126 10.2591C13.1438 10.2591 12.7805 9.12497 12.6709 8.46447C12.0873 9.08094 11.5482 9.53237 10.5791 9.53237C9.67693 9.53237 9.26953 8.87187 9.26953 8.24464C9.26953 8.05708 9.33541 7.57304 9.56701 7.57304C9.84197 7.57304 9.59995 8.47523 10.1391 8.47523C10.2715 8.47523 10.5129 8.36497 10.6457 8.00229C10.7226 7.78178 10.7667 7.55119 10.7667 7.35254C10.7667 7.05506 10.7008 6.8685 10.4806 6.8685C10.2931 6.8685 10.0618 7.01102 9.98482 7.08834C10.2494 6.29573 10.8877 5.88867 11.5912 5.88867C12.4618 5.88867 12.9236 6.65909 12.9236 7.51792C12.9236 7.63859 12.9126 7.77069 12.8904 7.89203C13.2648 7.27556 13.7828 6.80229 14.3438 6.80229Z" fill="#575757"/>
<path d="M12.2847 9.76294C11.8115 9.76294 11.7896 10.3364 11.7896 11.4913C11.437 10.732 10.8541 9.91723 10.1715 9.91723C9.70928 9.91723 9.53348 10.2258 9.53348 10.7646C9.53348 10.8749 9.54423 11.0403 9.56642 11.1387C9.62154 10.9522 9.79768 10.8749 10.0175 10.8749C10.4915 10.8749 11.0636 11.2379 11.4377 11.7337C11.0088 11.6567 10.5903 11.5794 10.2384 11.5794C10.0178 11.5794 9.81986 11.6016 9.65482 11.6786C9.33549 11.8214 8.90625 12.295 8.90625 13.0107C8.90625 13.1209 8.91734 13.2416 8.93953 13.3737C9.32474 12.5149 10.3483 12.1297 11.0088 12.1297C11.1412 12.1297 11.2397 12.1408 11.317 12.1518C10.9755 12.4597 10.8989 12.9992 10.8763 13.3626C10.8659 13.5387 10.7994 13.5502 10.678 13.5502C10.678 13.9129 10.9647 14.4527 10.9647 14.7276C10.9647 14.8268 10.9096 14.9149 10.8548 14.9371C10.8548 15.4214 11.3385 15.7737 11.3385 16.0816C11.3385 16.1586 11.317 16.2248 11.2834 16.2581C11.317 16.4564 11.8494 16.7895 11.9184 16.9566C12.0031 17.1596 12.0982 17.1939 12.1533 17.1939C12.3405 17.1939 12.637 16.9734 12.637 16.775C12.637 16.7092 12.5819 16.6322 12.5385 16.5989C12.3291 16.4453 12.2189 16.1149 12.1308 15.895C12.0535 15.895 11.954 15.8624 11.919 15.7327C11.8589 15.5048 11.8558 15.0803 11.7678 14.8268C11.6246 14.7939 11.5584 14.7387 11.5584 14.4416C11.5584 14.2984 11.6468 13.7367 11.6468 13.5384C11.5809 13.5384 11.4928 13.4944 11.4928 13.3623C11.4928 13.0103 11.8454 12.735 11.9439 12.2839C12.5715 12.7458 12.7251 13.2191 12.7251 13.6379C12.7251 13.8574 12.6921 14.0668 12.6481 14.2655C13.1106 14.0339 13.8041 13.6927 13.8041 12.9992C13.8041 12.5915 13.6168 12.1404 12.3728 11.9643C12.758 11.8211 13.2427 11.7445 13.6498 11.7445C14.3547 11.7445 14.7617 11.9643 14.8494 12.4594C14.9926 12.2396 15.1029 11.9861 15.1029 11.7552C15.1029 11.2154 14.6511 10.8638 14.079 10.8638C13.4074 10.8638 12.8131 11.2154 12.1745 11.6453C12.4615 11.051 12.6585 10.6987 13.0115 10.6987C13.0662 10.6987 13.1214 10.7098 13.1765 10.7209C13.0444 10.2369 12.5493 9.76294 12.2847 9.76294Z" fill="#575757"/>
<path d="M30.8315 17.7C31.3827 17.7 31.8231 18.4152 31.8231 19.2522C31.8231 20.1436 31.4043 21.1127 30.6577 21.7726C30.6466 20.2868 28.8281 20.7601 28.8281 19.6818C28.8281 19.2196 29.1592 18.911 29.5559 18.911C29.9085 18.911 30.1838 19.0102 30.3821 19.2089C30.1838 19.0213 30.0846 18.7568 30.0846 18.504C30.0846 18.0848 30.3491 17.7 30.8315 17.7Z" fill="#575757"/>
<path d="M21.0048 7.24251C21.2915 7.5178 21.544 7.63848 21.8525 7.63848C21.9742 7.63848 22.1177 7.60587 22.1951 7.60587C22.2942 7.60587 22.3598 7.64957 22.3598 7.72654C22.3598 7.84789 22.2495 8.04621 22.1177 8.15646C22.2495 8.21125 22.393 8.23343 22.5473 8.23343C23.1725 8.23343 23.8885 7.8368 23.8885 6.84654C24.0213 7.02201 24.0982 7.3857 24.0982 7.55108C24.0982 8.75075 23.2166 9.21293 22.4038 9.21293C21.8751 9.21293 21.6102 9.03646 21.5436 9.03646C21.3349 9.03646 21.346 9.45528 21.2028 9.44419C20.9493 9.40016 20.7188 8.83881 20.7188 8.24453C20.7191 7.89192 20.8072 7.5178 21.0048 7.24251ZM22.6663 6.43881C22.5782 6.29562 22.2495 6.21898 22.0959 6.21898C21.6105 6.21898 21.2801 6.55982 21.2142 6.86839C21.1702 6.75814 21.1372 6.62604 21.1372 6.49394C21.1372 6.00957 21.4677 5.41528 22.2724 5.41528C22.9749 5.41528 23.2502 5.7894 23.3497 5.7894C23.4596 5.7894 23.5698 5.67915 23.6582 5.67915C23.7793 5.67915 23.7793 5.86638 23.7793 5.99881C23.7793 6.43881 23.5806 7.19848 23.0851 7.47377C22.9967 7.28654 22.8206 7.07713 22.5362 6.94537C22.4593 6.91243 22.4263 6.84654 22.4263 6.78033C22.426 6.65898 22.5359 6.50469 22.6663 6.43881Z" fill="#575757"/>
<path d="M13.3525 4.03947C13.3525 4.42468 14.7283 6.30703 14.9929 6.30703C15.2134 6.30703 15.3781 5.92182 15.3781 5.59106C15.3781 5.50367 15.3559 5.41594 15.3125 5.34938C15.1142 5.07409 13.7162 3.97325 13.4077 3.97325C13.3744 3.97325 13.3525 4.00652 13.3525 4.03947ZM5.26179 2.90568C5.26179 3.12619 4.42549 3.86333 4.12868 3.86333C4.01876 3.86333 3.98515 3.73157 3.98515 3.61056C3.98515 3.39073 4.08431 3.08215 4.20565 2.98266C4.34817 2.85056 4.6786 2.78535 4.9317 2.78535C5.08565 2.78535 5.26179 2.81762 5.26179 2.90568ZM15.3125 3.54434C15.3125 2.8835 13.5267 1.68384 13.5068 1.16686C13.5048 1.11947 13.5307 1.07241 13.5707 1.03039C13.8766 0.707701 15.1468 0.472407 15.1468 0.197449C15.1468 0.054928 14.8823 0.0549279 14.7502 0.0549279C13.7267 0.0549279 12.2295 0.429046 12.2295 0.792071C12.2295 1.16686 13.5724 2.08047 13.5724 2.5319C13.5724 2.65291 13.4954 2.69694 13.3741 2.69694C13.0003 2.69694 12.1855 2.24518 11.8003 2.24518C11.6241 2.24518 11.5576 2.36619 11.5576 2.543C11.5576 3.07106 12.1852 4.07274 12.1852 4.36921C12.1852 4.40249 12.1741 4.44652 12.13 4.44652C11.9317 4.44652 10.9969 3.34636 10.6662 3.34636C10.5455 3.34636 10.5341 3.51106 10.5341 3.75342V4.12753C10.5341 4.38064 10.523 4.53493 10.4026 4.53493C10.1156 4.53493 9.98381 3.73157 9.70885 3.73157C9.42246 3.73157 9.36734 5.16216 9.09271 5.16216C8.77305 5.16216 9.04834 3.58804 8.74011 3.58804C8.39893 3.58804 8.01339 4.63409 7.77103 4.63409C7.6833 4.63409 7.66145 4.54568 7.66145 4.46871C7.66145 4.14972 7.84801 3.63241 7.84801 3.32451C7.84801 3.16989 7.80397 3.08215 7.67255 3.08215C7.3307 3.08215 6.58246 3.63241 6.29641 3.63241C6.25238 3.63241 6.19725 3.61056 6.19725 3.56619C6.19725 3.30266 7.39691 2.46568 7.39691 2.09157C7.39691 1.72787 5.74515 1.97056 5.74515 1.55173C5.74515 1.1998 6.92397 0.836441 6.92397 0.473079C6.92397 0.153751 5.52565 0.0112305 4.98649 0.0112305C4.33675 0.0112305 3.98481 0.087533 3.98481 0.27476C3.98481 0.561146 5.46011 0.64955 5.46011 0.902323C5.46011 1.14468 3.92969 1.79409 3.92969 2.16821C3.92969 2.49863 6.087 2.19005 6.087 2.5319C6.087 2.90568 4.20532 4.5235 4.20532 5.063C4.20532 5.18434 4.29339 5.23947 4.41406 5.23947C4.98649 5.23947 6.47187 4.14972 6.8796 4.14972C7.0228 4.14972 7.03389 4.32552 7.03389 4.4798C7.03389 4.76619 6.93507 5.20619 6.93507 5.52585C6.93507 5.77862 7.00095 5.95476 7.22078 5.95476C7.62885 5.95476 8.00229 5.26131 8.27826 5.26131C8.63019 5.26131 8.42112 7.29762 8.94952 7.29762C9.40061 7.29762 9.5875 5.09627 9.87389 5.09627C10.1603 5.09627 10.3919 5.73459 10.6557 5.73459C10.9855 5.73459 10.8315 4.623 11.1841 4.623C11.569 4.623 12.6699 5.944 13.1653 5.944C13.3193 5.944 13.3741 5.82266 13.3741 5.66837C13.3741 5.08484 12.5599 3.76451 12.5599 3.34636C12.5599 3.23644 12.5925 3.20316 12.7136 3.20316C13.1428 3.20316 14.3983 3.79745 14.9922 3.79745C15.1919 3.79745 15.3125 3.68753 15.3125 3.54434ZM14.1673 1.36484C14.1673 1.56283 14.8608 1.99241 15.1804 1.99241C15.3673 1.99241 15.4225 1.73896 15.4225 1.47476C15.4225 1.14468 15.2799 1.13358 14.9932 1.13358C14.6299 1.13358 14.1673 1.23274 14.1673 1.36484ZM11.5804 0.241819C11.5804 0.1756 11.2504 0.109382 10.7993 0.109382C10.0836 0.109382 10.1828 0.704676 9.63255 0.704676C9.06011 0.704676 9.20263 0.087533 8.47624 0.087533C8.03591 0.087533 7.62918 0.164844 7.62918 0.263667C7.62918 0.396104 8.14616 0.340978 8.14616 0.704676C8.14616 1.08955 7.03423 1.1998 7.03423 1.43106C7.03423 1.50804 7.12196 1.54098 7.23221 1.54098C7.4749 1.54098 7.85944 1.43106 8.13507 1.43106C8.28935 1.43106 8.43255 1.46367 8.43255 1.60686C8.43255 1.88215 7.83759 2.37762 7.83759 2.59779C7.83759 2.664 7.89238 2.68619 7.9475 2.68619C8.16801 2.68619 8.54246 2.12451 8.89439 2.12451C9.47792 2.12451 9.09305 3.36821 9.41171 3.36821C9.74179 3.36821 9.59893 2.14602 10.0722 2.14602C10.4581 2.14602 10.7438 2.99375 11.008 2.99375C11.0742 2.99375 11.129 2.93896 11.129 2.86165C11.129 2.63106 10.7989 2.15711 10.7989 1.84921C10.7989 1.66199 10.931 1.57358 11.1072 1.57358C11.3599 1.57358 11.7015 1.72787 11.888 1.72787C11.9539 1.72787 12.0201 1.70602 12.0201 1.62905C12.0201 1.36484 11.0413 1.07879 11.0413 0.737617C11.0416 0.396104 11.5804 0.396104 11.5804 0.241819Z" fill="#575757"/>
<path d="M31.0975 2.02556C31.0975 3.00472 30.3839 3.7533 29.0944 3.96237C29.238 3.97313 29.3701 3.97313 29.5025 3.97313C31.0094 3.97313 31.5607 3.29111 31.5607 2.71901C31.5607 2.39935 31.3842 2.11363 31.0975 2.02556ZM29.238 3.13682C29.238 2.35531 27.3681 2.15699 27.3681 1.98119C27.3681 1.83834 28.4121 1.59565 28.9516 1.58456C28.126 0.528085 26.9496 0.638337 26.9496 0.45111C26.9496 0.340858 27.8306 0.120354 28.644 0.120354C29.3264 0.120354 29.965 0.27464 29.965 0.791951C29.965 1.07867 29.7338 1.37615 29.7338 1.81582C29.7338 2.05817 29.8541 2.26724 30.1744 2.26724C30.5166 2.26724 30.5929 1.90422 30.5929 1.51834C30.5929 1.19968 30.5381 0.957329 30.5381 0.803043C30.5381 0.340858 30.8551 0.032959 31.3069 0.032959C31.6813 0.032959 31.7697 0.197329 32.3207 0.197329C32.0229 0.374135 31.9129 0.693463 31.9129 0.847077C31.9129 1.30993 32.2111 1.62893 32.2111 2.57582C32.2111 4.3143 30.5822 4.93077 28.5889 4.93077C28.041 4.93077 27.4565 4.88674 26.8834 4.79901C26.7956 4.78792 26.7734 4.76607 26.7734 4.71094C26.7734 4.56775 27.556 4.49044 27.556 3.78657C27.556 3.51094 27.4676 3.24708 27.4676 3.14825C27.4676 3.09313 27.5116 3.05985 27.556 3.05985C27.721 3.05985 28.0521 3.69817 28.6665 3.69817C28.8299 3.69817 29.238 3.64304 29.238 3.13682ZM31.0316 0.704556C31.0316 0.858169 31.1526 0.979178 31.3069 0.979178C31.4612 0.979178 31.5825 0.858169 31.5825 0.704556C31.5825 0.55027 31.4612 0.428925 31.3069 0.428925C31.1526 0.428925 31.0316 0.55027 31.0316 0.704556Z" fill="#575757"/>
<path d="M30.0517 10.8748C30.0517 10.6439 29.4675 10.622 29.4127 9.97229C29.4012 9.87347 29.3683 9.69767 29.247 9.69767C29.049 9.69767 29.2029 10.303 28.9827 10.303C28.4765 10.303 28.3115 9.31212 28.1243 9.31212C28.0799 9.31212 28.0275 9.34506 28.0275 9.47716C28.0275 9.59851 28.0496 9.67548 28.0496 9.818C28.0496 9.96153 28.016 10.0607 27.8843 10.0607C27.5868 10.0607 27.3222 9.36691 27.0688 9.36691C27.0137 9.36691 26.9589 9.40019 26.9589 9.45532C26.9589 9.58742 27.1787 9.8291 27.1787 9.95044C27.1787 10.215 26.4627 10.0714 26.4627 10.292C26.4627 10.3911 26.5616 10.4237 26.694 10.4237C26.9256 10.4237 27.2893 10.3252 27.4765 10.3252C27.5868 10.3252 27.7518 10.3471 27.7518 10.4896C27.7518 10.6439 27.3552 10.8419 27.3552 10.9851C27.3552 11.0513 27.4211 11.0839 27.4762 11.0839C27.7737 11.0839 28.3001 10.5669 28.6745 10.5669C28.7404 10.5669 28.9054 10.5999 28.9054 10.699C28.9054 10.8419 28.5313 11.0946 28.5313 11.3041C28.5313 11.3592 28.5649 11.4251 28.6308 11.4251C28.8278 11.4251 29.0923 10.9081 29.4671 10.9081C29.6103 10.9081 29.8197 10.9632 29.9303 10.9632C30.0187 10.9632 30.0517 10.9081 30.0517 10.8748ZM30.338 16.2136C30.5145 15.6637 30.735 15.2778 31.0957 14.6836C30.735 14.497 29.776 14.1 29.776 13.4506C29.776 12.6909 30.7229 12.0967 30.9192 12.0967C31.0076 12.0967 31.0295 12.174 31.0295 12.3172C31.0295 12.7131 30.8422 13.3514 30.8422 13.693C30.8422 14.0009 31.0406 14.2987 31.2167 14.2987C31.4039 14.2987 31.9216 13.6382 31.9216 12.9884C31.9216 11.8214 30.897 11.4694 30.5801 11.4694C30.2826 11.4694 29.7428 11.9535 28.4762 11.9535C26.1101 11.9535 25.5703 9.6096 25.5703 8.5854C25.5703 8.54137 25.5807 8.53027 25.5918 8.53027C25.647 8.53027 25.8789 8.817 26.6275 8.817C27.013 8.817 27.3656 8.7175 27.9276 8.7175C29.2463 8.7175 29.8305 9.63179 30.6459 10.7978C31.1391 11.1057 32.3182 11.6015 32.3182 12.9995C32.3182 14.2325 31.0073 14.9148 30.69 16.2358C31.1942 16.181 31.492 15.2778 32.0096 15.2778C32.2742 15.2778 32.3952 15.4872 32.3952 15.818C32.3952 16.3017 32.1196 17.0288 31.5908 17.4799C31.6016 17.4358 31.6016 17.3804 31.6016 17.3145C31.6016 17.0066 31.4809 16.5666 31.1276 16.5666C30.5794 16.5666 30.4033 17.1609 30.095 17.6557C29.7754 16.5333 29.3458 15.5202 28.5754 14.9037C27.7959 14.2765 26.4513 14.6173 26.4513 13.4728C26.4513 13.1642 26.65 12.7242 26.65 12.372C26.65 12.2509 26.6278 12.1407 26.5612 12.0526C27.6191 12.4493 27.2443 13.1531 27.895 13.8799C28.3001 14.3427 29.4234 14.7827 30.0732 16.6869C30.0839 16.6321 30.095 16.4893 30.095 16.3901C30.095 14.7609 27.9384 13.1642 27.7512 12.5037C29.0039 12.6469 29.2241 12.9555 29.8191 14.6066C29.9411 14.9481 30.338 15.7958 30.338 16.2136Z" fill="#575757"/>
<path d="M24.3161 4.56773C23.5446 4.56773 23.0381 4.18286 23.0381 3.9842C23.0381 3.88504 23.104 3.8195 23.1927 3.8195C23.4347 3.8195 23.9635 4.19328 24.1393 4.19328C24.184 4.19328 24.2166 4.17176 24.2166 4.10555C24.2166 3.90723 24.0293 3.57714 24.0293 3.41244C24.0293 3.36807 24.0626 3.33546 24.1285 3.33546C24.4256 3.33546 24.8663 3.45647 25.0982 3.45647C25.1752 3.45647 25.1971 3.41244 25.1971 3.36807C25.1971 3.12605 24.4808 2.65277 24.4808 2.50958C24.4808 2.37748 25.3708 2.17882 25.3708 1.97042C25.3708 1.74992 24.1608 1.9042 24.1608 1.69479C24.1608 1.54084 24.3924 1.27664 24.3924 1.15563C24.3924 1.1005 24.348 1.07866 24.2714 1.07866C24.1722 1.07866 23.6435 1.28773 23.4229 1.28773C23.313 1.28773 23.1806 1.26588 23.1806 1.11126C23.1806 0.858151 23.6102 0.583193 24.2824 0.583193C25.3705 0.583193 26.0209 1.33176 26.0209 2.58655C26.0216 4.17176 24.911 4.56773 24.3161 4.56773ZM22.1702 2.47664C22.1702 2.35529 21.7399 2.12437 21.7399 1.99227C21.7399 1.97042 21.7614 1.95933 21.7947 1.95933C21.9164 1.95933 22.1258 2.00336 22.2915 2.00336C22.4347 2.00336 22.4566 1.38689 22.5648 1.38689C22.6418 1.38689 22.7735 1.97042 22.8956 1.97042C23.0384 1.97042 23.3026 1.80504 23.4129 1.80504C23.4347 1.80504 23.4569 1.8158 23.4569 1.83832C23.4569 1.91529 23.1816 2.2121 23.1816 2.30017C23.1816 2.39933 23.7987 2.52067 23.7987 2.60874C23.7987 2.71899 23.1705 2.7079 23.1705 2.80706C23.1705 2.88336 23.4021 3.19193 23.4021 3.29109C23.4021 3.31328 23.3907 3.32437 23.3688 3.32437C23.2804 3.32437 22.9392 3.16975 22.8401 3.16975C22.7187 3.16975 22.5228 3.62118 22.4236 3.62118C22.3907 3.62118 22.3688 3.57714 22.3688 3.52202L22.3466 3.08202C22.3466 3.03798 22.3251 2.99361 22.2697 2.99361C22.1372 2.99361 21.8838 2.98252 21.8061 2.98252C21.751 2.98252 21.7292 2.97176 21.7292 2.94958C21.7288 2.86151 22.1702 2.55361 22.1702 2.47664ZM21.8498 4.28101C22.0266 4.28101 22.0596 4.71092 22.0932 4.9637C22.115 5.09613 22.1372 5.10689 22.1924 5.10689C22.3248 5.10689 22.5335 4.60067 22.675 4.60067C22.8838 4.60067 23.4461 5.1842 24.3823 5.1842C25.7134 5.1842 26.9692 4.24807 26.9692 2.59765C26.9692 1.00134 25.8448 0.0655462 24.2939 0.0655462C23.5564 0.0655462 23.0159 0.428908 22.7295 0.428908C22.5557 0.44 22.2915 0 22.1587 0C22.104 0 22.0488 0.109244 22.0488 0.296807C22.0488 0.418151 22.0488 0.803025 21.9164 0.803025C21.6515 0.803025 20.6283 0.0440336 20.6283 0.318655C20.6283 0.572101 21.31 1.34286 21.31 1.54084C21.31 1.73882 20.6391 1.92639 20.6391 2.05815C20.6391 2.30017 21.3544 2.3442 21.3544 2.65277C21.3544 2.96067 20.6055 3.20303 20.6055 3.43429C20.6055 3.62118 21.3544 3.48941 21.3544 3.72034C21.3544 3.95126 20.8041 4.72202 20.8041 4.94151C20.8041 4.99698 20.8149 4.99697 20.8586 4.99697C21.068 4.99697 21.6956 4.28101 21.8498 4.28101Z" fill="#575757"/>
<path d="M16.8671 23.611C16.8671 23.7102 16.8338 23.8204 16.7457 23.93C16.6254 23.7102 16.2835 23.5999 16.1293 23.6002C14.9955 23.6002 15.4247 25.2406 14.214 25.2406C13.7077 25.2406 13.6634 25.1744 13.4768 25.1744C13.3995 25.1744 13.3555 25.2076 13.3555 25.2735C13.3555 25.5602 13.7629 26.2641 14.8966 26.2641C16.0304 26.2641 17.1205 25.571 17.1205 24.7115C17.1205 24.5683 17.0876 24.4154 17.0214 24.2611C17.0654 24.1949 17.176 24.1508 17.2748 24.1508C17.4506 24.1508 17.5498 24.3498 17.7148 24.3498C17.8913 24.3498 18.0234 24.217 18.0234 24.0412C18.0234 23.8974 17.9464 23.7989 17.8146 23.732C17.9027 23.6665 17.9686 23.5562 17.9686 23.4352C17.9686 23.2473 17.8361 23.0722 17.6156 23.0722C17.5165 23.0722 17.4509 23.1058 17.374 23.1811C17.3524 22.9841 17.2419 22.7969 17.0324 22.7969C16.8674 22.7969 16.7457 22.9175 16.7457 23.1054C16.7457 23.2802 16.8671 23.4241 16.8671 23.611Z" fill="#575757"/>
<path d="M10.831 21.5644C11.7117 21.7832 12.152 22.2568 12.2398 22.8185C12.3278 23.3577 12.4378 23.7987 12.6468 24.0182C12.9221 24.3271 13.4616 24.6007 13.9352 24.6007C14.3315 24.6007 14.6502 24.47 14.6502 24.1063C14.6502 23.7096 14.111 22.8182 13.3184 22.8182C13.2415 22.8182 13.1423 22.8296 13.032 22.8296C12.9329 22.8296 12.7897 22.8078 12.702 22.7305C12.5262 22.5758 12.4707 21.7503 12.1406 21.2552C11.7776 20.7046 11.3813 20.5503 10.8421 20.5503C10.4573 20.5503 10.0273 20.759 10.0273 21.0676C10.0273 21.2558 10.1265 21.3876 10.831 21.5644ZM13.9023 24.0296C13.5715 24.0296 13.0764 23.6767 13.0764 23.4784C13.0764 23.313 13.2307 23.2249 13.351 23.2249C13.6267 23.2249 14.1215 23.5671 14.1215 23.8531C14.1218 23.9301 14.0667 24.0296 13.9023 24.0296Z" fill="#575757"/>
<path d="M12.8904 15.4544C12.8904 14.7498 14.564 14.3757 14.564 13.5058C14.564 13.3626 14.5088 13.1098 14.4097 12.9226C14.9925 13.2416 15.4221 13.7814 15.4221 14.2214C15.4221 14.9811 14.6298 15.3334 14.6298 15.807C14.6298 16.3572 15.4772 16.4453 15.4772 17.1276C15.4772 17.6887 14.6735 18.3384 14.6735 19.0648C14.6735 19.6261 15.0702 20.088 15.6749 20.1653C15.4769 20.2093 15.3011 20.2423 15.1139 20.2423C14.0016 20.2423 12.8571 19.329 12.8571 18.2389C12.8571 17.6998 13.0883 17.2271 13.4399 16.8856C13.7488 17.1498 14.0567 17.3256 14.2551 17.3256C14.4309 17.3256 14.5085 17.2379 14.5085 17.1058C14.5088 16.6981 12.8904 16.3243 12.8904 15.4544ZM16.4019 21.0134C16.0245 21.1861 15.8739 21.1566 15.8739 21.5421C15.8739 21.685 15.8406 21.8712 15.8406 21.9707C15.8406 22.1028 15.8625 22.1801 16.0164 22.1801C16.413 22.1801 17.0406 21.5088 17.0406 20.9361C17.0406 20.7814 16.9522 20.7166 16.853 20.7166C16.765 20.7166 16.6665 20.892 16.4019 21.0134ZM16.3579 20.2204C16.3579 19.7253 15.334 19.7142 15.334 18.9656C15.334 18.7781 15.4547 18.4594 15.6974 18.1176C15.7969 18.69 16.0272 18.9875 16.5233 19.175C17.5025 19.5377 17.6349 20.088 17.6349 20.6722C17.6349 21.6631 16.9414 22.8957 15.1583 22.8957C13.727 22.8957 12.7031 21.6184 12.7031 20.5397C12.7031 20.2423 12.7801 19.9125 12.9673 19.9125C13.1327 19.9125 13.1875 20.0443 13.3196 20.1761C13.8154 20.6722 14.3546 20.8036 15.1361 20.8036C15.8406 20.804 16.3579 20.5179 16.3579 20.2204Z" fill="#575757"/>
<path d="M8.56235 20.4592C8.58924 20.6891 8.42487 20.8965 8.19529 20.9234C7.96537 20.9502 7.75697 20.7855 7.73075 20.556C7.70386 20.3257 7.86823 20.1176 8.09815 20.0907C8.32806 20.0639 8.53579 20.2289 8.56235 20.4592ZM6.50521 20.8921C6.55193 21.2679 6.90252 21.5529 7.29815 21.5089C7.441 21.4931 7.57344 21.4541 7.66184 21.399C7.74991 21.7509 8.04537 21.9775 8.4447 21.925C8.85008 21.8723 9.12571 21.5529 9.08201 21.1455C9.07058 21.036 9.04873 20.9691 9.01613 20.8921C9.01613 20.8921 9.06957 20.8864 9.10991 20.879C9.50756 20.8037 9.77546 20.4847 9.74218 20.0995C9.69848 19.7032 9.34285 19.4091 8.97277 19.4548C8.82924 19.4723 8.6968 19.5271 8.6084 19.604C8.5089 19.2743 8.19865 18.9876 7.77512 19.0575C7.39226 19.121 7.13915 19.4457 7.17747 19.8575C7.18386 19.9244 7.19932 20.0007 7.2326 20.0773C7.2326 20.0773 7.16773 20.0871 7.12302 20.0934C6.80168 20.1412 6.4531 20.4645 6.50521 20.8921Z" fill="#575757"/>
</svg>
